SplineFontDB: 3.2
FontName: SolitreoProjectFont
FullName: Solitreo Project Font
FamilyName: Solitreo Project Font
Weight: Regular
Copyright: Copyright (c) 2019, Nathan Gross
UComments: "This font was created as part of the Documenting Judeo-Spanish project. (documentingjudeospanish.com)+AAoACgAA-2019-7-4: Created with FontForge (http://fontforge.org)"
Version: 001.000
ItalicAngle: 0
UnderlinePosition: -99
UnderlineWidth: 49
Ascent: 629
Descent: 371
InvalidEm: 0
LayerCount: 2
Layer: 0 0 "Back" 1
Layer: 1 0 "Fore" 0
XUID: [1021 50 1339596473 32262]
StyleMap: 0x0000
FSType: 0
OS2Version: 0
OS2_WeightWidthSlopeOnly: 0
OS2_UseTypoMetrics: 1
CreationTime: 1562272912
ModificationTime: 1610044399
PfmFamily: 17
TTFWeight: 400
TTFWidth: 5
LineGap: 90
VLineGap: 0
OS2TypoAscent: 0
OS2TypoAOffset: 1
OS2TypoDescent: 0
OS2TypoDOffset: 1
OS2TypoLinegap: 90
OS2WinAscent: 0
OS2WinAOffset: 1
OS2WinDescent: 0
OS2WinDOffset: 1
HheadAscent: 0
HheadAOffset: 1
HheadDescent: 0
HheadDOffset: 1
OS2Vendor: 'PfEd'
Lookup: 4 1 0 "'liga' Standard Ligatures in Hebrew lookup 0" { "'liga' Standard Ligatures in Hebrew lookup 0-1"  } ['liga' ('DFLT' <'dflt' > 'hebr' <'dflt' > ) ]
Lookup: 6 0 0 "'calt' Contextual Alternates lookup 19" { "'calt' Contextual Alternates lookup 19-1"  "'calt' Contextual Alternates lookup 19-2"  } ['calt' ('DFLT' <'dflt' > 'hebr' <'dflt' > 'latn' <'dflt' > ) ]
Lookup: 1 0 0 "altsadi" { "altsadi-1"  } []
Lookup: 6 0 0 "'calt' Contextual Alternates lookup 16" { "'calt' Contextual Alternates lookup 16-1"  } ['calt' ('DFLT' <'dflt' > 'hebr' <'dflt' > 'latn' <'dflt' > ) ]
Lookup: 6 0 0 "'calt' Contextual Alternates lookup 12" { "'calt' Contextual Alternates lookup 12-1"  "'calt' Contextual Alternates lookup 12-2"  "'calt' Contextual Alternates lookup 12-3"  } ['calt' ('DFLT' <'dflt' > 'hebr' <'dflt' > 'latn' <'dflt' > ) ]
Lookup: 1 0 0 "altvav" { "altvav-1"  } []

StartChar: uni05D5
Encoding: 229 1493 0
Width: 150
VWidth: 0
Flags: W
HStem: 0 251
VStem: 39 81<169.215 249.231>
LayerCount: 2
Fore
SplineSet
120 230 m 3
 120 206 82 126 44 67 c 0
 20 29 -4 0 -18 0 c 3
 -37 0 -37 6 -37 17 c 3
 -37 30 15 141 39 229 c 0
 45 250 64 251 84 251 c 0
 85 251 85 251 86 251 c 3
 106 251 120 251 120 230 c 3
EndSplineSet
Validated: 1
Substitution2: "altvav-1" uni05D5.alt
EndChar

StartChar: uni05D2
Encoding: 226 1490 1
Width: 526
VWidth: 0
Flags: W
HStem: -37 47<-50.8017 82.2938 219.969 353.895> -5 53<86.5538 234.418>
VStem: 405 91<108.027 209.902>
LayerCount: 2
Fore
SplineSet
151 48 m 3x60
 199 48 258 10 298 10 c 0
 373 10 405 100 405 178 c 0
 405 210 440 219 476 219 c 0
 486 219 496 213 496 200 c 0
 496 92 396 -37 292 -37 c 0xa0
 256 -37 204 -5 168 -5 c 0
 139 -5 83 -34 46 -34 c 0
 -44 -34 -113 13 -113 34 c 0
 -113 40 -111 43 -103 43 c 0
 -68 43 -45 16 5 16 c 3
 66 16 106 48 151 48 c 3x60
EndSplineSet
Validated: 1
Substitution2: "altgimel-1" uni05D2.alt
EndChar

StartChar: uni05D9
Encoding: 233 1497 2
Width: 135
VWidth: 0
Flags: W
HStem: 76 128<24.6002 59.6443>
VStem: 0 105
LayerCount: 2
Fore
SplineSet
0 92 m 4
 0 105 0 94 24 181 c 4
 30 202 49 204 69 204 c 4
 70 204 71 204 72 204 c 7
 92 204 105 204 105 183 c 7
 105 143 53 76 20 76 c 7
 2 76 0 81 0 92 c 4
EndSplineSet
Validated: 1
Substitution2: "altyud-1" uni05D9.alt
Substitution2: "reg-to-yud-1" uni05D9.alt
EndChar

StartChar: uni05D2_uni05D5
Encoding: 256 -1 4
Width: 526
VWidth: 0
Flags: W
HStem: -37 47<-50.8017 82.2938 219.969 353.895> -5 53<86.5538 234.418>
VStem: 78 81<242.215 322.231> 405 91<108.027 209.902>
LayerCount: 2
Fore
SplineSet
151 48 m 3x70
 199 48 258 10 298 10 c 0
 373 10 405 100 405 178 c 0
 405 210 440 219 476 219 c 0
 486 219 496 213 496 200 c 0
 496 92 396 -37 292 -37 c 0xb0
 256 -37 204 -5 168 -5 c 0
 139 -5 83 -34 46 -34 c 0
 -44 -34 -113 13 -113 34 c 0
 -113 40 -111 43 -103 43 c 0
 -68 43 -45 16 5 16 c 3
 66 16 106 48 151 48 c 3x70
159 304 m 3
 159 280 121 200 83 141 c 0
 59 103 36 74 22 74 c 3
 3 74 3 79 3 90 c 3
 3 103 54 214 78 302 c 0
 84 323 103 324 123 324 c 0
 124 324 125 324 126 324 c 3
 127.739130435 324 129.425330813 324.007561437 131.054656037 324.007561437 c 0
 148.162570888 324.007561437 159 323.173913043 159 304 c 3
EndSplineSet
Validated: 1
LCarets2: 1 189
Ligature2: "'liga' Standard Ligatures in Hebrew lookup 0-1" uni05D2 uni05D5
EndChar

StartChar: uni05E7
Encoding: 247 1511 5
Width: 170
VWidth: 0
Flags: W
HStem: -371 108<-300.577 -245.707>
VStem: 49 91<95.5149 211.5>
LayerCount: 2
Fore
SplineSet
49 179 m 3
 49 211 83 220 119 220 c 0
 129 220 140 214 140 201 c 3
 140 101 95.8203125 21.7978515625 1 0 c 0
 -86 -20 -194 -371 -285 -371 c 3
 -304 -371 -318 -354 -318 -335 c 3
 -318 -298 -291 -263 -267 -263 c 3
 -252 -263 -250 -263 -241 -249 c 0
 -167 -137 -98.8935546875 4.7294921875 -30 32 c 0
 18 51 49 84 49 179 c 3
EndSplineSet
Validated: 1
EndChar

StartChar: uni05DC
Encoding: 236 1500 6
Width: 300
VWidth: 0
Flags: W
HStem: 0 43<57.8557 142.311> 583 46<220.404 267.079>
VStem: 0 46<52.046 242.674> 186 76<90.6017 150.483> 267.079 77.9206<461.146 582.271>
LayerCount: 2
Fore
SplineSet
267 567 m 0
 266.746965966 575.008906626 263 583 251 583 c 3
 193 583 46 285 46 106 c 3
 46 73.9843788128 63 43 89 43 c 0
 145 43 165 87 186 133 c 0
 194 153 219 153 234 153 c 3
 254 153 262 149 262 133 c 3
 262 75 188 0 88 0 c 3
 9 0 0 93 0 124 c 3
 0 310 147 624.025 266 629 c 0
 270.282856294 629.179052185 274.554750145 629.308581723 278.768875412 629.308581723 c 0
 313.890769196 629.308581723 345 620.311331788 345 556 c 3
 345 415 160 108 100 108 c 3
 89 108 87 111 87 122 c 3
 87 137.809097322 267.079410408 419.166225175 267.079410408 561.890941952 c 0
 267.079410408 563.614413574 267.053151663 565.317670153 267 567 c 0
EndSplineSet
Validated: 1
EndChar

StartChar: uni05E1
Encoding: 241 1505 7
Width: 340
VWidth: 0
Flags: W
HStem: 0 41<89.558 179.334> 206.544 44.4557<111.482 220.526>
VStem: -37 115.55<11.5 103.667> 228.3 77.25<90.9233 197.051>
LayerCount: 2
Fore
SplineSet
196 251 m 1
 276.576171875 251 305.549804688 206.034179688 305.549804688 158.490234375 c 0
 305.549804688 154.669921875 305.362304688 150.83203125 305 147 c 0
 296.013671875 52 200 0 121 0 c 0
 76.7392578125 0 50.763671875 26.2744140625 36.166015625 54.9228515625 c 1
 14.8876953125 23.0234375 -5.525390625 0 -18 0 c 0
 -37 0 -37 6 -37 17 c 0
 -37 30 15 141 39 229 c 0
 45 250 64 251 84 251 c 0
 85 251 85 251 86 251 c 0
 106 251 120 251 120 230 c 0
 120 229.721679688 119.995117188 229.436523438 119.984375 229.142578125 c 1
 142.620117188 242.1484375 168.255859375 251 196 251 c 1
82 122 m 0
 79.7831375686 114.965592871 78.5498046875 107.455078125 78.5498046875 99.8798828125 c 0
 78.5498046875 70.6455078125 95.203125 41 123 41 c 0
 181 41 223.999023438 97 228 147 c 0
 228.202148438 149.522460938 228.299804688 151.952148438 228.299804688 154.290039062 c 0
 228.299804688 192.068359375 202.789800388 204.490619718 180.7734375 206.07421875 c 0
 176.39061983 206.38946727 172.235135533 206.544340008 168.291496787 206.544340008 c 0
 109.687042637 206.544340008 97.8654032019 172.343090223 82 122 c 0
EndSplineSet
Validated: 1
Substitution2: "altsamekh-1" uni05E1.alt
Substitution2: "reg-to-yud-1" uni05E1.yud
EndChar

StartChar: uni05DD
Encoding: 237 1501 8
Width: 300
VWidth: 0
Flags: W
HStem: 0 40.7684<64.275 146.861> 212 39<103.924 183.928>
VStem: -0.334933 58.1911<44.2897 163.105> 192.807 76.7804<88.2295 204.818>
LayerCount: 2
Fore
SplineSet
160 251 m 0
 238.148501169 251 269.587707393 209.726991523 269.587707393 159.201857725 c 0
 269.587707393 155.187621435 269.389252188 151.114982512 269 147 c 0
 260.202768577 54 187 0 98 0 c 0
 27.491638716 0 -0.334933080214 40.1451523588 -0.334933080214 93.6241746761 c 0
 -0.334933080214 97.0309826455 -0.222008601118 100.491901496 0 104 c 0
 5.6962890625 194 66 251 160 251 c 0
100 41 m 0
 112 42.1611328125 179.406973099 52.3172866358 192 147 c 0
 192.541735252 151.07312428 192.807269843 155.056640235 192.807269843 158.91868402 c 0
 192.807269843 189.191021293 176.492587425 212 149 212 c 0
 107 212 61.518662896 160.999994317 58 94 c 0
 57.9037073479 92.1664605739 57.8561338788 90.3754288378 57.8561338788 88.6276763424 c 0
 57.8561338788 58.0929336998 72.37703229 40.7683577758 95.3091378507 40.7683577758 c 0
 96.8360683471 40.7683577758 98.4002902705 40.8451669837 100 41 c 0
EndSplineSet
Validated: 1
EndChar

StartChar: uni05E0
Encoding: 240 1504 9
Width: 168
VWidth: 0
Flags: W
HStem: 0.0175781 38<-63.2333 -18.0451>
VStem: 57 81<163.257 249.231>
LayerCount: 2
Fore
SplineSet
-38.8017578125 0.017578125 m 3
 -56.9415196698 0.017578125 -63.5527897189 7.52470961089 -63.5527897189 15.8874805579 c 0
 -63.5527897189 25.5044421728 -54.8097941418 36.2529340337 -44.8017578125 38.017578125 c 0
 0 45.917145493 36.5048660963 157.267031337 57 229 c 0
 63 250 82 251 102 251 c 0
 103 251 103 251 104 251 c 3
 124 251 138 251 138 230 c 3
 138 156.972607879 50 0.017578125 -38.8017578125 0.017578125 c 3
EndSplineSet
Validated: 1
EndChar

StartChar: uni05DF
Encoding: 239 1503 10
Width: 219
VWidth: 0
Flags: W
LayerCount: 2
Fore
SplineSet
180 237 m 3
 199 237 199 231 199 220 c 3
 199 200.764648438 -11.056640625 -130.145507812 -96.1953125 -352.571289062 c 0
 -102.081614279 -367.949298474 -114.337903958 -371.358324868 -128.55133663 -371.358324868 c 0
 -133.190665064 -371.358324868 -138.038507316 -370.995127537 -142.94140625 -370.56640625 c 0
 -143.9375 -370.478515625 -143.9375 -370.478515625 -144.93359375 -370.391601562 c 0
 -163.680298323 -368.751425714 -177.135783578 -367.574663845 -177.135783578 -350.01377236 c 0
 -177.135783578 -273.399586456 129.153499138 237 180 237 c 3
EndSplineSet
Validated: 1
EndChar

StartChar: uni05D0
Encoding: 224 1488 11
Width: 140
VWidth: 0
Flags: W
HStem: -1 21G<-58.0698 25> 520.943 108.074<231.157 302.543>
LayerCount: 2
Fore
SplineSet
223 505 m 0
 181.600585938 413.999023438 99 -1 -49 -1 c 3
 -67.1396484375 -1 -73.7509765625 6.5068359375 -73.7509765625 14.8701171875 c 0
 -73.7509765625 24.4873046875 -65.0078125 35.2353515625 -55 37 c 0
 41 53.9248046875 147 629.017578125 273.198242188 629.017578125 c 3
 303.694335938 629.017578125 315.061523438 611.529296875 315.061523438 588.9296875 c 0
 315.061523438 557.401367188 299.455078125 520.943359375 267.727539062 520.943359375 c 0
 264.646484375 520.943359375 261.405273438 521.283203125 258 522 c 0
 254.720703125 522.690429688 251.5625 523.076171875 248.547851562 523.076171875 c 0
 237.888671875 523.076171875 229.028320312 518.251953125 223 505 c 0
EndSplineSet
Validated: 1
Substitution2: "altalef-1" uni05D0.alt
Substitution2: "reg-to-yud-1" uni05D0.yud
EndChar

StartChar: uni05D7
Encoding: 231 1495 12
Width: 352
VWidth: 0
Flags: W
HStem: 0.0175781 38<-63.2333 -17.3654> 213.132 38.4845<138.695 234.299>
VStem: 238.528 83.4718<95.1394 208.422>
LayerCount: 2
Fore
SplineSet
-38.8017578125 0.017578125 m 0
 -56.9415196698 0.017578125 -63.5527897189 7.52470961091 -63.5527897189 15.8874805579 c 0
 -63.5527897189 25.5044421729 -54.8097941418 36.2529340337 -44.8017578125 38.017578125 c 0
 -7.65013052906e-15 45.917145493 44.5047538324 158.266638413 65 230 c 0
 71 251 82 251 102 251 c 0
 103 251 103 251 104 251 c 0
 122.633493134 251 136 251 137.806480928 234.017088721 c 1
 156.612550327 243.168069208 184.535813329 251.616135585 224.093413694 251.616135585 c 0
 230.122386915 251.616135585 236.421611868 251.419897115 243 251 c 0
 284.352544209 248.360475902 322 230.010415537 322 182 c 0
 322 99.9939026657 257.827148438 0 181 0 c 0
 170.380974303 0 165.553898183 5.49225705415 165.553898183 12.347247468 c 0
 165.553898183 19.6941050781 171.098542471 28.6062729402 181 34 c 0
 205 47.0737771739 229.657060194 86 238 164 c 0
 238.357867597 167.34578377 238.528192463 170.457756008 238.528192463 173.352761594 c 0
 238.528192463 208.514416556 213.402510456 211.669968956 194 213 c 0
 192.705110931 213.088763908 191.40044093 213.131606387 190.087823971 213.131606387 c 0
 170.884169633 213.131606387 149.979560775 203.961669988 133.116884756 195.263206285 c 1
 113.477859545 116.306234318 37.6350637709 0.017578125 -38.8017578125 0.017578125 c 0
EndSplineSet
Validated: 1
EndChar

StartChar: uni05D6
Encoding: 230 1494 13
Width: 180
VWidth: 0
Flags: W
HStem: -1 21G<-30 -12.5> 166 108<95.573 161.577>
VStem: -46 225
LayerCount: 2
Fore
SplineSet
-25 -1 m 0
 -35 -1 -46 5 -46 18 c 3
 -46 28.1982421875 46 274 146 274 c 3
 165 274 179 257 179 238 c 3
 179 201 152 166 128 166 c 3
 113 166 94.1748046875 165.885742188 85 152 c 0
 17.298828125 49.533203125 0 -1 -25 -1 c 0
EndSplineSet
Validated: 1
EndChar

StartChar: uni05D4
Encoding: 228 1492 14
Width: 420
VWidth: 0
Flags: W
HStem: 12.6738 39.2535<125.86 272.982> 34 46<32.4255 172.164>
VStem: -7.24319 69.8854<-44.2857 31.1886> 299.974 91<96.2482 191.5>
LayerCount: 2
Fore
SplineSet
62.9736328125 80 m 0x70
 110.222755118 80 170.298533893 51.9272840349 220.602559432 51.9272840349 c 0
 233.113192917 51.9272840349 245.019424792 53.6636351596 255.973632812 58 c 0
 274.973632812 65.521484375 299.973632812 100.965820312 299.973632812 159 c 3
 299.973632812 191 333.973632812 200 369.973632812 200 c 0
 379.973632812 200 390.973632812 194 390.973632812 181 c 3
 390.973632812 94.9765625 333.973632812 32.40234375 266.973632812 17 c 0
 253.558503241 13.916016338 241.088373152 12.6738219014 229.335418775 12.6738219014 c 0xb0
 180.637682179 12.6738219014 144.252524427 34 103.973632812 34 c 0
 70.0113686615 34 62.6421981382 17.0257514909 62.6421981382 -1.88174009607 c 0
 62.6421981382 -16.3774836462 66.9736328125 -32.0095445165 66.9736328125 -42 c 3
 66.9736328125 -53 66.9736328125 -59 47.9736328125 -59 c 3
 13.9736328125 -59 -5.703125 -24 -7.0263671875 7 c 0
 -7.15802400386 10.0840394107 -7.2431858537 13.1913717988 -7.2431858537 16.2939467369 c 0
 -7.2431858537 48.401726912 1.87736539871 80 62.9736328125 80 c 0x70
EndSplineSet
Validated: 1
Substitution2: "standinghe-1" uni05D4.alt
EndChar

StartChar: uni05DE
Encoding: 238 1502 15
Width: 406
VWidth: 0
Flags: W
HStem: 0 41<85.0196 176.021> 167 106<316.789 388.577>
VStem: -37 114.147<11.5 97.808> 39 81<169.215 249.231>
LayerCount: 2
Fore
SplineSet
120 230 m 0xd0
 120 214.802073488 97.6068118779 168.821266978 82 122 c 0
 78.6535999403 111.960354169 77.1467009211 102.28515122 77.1467009211 93.3307753197 c 0
 77.1467009211 63.0414820482 94.3888655289 41 116 41 c 0
 252 41 244 273 380 273 c 3
 399 273 406 258 406 239 c 3
 406 202 379 167 355 167 c 3
 340 167 321.174804688 166.885742188 312 153 c 0
 258.3671875 71.8291015625 217 0 114 0 c 0
 69.7392578125 0 50.763671875 26.2744140625 36.166015625 54.9228515625 c 1
 14.8876953125 23.0234375 -5.525390625 0 -18 0 c 0
 -37 0 -37 6 -37 17 c 0xe0
 -37 30 15 141 39 229 c 0
 45 250 64 251 84 251 c 0
 85 251 85 251 86 251 c 0
 106 251 120 251 120 230 c 0xd0
EndSplineSet
Validated: 1
EndChar

StartChar: uni05D8
Encoding: 232 1496 16
Width: 355
VWidth: 0
Flags: W
HStem: 0 21G<-27.5 -10.0054> 18 41<98.9527 190.725>
VStem: 242 91<147.699 246.902>
LayerCount: 2
Fore
SplineSet
89 140 m 0xa0
 86.4929493248 133.815941668 85.3324767956 127.051375115 85.3324767956 120.151347827 c 0
 85.3324767956 90.8011475041 106.329386821 59 134 59 c 0
 209 59 242 137 242 215 c 0
 242 247 277 256 313 256 c 0
 323 256 333 250 333 237 c 0
 333 129 236 18 132 18 c 0x60
 87.7392578125 18 60.59765625 37.3515625 46 66 c 1
 25.9443359375 35.11328125 -2.01071711366 0 -18 0 c 3
 -37 0 -37 6 -37 17 c 3
 -37 30 13 134 37 222 c 0
 43 243 62 244 82 244 c 0
 83 244 83 244 84 244 c 3
 104 244 118 244 118 223 c 3
 118 214 104 177 89 140 c 0xa0
EndSplineSet
Validated: 1
Substitution2: "reg-to-yud-1" uni05D8.yud
EndChar

StartChar: uni05E2
Encoding: 242 1506 17
Width: 365
VWidth: 0
Flags: W
HStem: 0.0175781 46.887<49.9558 158.592> 0.0175781 38<-63.2333 -16.6724>
VStem: 57 81<162.257 249.231> 244 91<133.116 243.897>
LayerCount: 2
Fore
SplineSet
49.9558217864 46.9046043143 m 1xb0
 180.393642557 52.0046152757 240.381811258 81.7779655468 244 212 c 0
 244.888759714 243.987302247 279 253 315 253 c 0
 324.965843486 253 335.000000009 247.040737096 335.000000009 234.000683056 c 0
 335 234 l 0
 333.962962963 38 159 0.017578125 -38.8017578125 0.017578125 c 0
 -56.9415196698 0.017578125 -63.5527897189 7.52470961089 -63.5527897189 15.8874805579 c 0
 -63.5527897189 25.5044421728 -54.8097941418 36.2529340337 -44.8017578125 38.017578125 c 0x70
 0 45.917145493 36.5048660963 157.267031337 57 229 c 0
 63 250 82 251 102 251 c 0
 103 251 103 251 104 251 c 0
 124 251 138 251 138 230 c 0
 138 182.390756835 100.598101808 99.110457326 49.9558217864 46.9046043143 c 1xb0
EndSplineSet
Validated: 1
EndChar

StartChar: uni05E9
Encoding: 249 1513 18
Width: 413
VWidth: 0
Flags: W
HStem: 0 43.0668<-62.5333 -10.3328 71.8717 231.379> 178.252 70.91<147.491 206.712>
VStem: 292 91<101.709 193.901>
LayerCount: 2
Fore
SplineSet
161 44 m 0
 213 48.7998046875 290.913580247 74 292 162 c 0
 292.395031625 193.997561626 327 203 363 203 c 0
 373 203 383 197 383 184 c 0
 383 76 284 0 156 0 c 0
 82.8154686867 0 52.8000936337 22.047077671 41.5196852857 38.6173487656 c 1
 16.5957139656 15.3311905945 -11.0639094195 0.017578125 -38.8017578125 0.017578125 c 0
 -54.7370243947 0.017578125 -61.7002073928 5.48492114287 -63.1172548997 12.3099898544 c 0
 -63.4126688253 13.4706699562 -63.5527897189 14.6700079398 -63.5527897189 15.8874805579 c 0
 -63.5527897189 25.5044421729 -54.8097941418 36.2529340337 -44.8017578125 38.017578125 c 0
 -38.6941705278 39.7742831491 -32.7684719455 42.6264949237 -27.0342667986 46.4417866945 c 0
 2.24443365364 68.7825670836 28.603183401 129.528153666 47.2060537097 184.647390825 c 1
 42.1230984074 190.022144181 30.6367779676 194.351996626 30.6367779676 219.72558671 c 0
 30.6367779676 222.265481328 30.7518708547 225.016234116 31 228 c 0
 32.92578125 251.15234375 50 284 96 284 c 0
 114.391339108 284 142.929918842 282.308793229 147.401826252 249.378000322 c 1
 149.312759975 249.239294272 151.313831145 249.162304946 153.407659647 249.162304946 c 0
 169.250029077 249.162304946 190.402542601 253.569766937 218 269 c 0
 233.965793862 277.926832153 245.790778906 281.676821242 253.836355882 281.676821242 c 0
 262.886803016 281.676821242 267.154810822 276.931608506 267.154810822 269.472221057 c 0
 267.154810822 242.928814722 213.112714778 182.018158569 128.207167659 178.252353122 c 1
 116.389642488 142.020367672 94.7003440678 100.766467963 67.6961764325 67.0789719614 c 1
 80.4769205692 56.8230504743 100.550514257 43.066753659 141.625222802 43.066753659 c 0
 147.621672963 43.066753659 154.06571462 43.359938164 161 44 c 0
EndSplineSet
Validated: 1
EndChar

StartChar: uni05E8.alt
Encoding: 257 -1 19
Width: 337
VWidth: 0
Flags: W
HStem: -142.392 32.5333<13.7648 62.5291> 28.2377 39.9774<88.6779 186.885> 258.384 35.6939<98.8197 196.709>
VStem: 0 64.8484<91.1232 226.166> 224.298 69.885<48.7214 236.464>
LayerCount: 2
Fore
SplineSet
156 294 m 0
 158.007477457 294.051906766 160.000080361 294.078027381 161.977319002 294.078027381 c 0
 240.060958242 294.078027381 294.183117564 253.341377246 294.183117564 151.268763496 c 0
 294.183117564 142.62336234 293.794853726 133.537946652 293 124 c 0
 285.025390625 28.3076171875 204.999947136 -103.396246097 31 -142 c 0
 29.796825971 -142.266937059 28.6477839539 -142.391732197 27.5556679533 -142.391732197 c 0
 18.8016389377 -142.391732197 13.7051510429 -134.373546885 13.7051510429 -127.270983441 c 0
 13.7051510429 -127.158604715 13.7064269204 -127.04645521 13.708984375 -126.934570312 c 0
 13.9375262601 -116.936197203 26.1015625 -111.977539062 31.2001953125 -109.858398438 c 0
 180 -48 207.887695312 46.9775390625 219 108 c 0
 222.233703712 125.757672224 224.298122157 144.293937314 224.298122157 162.042553949 c 0
 224.298122157 213.527137573 206.927190064 258.384097869 150.336618801 258.384097869 c 0
 147.335779515 258.384097869 144.224659175 258.257965324 141 258 c 0
 91 254 67.802734375 214.985351562 65 158 c 0
 64.8983940814 155.934012988 64.8484069762 153.894858514 64.8484069762 151.883501002 c 0
 64.8484069762 101.237012165 96.5424853784 68.2150508896 133.879740568 68.2150508896 c 0
 138.840574191 68.2150508896 143.901028197 68.7979956611 149 70 c 0
 158.030541194 72.1288114774 166.070745155 73.0580590009 172.901659199 73.0580590009 c 0
 188.83149397 73.0580590009 198.184821033 68.0045119473 198.184821033 61.3256466148 c 0
 198.184821033 57.2313029315 194.669788595 52.5261555808 187 48 c 0
 164.070395785 34.4686027786 139.903693336 28.2376663281 116.835930419 28.2376663281 c 0
 54.3915392879 28.2376663281 5.92234594698e-15 73.8969647606 0 144 c 0
 0 238.004882812 61 291.54296875 156 294 c 0
EndSplineSet
Validated: 1
EndChar

StartChar: uni05D0.alt
Encoding: 258 -1 20
Width: 140
VWidth: 0
Flags: W
HStem: -1 21G<-58.2534 39.8164>
LayerCount: 2
Fore
SplineSet
272.014648438 629.017578125 m 0
 272.837890625 629.163085938 273.62109375 629.232421875 274.364257812 629.232421875 c 0
 281.665039062 629.232421875 285.126953125 622.537109375 285.126953125 615.182617188 c 0
 285.126953125 607.641601562 281.48828125 599.40625 274.618164062 596.982421875 c 0
 200.22265625 570.728515625 128.81640625 -1 -49.18359375 -1 c 3
 -67.3232421875 -1 -73.9345703125 6.5068359375 -73.9345703125 14.8701171875 c 0
 -73.9345703125 24.4873046875 -65.19140625 35.2353515625 -55.18359375 37 c 0
 45.81640625 54.80859375 129.215820312 603.845703125 272.014648438 629.017578125 c 0
EndSplineSet
Validated: 1
Substitution2: "reg-to-yud-1" uni05D0.alt.yud
EndChar

StartChar: uni05D5.alt
Encoding: 259 -1 21
Width: 138
VWidth: 0
Flags: W
VStem: 157.254 76.1073<482.04 558.796>
LayerCount: 2
Fore
SplineSet
233.033203125 535.94140625 m 0
 223.5343232 461.476053426 19.6316434733 -35.0873376667 -35.3380842826 -35.0873376667 c 0
 -35.6440870034 -35.0873376667 -35.9454744851 -35.0719498111 -36.2421875 -35.041015625 c 0
 -49.8086875256 -33.6264253619 -52.9932381477 -29.4377937603 -52.9932381477 -23.1269076655 c 0
 -52.9932381477 -20.7156388895 -52.5283390339 -17.9945511311 -52 -15 c 0
 -48.6611328125 3.943359375 89.115234375 319.579101562 157.25390625 542.004882812 c 0
 161.996793046 557.486777369 172.251006285 560.861251728 185.35639182 560.861251728 c 0
 189.928255531 560.861251728 194.847104009 560.450581632 200 560 c 0
 200.99609375 559.912109375 200.99609375 559.912109375 201.9921875 559.825195312 c 0
 220.26202212 558.226741494 233.361165019 556.9936629 233.361165019 540.737336453 c 0
 233.361165019 539.26562864 233.253805329 537.670791302 233.033203125 535.94140625 c 0
EndSplineSet
Validated: 1
EndChar

StartChar: uni05D3
Encoding: 227 1491 22
Width: 204
VWidth: 0
Flags: W
HStem: 0 38<0.568471 54.9682>
VStem: 94.7542 80.2458<88.8402 236.852>
LayerCount: 2
Fore
SplineSet
-18 314 m 0
 49.8076171875 309.165039062 175 282.004882812 175 177 c 3
 175 103.97265625 122 0 25 0 c 3
 6.86023564441 0 0.248963260772 7.50715063509 0.248963260772 15.8699332975 c 0
 0.248963260772 25.4869059087 8.99195742289 36.2353983522 19 38 c 0
 71 47.1685546875 87.2080078125 103 94 168 c 0
 94.5080228792 172.861826433 94.754153819 177.485271244 94.754153819 181.88377216 c 0
 94.754153819 256.194288293 24.5023642097 266.300315371 -40 277 c 0
 -145.010958513 294.419601833 -177.744168764 328.348033412 -177.744168764 345.554806109 c 0
 -177.744168764 352.005132022 -173.144219157 356.105587953 -166.027530737 356.105587953 c 0
 -165.372468573 356.105587953 -164.69608346 356.070847036 -164 356 c 0
 -146 354.16796875 -89.9999924838 319.133894474 -18 314 c 0
EndSplineSet
Validated: 1
Substitution2: "altdalet-1" uni05D3.alt
EndChar

StartChar: uni05D3.alt
Encoding: 260 -1 23
Width: 299
VWidth: 0
Flags: W
HStem: 0 38<97.5685 149.845> 207.925 74.4195<-48.4069 68.7849> 226.359 46.4113<39.1092 205.709>
VStem: 189.967 80.666<83.7941 218.623>
LayerCount: 2
Fore
SplineSet
75 261 m 0xd0
 100.887695155 261.364625904 142.8648601 272.770314709 181.31033765 272.770314709 c 0
 228.64874969 272.770314709 270.632659464 255.477791418 270.632659464 178.988426577 c 0
 270.632659464 173.621843668 270.425989931 167.963859038 270 162 c 0
 264 78 210.801757812 0 122 0 c 3
 103.86022786 0 97.2489482024 7.50721030367 97.2489482024 15.870029471 c 0
 97.2489482024 25.4870363464 105.991937956 36.2355306062 116 38 c 0
 156 45.052734375 182.208007813 87.9999999998 189 153 c 0
 189.651908472 159.238825004 189.966635457 164.983404418 189.966635457 170.267973696 c 0
 189.966635457 214.233491805 168.182557605 226.359043518 137.54478051 226.359043518 c 0xb0
 105.164473825 226.359043518 62.8947162909 212.814981947 26 209 c 0
 18.919365982 208.267849338 12.3963693111 207.925216892 6.39982281498 207.925216892 c 0
 -37.0980515227 207.925216892 -52.8952138744 225.953822768 -52.8952138744 244.115629553 c 0
 -52.8952138744 259.871521201 -41.0061694353 275.727660698 -25 280 c 0
 -18.8287309328 281.647180859 -13.9035361693 282.344741692 -9.74017620062 282.344741692 c 0
 13.3035923535 282.344741692 13.0084874573 260.974906505 71.4831470764 260.974906505 c 0
 72.6325176387 260.974906505 73.8045940991 260.983162813 75 261 c 0xd0
EndSplineSet
Validated: 1
EndChar

StartChar: uni05D1
Encoding: 225 1489 24
Width: 274
VWidth: 0
Flags: W
HStem: 0 45.6164<-30.4932 117.609> 208 42.9259<45.0003 155.537>
VStem: 166.3 77.2539<93.4372 197.089>
LayerCount: 2
Fore
SplineSet
59 0 m 0
 -29.0457757445 0 -69.9510006507 46.5801163005 -69.9510006507 67.9538667077 c 0
 -69.9510006507 74.317700016 -66.3247743085 78.4470024495 -59.2369002173 78.4470024495 c 0
 -56.8739633474 78.4470024495 -54.1262973016 77.9880698148 -51 77 c 0
 -37.8808720993 72.8536847189 -1.93075262039 45.616357917 49.4446393642 45.616357917 c 0
 52.8942939714 45.616357917 56.413494838 45.7391599093 60 46 c 0
 115 50 161.672473868 93 166 147 c 0
 166.202148438 149.522460938 166.299804688 151.952148438 166.299804688 154.290039062 c 0
 166.299804688 192.068359375 138 208 106 208 c 3
 71 208 56 193.782226562 40 185 c 0
 33.4838935855 181.423379823 27.9273484021 180.000925028 23.3532465374 180.000925028 c 0
 15.9939008806 180.000925028 11.1777184928 183.683106705 9 188 c 0
 8.3836876563 189.221716504 8.08600972551 190.567132153 8.08600972551 192.013850274 c 0
 8.08600972551 211.955717361 64.3714057071 250.889255361 122.452091347 250.925923634 c 0
 178.919399901 250.925923634 243.553702044 224.153661419 243.553702044 159.363207318 c 0
 243.553702044 155.180451178 243.390821449 151.133647881 243 147 c 0
 234.018054595 51.9995855277 149 0 59 0 c 0
EndSplineSet
Validated: 1
Substitution2: "altbet-1" uni05D1.alt
EndChar

StartChar: uni05E3
Encoding: 243 1507 25
Width: 170
VWidth: 0
Flags: W
HStem: -1 38<-65.4315 -24.6214> 395.302 36.0692<57.6265 124.882> 404.204 42.2973<9.72953 123.3>
VStem: -63.9318 71.4889<323.12 400.492>
LayerCount: 2
Fore
SplineSet
280.198242188 629.017578125 m 0xd0
 281.021472003 629.162689029 281.804513415 629.232061712 282.547765441 629.232061712 c 0
 289.849262558 629.232061712 293.310868845 622.537222881 293.310868845 615.182340479 c 0
 293.310868845 607.641415409 289.671924147 599.406632675 282.801757812 596.982421875 c 0
 208.40625 570.728515625 137 -1 -41 -1 c 0
 -59.1397721397 -1 -65.7510517976 6.50721030367 -65.7510517976 14.870029471 c 0
 -65.7510517976 24.4870363464 -57.0080620443 35.2355306062 -47 37 c 0
 11.2258048521 47.2665317265 63.6021550385 234.083840241 124.881804715 395.302072235 c 1xd0
 100.944427424 398.666631668 78.9049352315 404.204232864 56.5802565983 404.204232864 c 0
 53.0145907856 404.204232864 49.4416498603 404.062968532 45.8525390625 403.749023438 c 0
 15.298853041 401.075837988 7.55710217537 386.502282191 7.55710217537 369.829963003 c 0
 7.55710217537 353.886601545 14.636673207 336.023991488 15.6171875 324.813476562 c 0
 16.576171875 313.85546875 17.0986328125 307.877929688 -1.828125 306.221679688 c 0
 -3.24933811356 306.09735837 -4.65079952894 306.036619708 -6.03196154179 306.036619708 c 0
 -37.5673745131 306.036619708 -58.5202198975 337.701147495 -62.37109375 367.177734375 c 0
 -63.2611220266 373.988901716 -63.9318382336 380.935050547 -63.9318382336 387.745388452 c 0
 -63.9318382336 415.667148623 -52.6576037147 441.306029341 1 446 c 0
 4.94198375396 446.344919009 8.99075465165 446.501529987 13.1302136199 446.501529987 c 0xb0
 51.5490988018 446.501529987 97.779809154 433.01113839 138.951578402 431.371276185 c 1
 180.275906363 534.292092988 225.951017411 619.455144181 280.198242188 629.017578125 c 0xd0
EndSplineSet
Validated: 1
EndChar

StartChar: uni05E8
Encoding: 248 1512 26
Width: 246
VWidth: 0
Flags: W
HStem: 0 21G<-6 47.5> 277.276 41.8704<-20.1844 117.033> 568 36.0856<8.43378 125.941>
VStem: -128 64.8907<357.864 494.9> 167 87<288.282 530.964>
LayerCount: 2
Fore
SplineSet
86 604 m 0
 88.2110776001 604.057181379 90.4003443888 604.085584582 92.5677995085 604.085584582 c 0
 200.154312538 604.085584582 254 534.104162474 254 440 c 3
 254 202 97 0 -2 0 c 3
 -10 0 -15 4.267578125 -15 13 c 3
 -15 23 -3 28.1953125 1 32 c 0
 27 56.7333984375 167 164.780273438 167 447 c 3
 167 528 129.137695312 568 71 568 c 3
 -8.67285918892 568 -63.1093284224 498.11004358 -63.1093284224 418.003974407 c 0
 -63.1093284224 359.104200745 -16.9024560481 319.146344558 54.5286476372 319.146344558 c 0
 63.3169733958 319.146344558 72.4871163756 319.751183509 82 321 c 0
 95.4446543624 322.765012066 106.099822136 323.53187691 114.369188799 323.53187691 c 0
 131.813601601 323.53187691 138.640998959 320.119263906 138.640998959 315.465213055 c 0
 138.640998959 310.510579596 130.903225806 304.148973034 120 299 c 0
 88.3690145093 284.062181326 56.3280081553 277.275929775 26.2529112533 277.275929775 c 0
 -58.7201532816 277.275929775 -128 331.448375839 -128 409 c 0
 -128 521.751953125 -30 601 86 604 c 0
EndSplineSet
Validated: 1
Substitution2: "altresh-1" uni05E8.alt
EndChar

StartChar: uni05D1.alt
Encoding: 261 -1 27
Width: 274
VWidth: 0
Flags: W
HStem: 0 45.6164<-30.4932 121.715> 193.897 72.404<-28.8924 65.0531> 206.017 47.8872<49.7469 190.314>
VStem: 166.749 76.4529<89.8217 203.46>
LayerCount: 2
Fore
SplineSet
242 140 m 0xb0
 234.213684893 51.171890979 149 0 59 0 c 0
 -29.0457757445 0 -69.9510006507 46.5801163005 -69.9510006507 67.9538667077 c 0
 -69.9510006507 74.317700016 -66.3247743085 78.4470024495 -59.2369002173 78.4470024495 c 0
 -56.8739633474 78.4470024495 -54.1262973016 77.9880698148 -51 77 c 0
 -37.8808720993 72.8536847189 -1.93075262039 45.616357917 49.4446393642 45.616357917 c 0
 52.8942939714 45.616357917 56.413494838 45.7391599093 60 46 c 0
 114.999996282 50.0000511276 156.715586317 80.2676100435 165 141 c 0
 166.179430312 149.646311543 166.748538817 157.213801282 166.748538817 163.8223559 c 0
 166.748538817 197.016170303 152.390456757 206.016937089 128.896924975 206.016937089 c 0xb0
 107.299279524 206.016937089 77.9811216092 198.410247297 45 195 c 0
 37.7327059939 194.24854835 31.0578159749 193.897466237 24.9409082209 193.897466237 c 0
 -17.798591213 193.897466237 -33.2975705049 211.037185471 -33.2975705049 228.504265974 c 0
 -33.2975705049 243.968603068 -21.1490030306 259.689535799 -5 264 c 0
 1.04946647992 265.614670383 5.94510168759 266.30150497 10.0627304927 266.30150497 c 0xd0
 33.5325700398 266.30150497 31.7263700906 243.987475072 74.2385309658 243.987475072 c 0
 74.8174113297 243.987475072 75.4045091038 243.991612489 76 244 c 0
 103.920393619 244.392951312 139.262842596 253.904113037 170.25459419 253.904113037 c 0
 210.373288634 253.904113037 243.201434386 237.96607332 243.201434386 165.678935423 c 0
 243.201434386 157.805231066 242.811956772 149.262993297 242 140 c 0xb0
EndSplineSet
Validated: 1
EndChar

StartChar: uni05E4
Encoding: 244 1508 28
Width: 348
VWidth: 0
Flags: W
HStem: -40 46<-132.619 159.473> 208 42.926<123.246 227.684>
VStem: 241.051 76.9593<72.1229 195.325>
LayerCount: 2
Fore
SplineSet
-12 88 m 0
 -12 101 6.20644162711 141.222545695 31 228 c 0
 37 249 56 251 76 251 c 0
 77 251 78 251 79 251 c 0
 99 251 112 251 112 230 c 0
 112 227.667525234 111.871279828 225.226481497 111.621777005 222.691297905 c 1
 134.365208131 238.035669373 165.561883658 250.906580296 196.605287484 250.926018392 c 0
 283.251712123 250.926018392 318.009973576 213.62296058 318.009973576 138.224893687 c 0
 318.009973576 65.2877961938 259.962271143 -40 75 -40 c 0
 -22.3552172555 -40 -214.267038134 -58.6053282262 -280 -94 c 0
 -281.648329508 -94.8875620427 -283.13001648 -95.2839504545 -284.439564221 -95.2839504545 c 0
 -289.150210852 -95.2839504545 -291.633457349 -90.1548721198 -291.633457349 -84.308539575 c 0
 -291.633457349 -60.4049520172 -235.532962076 -28.0813947124 -150 -13 c 0
 -58 3.2216796875 47.078125 3.896484375 76 6 c 0
 191 14.3642578125 237.298627288 76 240.75 131.799804688 c 0
 240.951868661 135.063500843 241.050625955 138.19728543 241.050625955 141.205651977 c 0
 241.050625955 193.687822866 210.994620398 208 174 208 c 0
 146.594368613 208 117.533146382 191.842137472 98.8936514163 177.162682938 c 1
 78.0609689873 126.971222902 36.806762675 72 8 72 c 0
 -12 72 -12 77 -12 88 c 0
EndSplineSet
Validated: 1
EndChar

StartChar: uni05DB
Encoding: 235 1499 29
Width: 289
VWidth: 0
Flags: W
HStem: 0 45.6164<-14.4932 133.609> 213.617 37.3093<101.193 168.229>
VStem: 182.3 77.2539<94.5073 203.157>
LayerCount: 2
Fore
SplineSet
52 157 m 0
 49.4930891678 156.582158688 47.0879501922 156.380053711 44.793119202 156.380053711 c 0
 30.7349742832 156.380053711 20.8164598137 163.964635308 17 176 c 0
 16.2313397614 178.424166097 15.8407304383 181.046594143 15.8407304383 183.80933626 c 0
 15.8407304383 210.740224751 52.9387204433 250.872239661 138.450826946 250.925922038 c 0
 194.91839539 250.925922038 259.553703282 224.154179266 259.553703282 159.363344642 c 0
 259.553703282 155.180424981 259.390821486 151.133648277 259 147 c 0
 250.017578125 52 165 0 75 0 c 0
 -13.0457757445 0 -53.9510006507 46.5801163005 -53.9510006507 67.9538667077 c 0
 -53.9510006507 74.317700016 -50.3247743085 78.4470024495 -43.2369002173 78.4470024495 c 0
 -40.8739633474 78.4470024495 -38.1262973016 77.9880698148 -35 77 c 0
 -21.8808980807 72.853609738 14.0692329939 45.6163570187 65.4446146915 45.6163570187 c 0
 68.8942772834 45.6163570187 72.4134863859 45.7391592946 76 46 c 0
 131 50 177.672851562 93 182 147 c 0
 182.202148438 149.522460938 182.299804688 151.952148438 182.299804688 154.290039062 c 0
 182.299804688 188.934802971 160.181978217 213.616648574 131.833397494 213.616648574 c 0
 129.269319503 213.616648574 126.654268482 213.41472945 124 213 c 0
 90 207.6875 106 166 52 157 c 0
EndSplineSet
Validated: 1
EndChar

StartChar: uni05D3_uni05D9
Encoding: 262 -1 30
Width: 354
VWidth: 0
Flags: W
HStem: 0 40.9946<102.701 186.963>
VStem: 15 81<105.586 150.837> 243.754 80.2522<104.42 235.314>
LayerCount: 2
Fore
SplineSet
-20 26 m 0
 -20 39 -9.7939453125 43.22265625 15 130 c 0
 21 151 40 153 60 153 c 0
 61 153 62 153 63 153 c 0
 83 153 96 153 96 132 c 0
 96 125.540122706 94.3568806728 117.984832527 91.4623620455 109.856422839 c 0
 91.3005642543 108.377235685 91.2832028075 106.931072485 91.2226932853 105.519670573 c 0
 91.1792023276 104.505231548 91.1575071537 103.480674727 91.1575071537 102.448026616 c 0
 91.1575071537 74.6524330115 106.875979419 40.9945799379 136.350871396 40.9945799379 c 0
 136.566511544 40.9945799379 136.782888002 40.9963814667 137 41 c 0
 197 42 237 113.20703125 243 168 c 0
 243.508022879 172.861826433 243.754153819 177.485271244 243.754153819 181.88377216 c 0
 243.754153819 256.194288293 173.50236421 266.300315371 109 277 c 0
 3.98904362001 294.419601479 -28.7441777737 328.347930448 -28.7441777737 345.554716539 c 0
 -28.7441777737 352.00508611 -24.1441714941 356.10557385 -17.0274058768 356.10557385 c 0
 -16.3723826166 356.10557385 -15.6960392285 356.070837543 -15 356 c 0
 3 354.16796875 59 319.133789062 131 314 c 0
 198.807617188 309.165039062 323.062493771 282.0006976 324 177 c 0
 324.004242498 176.524840276 324.006362287 176.049527918 324.006362287 175.574079118 c 0
 324.006362287 89.9972073678 255.331461319 -1.36210487334e-14 135 0 c 0
 94.3024477861 0 69.0644819304 22.2142795859 53.9163719011 48.0624930717 c 1
 35.486383284 26.3765302649 14.7474848862 10 0 10 c 1
 -20 10 -20 15 -20 26 c 0
EndSplineSet
Validated: 1
LCarets2: 1 126
Ligature2: "'liga' Standard Ligatures in Hebrew lookup 0-1" uni05D3 uni05D9
EndChar

StartChar: uni05D3_uni05D9_uni05D9
Encoding: 263 -1 31
Width: 430
VWidth: 0
Flags: W
HStem: 0 38<225.568 279.968> 68 128<24.6002 59.6443 159.6 194.644>
VStem: 319.722 80.2778<88.8403 237.784>
LayerCount: 2
Fore
SplineSet
0 84 m 0
 0 97 0 86 24 173 c 0
 30 194 49 196 69 196 c 0
 70 196 71 196 72 196 c 3
 92 196 105 196 105 175 c 3
 105 135 53 68 20 68 c 3
 0 68 0 73 0 84 c 0
135 84 m 0
 135 97 135 86 159 173 c 0
 165 194 184 196 204 196 c 0
 205 196 206 196 207 196 c 3
 227 196 240 196 240 175 c 3
 240 135 188 68 155 68 c 3
 135 68 135 73 135 84 c 0
182 318 m 0
 269 308.23046875 400 288.017578125 400 177 c 3
 400 103.97265625 347 0 250 0 c 3
 231.86022786 0 225.248948202 7.50721030367 225.248948202 15.870029471 c 0
 225.248948202 25.4870363464 233.991937956 36.2355306062 244 38 c 0
 296 47.1689453125 312.208007812 103 319 168 c 0
 319.486625964 172.657055952 319.722225232 177.101085007 319.722225232 181.343033081 c 0
 319.722225232 266.365829848 225.073664357 270.205547815 160 281 c 0
 46.4400694643 299.837736577 5.63032126764 342.691531023 5.63032126764 360.308741564 c 0
 5.63032126764 365.156281216 8.72013547991 368.093092205 14.2343475174 368.093092205 c 0
 14.7978197736 368.093092205 15.3866072691 368.062426416 16 368 c 0
 34 366.16796875 110.267578125 326.0546875 182 318 c 0
EndSplineSet
Validated: 1
LCarets2: 2 240 105
Ligature2: "'liga' Standard Ligatures in Hebrew lookup 0-1" uni05D3 uni05D9 uni05D9
EndChar

StartChar: uni05D3_uni05D9_uni05D9_uni05D5
Encoding: 264 -1 32
Width: 553
VWidth: 0
Flags: W
HStem: 0 38<348.568 402.968> 68 128<147.6 182.644 282.6 317.644> 304.829 40.3225<148.301 252.218> 320.558 42.3219<38.0055 66.6557> 456.744 27.9339<27.2654 127.447>
VStem: -48.0816 58.2928<387.208 445.507> -40.2473 72.9934<0.827776 86.7949> 442.722 80.2778<88.8403 237.784>
LayerCount: 2
Fore
SplineSet
305 318 m 0xed
 392 308.23046875 523 288.017578125 523 177 c 0
 523 103.97265625 470 0 373 0 c 0
 354.86022786 0 348.248948202 7.50721030367 348.248948202 15.870029471 c 0
 348.248948202 25.4870363464 356.991937956 36.2355306062 367 38 c 0
 419 47.1689453125 435.208007812 103 442 168 c 0
 442.486625964 172.657055952 442.722225232 177.101085007 442.722225232 181.343033081 c 0
 442.722225232 266.365829848 348.073664357 270.205547815 283 281 c 0
 254.835398709 285.672096621 194.155412042 292.431993387 132.338909596 304.82868633 c 1xed
 95.5555935746 210.949416563 57.6135348302 107.008284722 32.74609375 17.9951171875 c 0
 28.4121468991 2.48278498947 18.0589004459 -0.884200234246 4.93075292429 -0.884200234246 c 0
 0.256765288874 -0.884200234246 -4.76895746015 -0.45741495398 -10 0 c 0
 -10.99609375 0.087890625 -10.99609375 0.087890625 -11.9921875 0.1748046875 c 0
 -30.3587309545 1.78171969909 -40.2473368077 2.94382514192 -40.2473368077 19.5043636927 c 0
 -40.2473368077 20.908518638 -40.176245546 22.423376149 -40.033203125 24.05859375 c 0
 -36.9238639083 59.5951570406 11.2289047259 192.114397826 66.6556907325 320.5579773 c 1xdb
 3.36135700756 338.831267303 -48.0816243677 365.176828767 -48.0816243677 404.072532823 c 0
 -48.0816243677 407.294711893 -47.7285857611 410.603019035 -47 414 c 0
 -34.7695087615 471.023823615 30.2359241772 484.678140683 86.9583415811 484.678140683 c 0
 107.181821723 484.678140683 126.352392959 482.942450103 141.702822119 480.817803451 c 1
 176.659054735 548.121849044 207.675321725 595.169823796 224.738451782 595.169823796 c 0
 225.252449514 595.169823796 225.753785987 595.127131851 226.2421875 595.041015625 c 0
 239.799876721 592.650022312 242.986777605 588.889041041 242.986777605 582.877964795 c 0
 242.986777605 580.593167746 242.526352134 577.983289661 242 575 c 0
 240.192035375 564.742352211 197.206126738 467.490971777 148.301470188 345.151210975 c 1
 204.491464467 331.799628131 265.395383481 322.447533399 305 318 c 0xed
258 84 m 0
 258 97 258 86 282 173 c 0
 288 194 307 196 327 196 c 0
 328 196 329 196 330 196 c 0
 350 196 363 196 363 175 c 0
 363 135 311 68 278 68 c 0
 258 68 258 73 258 84 c 0
123 84 m 0
 123 97 123 86 147 173 c 0
 153 194 172 196 192 196 c 0
 193 196 194 196 195 196 c 0
 215 196 228 196 228 175 c 0
 228 135 176 68 143 68 c 0
 123 68 123 73 123 84 c 0
127.44739564 452.704891639 m 1
 113.686897201 454.985177048 98.0088084042 456.744290458 82.6658201005 456.744290458 c 0
 50.0483204694 456.744290458 18.9452762467 448.794141541 11 421 c 0
 10.4693319389 419.14361858 10.21113524 417.30566367 10.21113524 415.486631924 c 0
 10.21113524 395.428086376 41.6067511063 377.670516884 85.2579203206 362.879859968 c 1xd9
 99.323080128 394.281815196 113.579707267 424.741150077 127.44739564 452.704891639 c 1
EndSplineSet
Validated: 1
LCarets2: 3 363 228 88
Ligature2: "'liga' Standard Ligatures in Hebrew lookup 0-1" uni05D3 uni05D9 uni05D9 uni05D5
EndChar

StartChar: uni05D9.alt
Encoding: 265 -1 33
Width: 119
VWidth: 0
Flags: W
HStem: 15 143<8.60022 29.8884>
VStem: -27 116
LayerCount: 2
Fore
SplineSet
-27 31 m 0
 -27 44 -16.7939453125 48.22265625 8 135 c 0
 14 156 33 158 53 158 c 0
 54 158 55 158 56 158 c 3
 76 158 89 158 89 137 c 3
 89 97 26 15 -7 15 c 3
 -27 15 -27 20 -27 31 c 0
EndSplineSet
Validated: 1
EndChar

StartChar: uni05D0.yud
Encoding: 266 -1 34
Width: 209
VWidth: 0
Flags: W
HStem: -2 43<-24.8144 29.5> 521.921 108.079<283.899 355.764>
LayerCount: 2
Fore
SplineSet
326 630 m 3
 356.471873484 630 368.065642863 612.555856033 368.065642863 589.103918261 c 0
 368.065642863 588.080405069 368.043560066 587.045448758 368 586 c 0
 366.75145265 556.034658189 351.95428029 521.9206129 320.143404454 521.9206129 c 0
 316.936376305 521.9206129 313.556425 522.267339781 310 523 c 0
 306.872633193 523.644269807 303.882420964 524.014249015 301.029305888 524.014249015 c 0
 290.479293747 524.014249015 281.80382622 518.955482213 275 504 c 0
 233.600218657 412.999190527 151 -2 3 -2 c 3
 -62 -2 -77 85 -77 85 c 1
 -33 120 l 0
 -33 120 -33.2263467632 116.423721141 -33.2263467632 110.792984214 c 0
 -33.2263467632 89.9592575826 -30.1276595745 41 -1 41 c 0
 88 41 199.801757812 630 326 630 c 3
EndSplineSet
Validated: 1
Substitution2: "altalef-1" uni05D0.alt.yud
EndChar

StartChar: uni05D8.yud
Encoding: 267 -1 35
Width: 420
VWidth: 0
Flags: W
HStem: 0 41<-24.6737 32.6868> 18 41<163.953 255.725>
VStem: 307 91<147.699 246.902>
LayerCount: 2
Fore
SplineSet
111 66 m 1x60
 88 27.7158203125 50 0 -1 0 c 0
 -62 0 -77 85 -77 85 c 1
 -33 120 l 0
 -33 120 -33.132231405 117.388429752 -33.132231405 113.114951165 c 0
 -33.132231405 93.8842975207 -30.4545454545 41 -1 41 c 0xa0
 53 41 96.857421875 204 102 222 c 0
 108 243 127 244 147 244 c 0
 148 244 148 244 149 244 c 3
 169 244 183 244 183 223 c 3
 183 214 169 177 154 140 c 0
 151.493009982 133.815893016 150.332563542 127.051319535 150.332563542 120.151308505 c 0
 150.332563542 90.8009380605 171.329343882 59 199 59 c 0
 274 59 307 137 307 215 c 0
 307 247 342 256 378 256 c 0
 388 256 398 250 398 237 c 0
 398 129 301 18 197 18 c 0
 152.739257812 18 125.59765625 37.3515625 111 66 c 1x60
EndSplineSet
Validated: 1
EndChar

StartChar: uni05E1.yud
Encoding: 268 -1 36
Width: 405
VWidth: 0
Flags: W
HStem: 0 41<-24.6737 31.2647 154.732 244.334> 206.544 44.4557<176.482 285.526>
VStem: 293.3 77.25<90.9233 197.051>
LayerCount: 2
Fore
SplineSet
103.166015625 54.9228515625 m 1
 82 21.4404296875 41 0 -1 0 c 0
 -62 0 -77 85 -77 85 c 1
 -33 120 l 0
 -33 120 -33.132231405 117.388429752 -33.132231405 113.114951165 c 0
 -33.132231405 93.8842975207 -30.4545454545 41 -1 41 c 0
 53 41 98.857421875 211 104 229 c 0
 110 250 129 251 149 251 c 0
 150 251 150 251 151 251 c 0
 171 251 185 251 185 230 c 0
 185 229.721679688 184.995117188 229.436523438 184.984375 229.142578125 c 1
 207.620117188 242.1484375 233.255859375 251 261 251 c 1
 341.576171875 251 370.549804688 206.034179688 370.549804688 158.490234375 c 0
 370.549804688 154.669921875 370.362304688 150.83203125 370 147 c 0
 361.013671875 52 265 0 186 0 c 0
 141.739257812 0 117.763671875 26.2744140625 103.166015625 54.9228515625 c 1
147 122 m 0
 144.783203125 114.965820312 143.549804688 107.455078125 143.549804688 99.8798828125 c 0
 143.549804688 70.6455078125 160.203125 41 188 41 c 0
 246 41 288.999023438 97 293 147 c 0
 293.202148438 149.522460938 293.299804688 151.952148438 293.299804688 154.290039062 c 0
 293.299804688 192.068359375 267.790039062 204.490234375 245.7734375 206.07421875 c 0
 241.390654938 206.389464833 237.235200458 206.544336292 233.291586916 206.544336292 c 0
 174.687023842 206.544336292 162.865028938 172.342804782 147 122 c 0
EndSplineSet
Validated: 1
EndChar

StartChar: uni05D0.alt.yud
Encoding: 269 -1 37
Width: 212
VWidth: 0
Flags: W
HStem: -2 43<-24.8144 28.9079>
LayerCount: 2
Fore
SplineSet
3 -2 m 3
 -62 -2 -77 85 -77 85 c 1
 -33 120 l 0
 -33 120 -33.2263467632 116.423721141 -33.2263467632 110.792984214 c 0
 -33.2263467632 89.9592575826 -30.1276595745 41 -1 41 c 0
 94 41 184.201053306 603.828797645 327 629 c 0
 327.823229815 629.145110904 328.606271227 629.214483587 329.349523252 629.214483587 c 0
 336.651020371 629.214483587 340.112626657 622.519644756 340.112626657 615.164762354 c 0
 340.112626657 607.623837284 336.47368196 599.38905455 329.603515625 596.96484375 c 0
 255.207171506 570.713307456 184 -2 3 -2 c 3
EndSplineSet
Validated: 1
EndChar

StartChar: uni05E6
Encoding: 246 1510 38
Width: 231
VWidth: 0
Flags: W
HStem: 0 21G<-24 18.8199> 227.213 57.9892<-10.0419 141.361> 548 41.4812<-18.3706 113.357>
VStem: -126.198 44.859<349.192 484.938> 167 81<321.875 490.696>
LayerCount: 2
Fore
SplineSet
63 589 m 0
 67.6860387882 589.323175089 72.2794062305 589.481237593 76.7805138516 589.481237593 c 0
 193.306906405 589.481237593 248 483.546433329 248 394 c 0
 248 368.712835033 246.092198991 344.351348661 242.563257067 321.004297939 c 1
 316.286026498 353.248309537 396.929506995 408.936878619 478.140625 494.68359375 c 0
 496.639132368 514.21532305 510.796052723 521.256352579 520.355296226 521.256352579 c 0
 530.020661887 521.256352579 534.985701635 514.058122991 534.985701635 505.294855336 c 0
 534.985701635 499.32947866 532.684968112 492.638884116 528 487 c 0
 421.878821157 359.271269422 318.683455581 286.53965575 226.798425458 252.142289609 c 1
 178.331672221 95.944960113 57.6397232648 3.31609739668e-14 -20 0 c 0
 -28 0 -33 4.267578125 -33 13 c 0
 -33 23 -20.9998109741 28.1951137804 -17 32 c 0
 2.50000570786 50.5497023439 96.2500548833 91.7762764009 141.906290092 230.291742663 c 1
 126.657339785 228.205546554 111.87289023 227.212757423 97.603570916 227.212757423 c 0
 -37.3277803287 227.212757423 -126.19782294 315.98480555 -126.19782294 408.453529984 c 0
 -126.19782294 410.966858436 -126.132168493 413.482917878 -126 416 c 0
 -120.644121393 518 -53 581 63 589 c 0
157.688325654 293.112143663 m 1
 163.58955391 325.760982252 167 362.536647132 167 404 c 0
 167 490.005859375 120 548 53 548 c 0
 -26.404296875 548 -76.3535447761 487 -81 423 c 0
 -81.2265846214 419.879036799 -81.338774801 416.790322368 -81.338774801 413.736151359 c 0
 -81.338774801 339.17543809 -14.4754065904 285.20199454 87.180265566 285.20199454 c 0
 109.163945972 285.20199454 132.774750785 287.726159294 157.688325654 293.112143663 c 1
EndSplineSet
Validated: 1
Substitution2: "altsadi-1" uni05E6.alt
EndChar

StartChar: uni05EA
Encoding: 250 1514 39
Width: 363
VWidth: 0
Flags: W
HStem: -372 50<-519.213 -332.503> 18 41<93.8011 190.725>
VStem: -633.17 64.4863<-274.531 -129.761> 242 91<147.699 246.902>
LayerCount: 2
Fore
SplineSet
89 91 m 0
 95.462890625 67.671875 110 59 134 59 c 0
 209 59 242 137 242 215 c 0
 242 247 277 256 313 256 c 0
 323 256 333 250 333 237 c 0
 333 129 236 18 132 18 c 0
 107.276912449 18 84.837890625 24.6767578125 74 36 c 1
 22.0478515625 -128.162109375 -167.069457445 -372 -452 -372 c 0
 -564.042316481 -372 -633.169653415 -300.329208154 -633.169653415 -214.121679162 c 0
 -633.169653415 -157.986623991 -603.858848813 -95.6878211496 -538 -43 c 0
 -518.73638451 -27.5888905448 -500.570651981 -20.8354689095 -488.281746563 -20.8354689095 c 0
 -478.560159586 -20.8354689095 -472.516395767 -25.0618805471 -472.516395767 -32.5719472938 c 0
 -472.516395767 -41.1947917965 -480.48387609 -54.1464714846 -500 -70 c 0
 -546.01460519 -107.379033812 -568.683359888 -158.108349346 -568.683359888 -204.254826462 c 0
 -568.683359888 -267.420729293 -526.210062868 -322 -443 -322 c 0
 -232 -322 -43.0126953125 -104 6 91 c 0
 9.70439554118 105.738163774 29.1989771958 113.820756751 48.4727245885 113.820756751 c 0
 66.6718946271 113.820756751 84.674168484 106.614303906 89 91 c 0
EndSplineSet
Validated: 1
EndChar

StartChar: uni05DA
Encoding: 234 1498 40
Width: 273
VWidth: 0
Flags: W
HStem: 194.897 72.4041<-43.9117 51.0366> 207.317 37.6703<11.2142 161.495>
VStem: 166.529 74.845<124.105 223.123>
LayerCount: 2
Fore
SplineSet
227 140 m 0x60
 123.283272197 -122 166 -234.38986903 26 -361 c 0
 18.1583460611 -368.091663087 10.0414527858 -371.057671951 3.18353703362 -371.057671951 c 0
 -6.74191477702 -371.057671951 -14.0302200934 -364.844852633 -14.0302200934 -355.934815274 c 0
 -14.0302200934 -350.374758783 -11.1921317121 -343.764397337 -4.3857421875 -336.958007812 c 0
 75.6767578125 -256.895507812 52.8489672517 -101 159 143 c 0
 164.219198603 154.996910686 166.528763457 164.888818275 166.528763457 173.006778678 c 0
 166.528763457 199.886278089 141.207891469 207.317140003 112.349456829 207.317140003 c 0x60
 78.0010962995 207.317140003 38.6412024133 196.790114471 31 196 c 0
 23.7327059939 195.24854835 17.0528377901 194.897466237 10.9266761507 194.897466237 c 0
 -32.2126638825 194.897466237 -47.8952138744 212.306665392 -47.8952138744 229.914651848 c 0
 -47.8952138744 245.245805292 -36.0061694353 260.727660698 -20 265 c 0
 -13.9504035994 266.614747899 -9.0329166953 267.30161338 -4.87811497422 267.30161338 c 0xa0
 18.8031244273 267.30161338 17.7070877447 244.987484243 60.2387756144 244.987484243 c 0
 60.8177094815 244.987484243 61.4047267704 244.991618644 62 245 c 0
 89.4133832289 245.385976237 131.763983982 254.223416219 168.431317582 254.223416219 c 0
 208.254366537 254.223416219 241.373810323 243.799357883 241.373810323 200.803318994 c 0
 241.373810323 185.186421042 237.004471885 165.272409662 227 140 c 0x60
EndSplineSet
Validated: 1
EndChar

StartChar: uni05E5
Encoding: 245 1509 41
Width: 309
VWidth: 0
Flags: W
HStem: 143.897 71.0483<140.331 221.72>
LayerCount: 2
Fore
SplineSet
77.5 -48.2578125 m 0
 18.3427734375 -214 -58 -343.377649137 -112.358398438 -368.756835938 c 0
 -118.747974846 -371.740041071 -123.996710853 -373.00687928 -128.223426424 -373.00687928 c 0
 -133.537059179 -373.00687928 -137.235453638 -371.004722064 -139.5546875 -367.893554688 c 0
 -141.876332608 -365.052625204 -142.89304588 -361.432101442 -142.89304588 -357.580393582 c 0
 -142.89304588 -350.248146124 -139.208652102 -342.078127315 -133.828125 -336.853515625 c 0
 -112 -315.657919938 -89.158203125 -280.944335938 -67.51171875 -234.787109375 c 0
 -1.955078125 -95 42.072265625 103.849609375 45 148 c 0
 42.776995685 156.065107011 23.345239267 156.167545381 23.345239267 187.537345147 c 0
 23.345239267 189.806250025 23.4468924876 192.238723647 23.6640625 194.849609375 c 0
 25.58984375 218.001953125 42.6640625 250.849609375 88.6640625 250.849609375 c 0
 107.089597982 250.849609375 135.700144196 249.152107586 140.090583759 216.043593539 c 1
 145.205089333 215.375381541 150.945877197 214.944855435 157.298860449 214.944855435 c 0
 181.673796644 214.944855435 215.060741662 221.282546211 256.6640625 244.849609375 c 0
 274.994150399 255.233067489 288.240140257 259.582161831 296.863924053 259.582161831 c 0
 305.323361928 259.582161831 309.335088461 255.39725186 309.335088461 248.618175866 c 0
 309.335088461 220.523956162 240.43428842 147.875325039 133.664760316 143.896595794 c 1
 126.073780247 104.1805391 110.286824859 43.601659038 77.5 -48.2578125 c 0
EndSplineSet
Validated: 1
EndChar

StartChar: uni05E1.alt
Encoding: 270 -1 42
Width: 545
VWidth: 0
Flags: W
HStem: -17.2322 49.6407<25.5876 150.538> 0 41<292.732 382.334> 206.544 44.4557<314.482 423.526>
VStem: -51.8054 55.8229<54.8123 197.201> 431.3 77.25<90.9233 197.051>
LayerCount: 2
Fore
SplineSet
114 37 m 0xb8
 200.9921875 59.5048828125 229.142578125 184 242 229 c 0
 248 250 267 251 287 251 c 0
 288 251 288 251 289 251 c 0
 309 251 323 251 323 230 c 0
 323 229.721679688 322.995117188 229.436523438 322.984375 229.142578125 c 1
 345.620117188 242.1484375 371.255859375 251 399 251 c 1
 479.576171875 251 508.549804688 206.034179688 508.549804688 158.490234375 c 0
 508.549804688 154.669921875 508.362304688 150.83203125 508 147 c 0
 499.013671875 52 403 0 324 0 c 0x78
 279.739257812 0 255.763671875 26.2744140625 241.166015625 54.9228515625 c 1
 196.107613539 4.82287205034 140.362282745 -17.2321558067 89.6324068346 -17.2321558067 c 0
 13.2245820536 -17.2321558067 -51.8054399776 32.8007449766 -51.8054399776 112.40005474 c 0
 -51.8054399776 151.389453449 -36.2031490148 197.472555977 1.306640625 248.244140625 c 0
 19.0713626202 272.289647598 38.002660089 284.031099807 49.7415509318 284.031099807 c 0
 56.8323076381 284.031099807 61.2988139403 279.747066339 61.2988139403 271.302992714 c 0
 61.2988139403 262.587910135 56.5410056182 249.44147286 45 232 c 0
 16.9958610913 189.678521206 4.01743734919 148.770375026 4.01743734919 115.125143805 c 0
 4.01743734919 66.0365911088 31.6445418641 32.4085684927 80.5403222954 32.4085684927 c 0
 90.7802152941 32.4085684927 101.952908268 33.8834237587 114 37 c 0xb8
285 122 m 0
 282.783203125 114.965820312 281.549804688 107.455078125 281.549804688 99.8798828125 c 0
 281.549804688 70.6455078125 298.203125 41 326 41 c 0
 384 41 426.999023438 97 431 147 c 0
 431.202148438 149.522460938 431.299804688 151.952148438 431.299804688 154.290039062 c 0
 431.299804688 192.068359375 405.790039062 204.490234375 383.7734375 206.07421875 c 0
 379.390654938 206.389464833 375.235200458 206.544336292 371.291586916 206.544336292 c 0
 312.687023842 206.544336292 300.865028938 172.342804782 285 122 c 0
EndSplineSet
Validated: 1
EndChar

StartChar: quotesingle
Encoding: 39 39 43
Width: 186
VWidth: 0
Flags: W
HStem: 419.931 155.129
VStem: 0.237189 155.29
LayerCount: 2
Fore
SplineSet
88 564 m 0
 91.4499333936 569.218574054 98.5710563049 575.059623402 110.720240248 575.059623402 c 0
 117.72303537 575.059623402 126.396340825 573.119007877 137 568 c 0
 150.675385082 561.398089961 155.527611375 552.766911616 155.527611375 545.06526283 c 0
 155.527611375 540.964414406 154.151919851 537.127103965 152 534 c 0
 124.475585938 494.000976562 63.2626953125 427.950195312 32 421 c 0
 28.7129988007 420.269351482 25.5903419201 419.930913827 22.6775712466 419.930913827 c 0
 9.21586598456 419.930913827 0.237188894965 427.159714441 0.237188894965 436.309115457 c 0
 0.237188894965 437.82791347 0.48460448829 439.39963537 1 441 c 0
 5.8310546875 456 37.7578125 488.000976562 88 564 c 0
EndSplineSet
Validated: 1
EndChar

StartChar: uni05D4.alt
Encoding: 271 -1 44
Width: 180
VWidth: 0
Flags: W
HStem: -42.0921 303.037
VStem: -45.4259 74.7399<-22.1785 52.8339> 62.8204 86.9611<133.722 251.258>
LayerCount: 2
Fore
SplineSet
63 216 m 0
 62.8795548961 217.376696014 62.8204236337 218.71246058 62.8204236337 220.008514003 c 0
 62.8204236337 248.723088764 91.8456839131 257.944991982 126.16015625 260.9453125 c 0
 126.887642647 261.008925662 127.623232565 261.041129865 128.362304007 261.041129865 c 0
 137.743787704 261.041129865 147.686241262 255.852140641 148.736328125 243.84765625 c 0
 149.44499867 235.747383027 149.781545676 228.030200293 149.781545676 220.670539485 c 0
 149.781545676 81.4286480398 29.3140279589 70.1622789104 29.3140279589 13.713386567 c 0
 29.3140279589 6.90161144527 31.0682304234 -0.568094503624 35 -9 c 0
 36.7465738526 -12.7455936739 37.8865334162 -17.05120263 37.8865334162 -21.2375057796 c 0
 37.8865334162 -28.1928835373 34.7397305145 -34.8189234218 26 -38 c 0
 19.499851174 -40.3658629918 11.2647617636 -42.0920704319 2.83764457433 -42.0920704319 c 0
 -10.7748862589 -42.0920704319 -24.8884701821 -37.5879222456 -33 -24 c 0
 -41.7361531458 -9.36574822062 -45.4259210367 2.86019211402 -45.4259210367 13.576898454 c 0
 -45.4259210367 71.8721259811 63.7539029955 85.5092864357 63.7539029955 199.202903463 c 0
 63.7539029955 204.57358055 63.5102743753 210.167527978 63 216 c 0
EndSplineSet
Validated: 1
EndChar

StartChar: uni05E6.alt
Encoding: 272 -1 45
Width: 194
VWidth: 0
Flags: W
HStem: 0 45.9824<-91.7171 11.5917>
VStem: 176.605 47.3502<302.245 369.504>
LayerCount: 2
Fore
SplineSet
52 179 m 0
 45.0045289678 184.098474483 30.9612473594 197.137469945 30.9612473594 220.831212591 c 0
 30.9612473594 221.544461908 30.9739731273 222.267366364 31 223 c 0
 31.74609375 244 46 279 91 279 c 0
 102.619810946 279 115.314507724 275.759519846 125.577093022 269.378969582 c 1
 136.2587805 276.633240714 152.959089955 286.024170977 176.60546875 347.5859375 c 0
 183.621354921 365.851328159 194.49597587 370.592156423 203.421784355 370.592156423 c 0
 206.005814057 370.592156423 208.42651227 370.194823916 210.54296875 369.61328125 c 0
 218.370491396 367.46249836 223.955651518 353.10800444 223.955651518 332.425352724 c 0
 223.955651518 293.943639099 204.621193714 233.555391514 144.421752335 189.104286261 c 1
 136.88815476 49.6528023422 31.2499947442 0 -77 0 c 1
 -88.157081535 0 -95.3867957549 6.26169203371 -95.3867957549 14.2671427832 c 0
 -95.3867957549 25.634784321 -80.8090527014 40.518479984 -42.1982421875 45.982421875 c 0
 14.3635377814 53.986664078 54.2375261372 87.4888867415 54.2375261372 170.576140574 c 0
 54.2375261372 172.895095336 54.2064658534 175.252674906 54.1438412013 177.649402954 c 0
 53.2381048283 178.165814616 52.5157574455 178.624122927 52 179 c 0
EndSplineSet
Validated: 1
EndChar

StartChar: uni05F3
Encoding: 273 1523 46
Width: 292
VWidth: 0
Flags: W
HStem: 419.931 155.129
VStem: 116.237 155.29
LayerCount: 2
Fore
SplineSet
204 564 m 0
 207.449933393 569.218574054 214.571056305 575.059623402 226.720240248 575.059623402 c 0
 233.72303537 575.059623402 242.396340825 573.119007877 253 568 c 0
 266.675385082 561.398089961 271.527611375 552.766911616 271.527611375 545.06526283 c 0
 271.527611375 540.964414406 270.151919851 537.127103965 268 534 c 0
 240.475585938 494.000976562 179.262695312 427.950195312 148 421 c 0
 144.712998801 420.269351482 141.59034192 419.930913827 138.677571247 419.930913827 c 0
 125.215865985 419.930913827 116.237188895 427.159714441 116.237188895 436.309115457 c 0
 116.237188895 437.82791347 116.484604488 439.39963537 117 441 c 0
 121.831054688 456 153.7578125 488.000976562 204 564 c 0
EndSplineSet
Validated: 1
EndChar

StartChar: uni05E1_quotesingle
Encoding: 274 -1 47
Width: 534
VWidth: 0
Flags: W
HStem: -17.2323 49.6409<20.5876 145.538> 0 41<287.732 377.334> 206.544 44.4557<309.482 418.526>
VStem: -56.8054 55.8229<54.8122 197.201> 426.3 77.25<90.9233 197.051>
LayerCount: 2
Fore
SplineSet
109 37 m 0xb8
 195.99220501 59.5047845697 224.142578125 184 237 229 c 0
 243 250 262 251 282 251 c 0
 283 251 283 251 284 251 c 0
 304 251 318 251 318 230 c 0
 318 229.721679688 317.995117188 229.436523438 317.984375 229.142578125 c 1
 340.620117188 242.1484375 366.255859375 251 394 251 c 1
 474.576171875 251 503.549804688 206.034179688 503.549804688 158.490234375 c 0
 503.549804688 154.669921875 503.362304688 150.83203125 503 147 c 0
 494.013671875 52 398 0 319 0 c 0x78
 274.739257812 0 250.763671875 26.2744140625 236.166015625 54.9228515625 c 1
 191.107607593 4.82275351381 135.36226803 -17.2323164715 84.6323867487 -17.2323164715 c 0
 8.22457065693 -17.2323164715 -56.8054399776 32.8006579068 -56.8054399776 112.400011215 c 0
 -56.8054399776 151.38943467 -41.2031490148 197.472555977 -3.693359375 248.244140625 c 0
 14.0713626202 272.289647598 33.002660089 284.031099807 44.7415509318 284.031099807 c 0
 51.8323076381 284.031099807 56.2988139403 279.747066339 56.2988139403 271.302992714 c 0
 56.2988139403 262.587910135 51.5410056182 249.44147286 40 232 c 0
 11.9958610913 189.678521206 -0.982562650808 148.77038367 -0.982562650808 115.125160358 c 0
 -0.982562650808 66.0366040687 26.6445588948 32.4085858236 75.540367508 32.4085858236 c 0
 85.7802481816 32.4085858236 96.9529259991 33.8834356474 109 37 c 0xb8
280 122 m 0
 277.783203125 114.965820312 276.549804688 107.455078125 276.549804688 99.8798828125 c 0
 276.549804688 70.6455078125 293.203125 41 321 41 c 0
 379 41 421.999023438 97 426 147 c 0
 426.202148438 149.522460938 426.299804688 151.952148438 426.299804688 154.290039062 c 0
 426.299804688 192.068359375 400.790039062 204.490234375 378.7734375 206.07421875 c 0
 374.390654938 206.389464833 370.235200458 206.544336292 366.291586916 206.544336292 c 0
 307.687023842 206.544336292 295.865028938 172.342804782 280 122 c 0
153 564 m 0
 156.449933393 569.218574054 163.571056305 575.059623402 175.720240248 575.059623402 c 0
 182.72303537 575.059623402 191.396340825 573.119007877 202 568 c 0
 215.675385082 561.398089961 220.527611375 552.766911616 220.527611375 545.06526283 c 0
 220.527611375 540.964414406 219.151919851 537.127103965 217 534 c 0
 189.475585938 494.000976562 128.262695312 427.950195312 97 421 c 0
 93.7129988007 420.269351482 90.5903419201 419.930913827 87.6775712466 419.930913827 c 0
 74.2158659846 419.930913827 65.237188895 427.159714441 65.237188895 436.309115457 c 0
 65.237188895 437.82791347 65.4846044883 439.39963537 66 441 c 0
 70.8310546875 456 102.7578125 488.000976562 153 564 c 0
EndSplineSet
Validated: 1
LCarets2: 1 192
Ligature2: "'liga' Standard Ligatures in Hebrew lookup 0-1" uni05E1 quotesingle
EndChar

StartChar: uni05D1_quotesingle
Encoding: 275 -1 48
Width: 274
VWidth: 0
Flags: W
HStem: 0 45.6164<-30.4932 117.609> 208 42.9258<45.4217 154.596>
VStem: 166.3 77.2539<94.5072 196.542>
LayerCount: 2
Fore
SplineSet
59 0 m 0
 -29.0457757445 0 -69.9510006507 46.5801163005 -69.9510006507 67.9538667077 c 0
 -69.9510006507 74.317700016 -66.3247743085 78.4470024495 -59.2369002173 78.4470024495 c 0
 -56.8739633474 78.4470024495 -54.1262973016 77.9880698148 -51 77 c 0
 -37.8808720993 72.8536847189 -1.93075262039 45.616357917 49.4446393642 45.616357917 c 0
 52.8942939714 45.616357917 56.413494838 45.7391599093 60 46 c 0
 115 50 161.672473868 93 166 147 c 0
 166.202148438 149.522460938 166.299804688 151.952148438 166.299804688 154.290039062 c 0
 166.299804688 192.068359375 138 208 106 208 c 3
 71 208 56 193.782226562 40 185 c 0
 33.4838935855 181.423379823 27.9273484021 180.000925028 23.3532465374 180.000925028 c 0
 15.9939008806 180.000925028 11.1777184928 183.683106705 9 188 c 0
 8.3836876563 189.221716504 8.08600972551 190.567132153 8.08600972551 192.013850274 c 0
 8.08600972551 211.881109299 64.223721128 250.852535604 122.2265625 250.92578125 c 0
 122.452091347 250.925923634 l 0
 178.919399901 250.925923634 243.553702044 224.153661419 243.553702044 159.363207318 c 0
 243.553702044 159.072979539 243.552405106 158.781988894 243.549804688 158.490234375 c 0
 243.515755461 154.670073613 243.362304688 150.83203125 243 147 c 0
 234.018054595 51.9995855277 149 0 59 0 c 0
176 564 m 0
 179.449933393 569.218574054 186.571056305 575.059623402 198.720240248 575.059623402 c 0
 205.72303537 575.059623402 214.396340825 573.119007877 225 568 c 0
 238.675385082 561.398089961 243.527611375 552.766911616 243.527611375 545.06526283 c 0
 243.527611375 540.964414406 242.151919851 537.127103965 240 534 c 0
 212.475585938 494.000976562 151.262695312 427.950195312 120 421 c 0
 116.712998801 420.269351482 113.59034192 419.930913827 110.677571247 419.930913827 c 0
 97.2158659846 419.930913827 88.237188895 427.159714441 88.237188895 436.309115457 c 0
 88.237188895 437.82791347 88.4846044883 439.39963537 89 441 c 0
 93.8310546875 456 125.7578125 488.000976562 176 564 c 0
EndSplineSet
Validated: 1
LCarets2: 1 63
Ligature2: "'liga' Standard Ligatures in Hebrew lookup 0-1" uni05D1 quotesingle
EndChar

StartChar: uni05D2_quotesingle
Encoding: 276 -1 49
Width: 526
VWidth: 0
Flags: W
HStem: -37 47<-50.8017 82.2938 219.969 353.895> -5 53<86.5538 234.418>
VStem: 405 91<108.027 209.902>
LayerCount: 2
Fore
SplineSet
299 564 m 0x20
 302.449933393 569.218574054 309.571056305 575.059623402 321.720240248 575.059623402 c 0
 328.72303537 575.059623402 337.396340825 573.119007877 348 568 c 0
 361.675385082 561.398089961 366.527611375 552.766911616 366.527611375 545.06526283 c 0
 366.527611375 540.964414406 365.151919851 537.127103965 363 534 c 0
 335.475585938 494.000976562 274.262695312 427.950195312 243 421 c 0
 239.712998801 420.269351482 236.59034192 419.930913827 233.677571247 419.930913827 c 0
 220.215865985 419.930913827 211.237188895 427.159714441 211.237188895 436.309115457 c 0
 211.237188895 437.82791347 211.484604488 439.39963537 212 441 c 0
 216.831054688 456 248.7578125 488.000976562 299 564 c 0x20
151 48 m 3x60
 199 48 258 10 298 10 c 0
 373 10 405 100 405 178 c 0
 405 210 440 219 476 219 c 0
 486 219 496 213 496 200 c 0
 496 92 396 -37 292 -37 c 0xa0
 256 -37 204 -5 168 -5 c 0
 139 -5 83 -34 46 -34 c 0
 -44 -34 -113 13 -113 34 c 0
 -113 40 -111 43 -103 43 c 0
 -68 43 -45 16 5 16 c 3
 66 16 106 48 151 48 c 3x60
EndSplineSet
Validated: 1
Substitution2: "altgimelrafe-1" uni05D2.alt_quotesingle
LCarets2: 1 360
Ligature2: "'liga' Standard Ligatures in Hebrew lookup 0-1" uni05D2 quotesingle
EndChar

StartChar: uni05D3_quotesingle
Encoding: 277 -1 50
Width: 204
VWidth: 0
Flags: W
HStem: 0 38<0.568471 54.9682>
VStem: 94.7542 80.2458<88.8402 236.852>
LayerCount: 2
Fore
SplineSet
176 564 m 0
 179.449933393 569.218574054 186.571056305 575.059623402 198.720240248 575.059623402 c 0
 205.72303537 575.059623402 214.396340825 573.119007877 225 568 c 0
 238.675385082 561.398089961 243.527611375 552.766911616 243.527611375 545.06526283 c 0
 243.527611375 540.964414406 242.151919851 537.127103965 240 534 c 0
 212.475585938 494.000976562 151.262695312 427.950195312 120 421 c 0
 116.712998801 420.269351482 113.59034192 419.930913827 110.677571247 419.930913827 c 0
 97.2158659846 419.930913827 88.237188895 427.159714441 88.237188895 436.309115457 c 0
 88.237188895 437.82791347 88.4846044883 439.39963537 89 441 c 0
 93.8310546875 456 125.7578125 488.000976562 176 564 c 0
-18 314 m 0
 49.8076171875 309.165039062 175 282.004882812 175 177 c 3
 175 103.97265625 122 0 25 0 c 3
 6.86023564441 0 0.248963260772 7.50715063509 0.248963260772 15.8699332975 c 0
 0.248963260772 25.4869059087 8.99195742289 36.2353983522 19 38 c 0
 71 47.1685546875 87.2080078125 103 94 168 c 0
 94.5080228792 172.861826433 94.754153819 177.485271244 94.754153819 181.88377216 c 0
 94.754153819 256.194288293 24.5023642097 266.300315371 -40 277 c 0
 -145.010958513 294.419601833 -177.744168764 328.348033412 -177.744168764 345.554806109 c 0
 -177.744168764 352.005132022 -173.144219157 356.105587953 -166.027530737 356.105587953 c 0
 -165.372468573 356.105587953 -164.69608346 356.070847036 -164 356 c 0
 -146 354.16796875 -89.9999924838 319.133894474 -18 314 c 0
EndSplineSet
Validated: 1
Substitution2: "altdaletrafe-1" uni05D3.alt_quotesingle
LCarets2: 1 38
Ligature2: "'liga' Standard Ligatures in Hebrew lookup 0-1" uni05D3 quotesingle
EndChar

StartChar: uni05D4_quotesingle
Encoding: 278 -1 51
Width: 180
VWidth: 0
Flags: W
VStem: -45.4259 74.7399<-22.1785 52.8339> 62.8204 86.9611<133.722 251.258>
LayerCount: 2
Fore
SplineSet
112 564 m 0
 115.449933393 569.218574054 122.571056305 575.059623402 134.720240248 575.059623402 c 0
 141.72303537 575.059623402 150.396340825 573.119007877 161 568 c 0
 174.675385082 561.398089961 179.527611375 552.766911616 179.527611375 545.06526283 c 0
 179.527611375 540.964414406 178.151919851 537.127103965 176 534 c 0
 148.475585938 494.000976562 87.2626953125 427.950195312 56 421 c 0
 52.7129988007 420.269351482 49.5903419201 419.930913827 46.6775712466 419.930913827 c 0
 33.2158659846 419.930913827 24.237188895 427.159714441 24.237188895 436.309115457 c 0
 24.237188895 437.82791347 24.4846044883 439.39963537 25 441 c 0
 29.8310546875 456 61.7578125 488.000976562 112 564 c 0
63 216 m 0
 62.8795548961 217.376696014 62.8204236337 218.71246058 62.8204236337 220.008514003 c 0
 62.8204236337 248.723088764 91.8456839131 257.944991982 126.16015625 260.9453125 c 0
 126.887642647 261.008925662 127.623232565 261.041129865 128.362304007 261.041129865 c 0
 137.743787704 261.041129865 147.686241262 255.852140641 148.736328125 243.84765625 c 0
 149.44499867 235.747383027 149.781545676 228.030200293 149.781545676 220.670539485 c 0
 149.781545676 81.4286480398 29.3140279589 70.1622789104 29.3140279589 13.713386567 c 0
 29.3140279589 6.90161144527 31.0682304234 -0.568094503624 35 -9 c 0
 36.7465738526 -12.7455936739 37.8865334162 -17.05120263 37.8865334162 -21.2375057796 c 0
 37.8865334162 -28.1928835373 34.7397305145 -34.8189234218 26 -38 c 0
 19.499851174 -40.3658629918 11.2647617636 -42.0920704319 2.83764457433 -42.0920704319 c 0
 -10.7748862589 -42.0920704319 -24.8884701821 -37.5879222456 -33 -24 c 0
 -41.7361531458 -9.36574822062 -45.4259210367 2.86019211402 -45.4259210367 13.576898454 c 0
 -45.4259210367 71.8721259811 63.7539029955 85.5092864357 63.7539029955 199.202903463 c 0
 63.7539029955 204.57358055 63.5102743753 210.167527978 63 216 c 0
EndSplineSet
Validated: 1
LCarets2: 1 26
Ligature2: "'liga' Standard Ligatures in Hebrew lookup 0-1" uni05D4 quotesingle
EndChar

StartChar: uni05D6_quotesingle
Encoding: 279 -1 52
Width: 180
VWidth: 0
Flags: W
HStem: -1 21G<-30 -12.5> 166 108<95.573 161.577>
VStem: -46 295.528
LayerCount: 2
Fore
SplineSet
182 564 m 0
 185.449933393 569.218574054 192.571056305 575.059623402 204.720240248 575.059623402 c 0
 211.72303537 575.059623402 220.396340825 573.119007877 231 568 c 0
 244.675385082 561.398089961 249.527611375 552.766911616 249.527611375 545.06526283 c 0
 249.527611375 540.964414406 248.151919851 537.127103965 246 534 c 0
 218.475585938 494.000976562 157.262695312 427.950195312 126 421 c 0
 122.712998801 420.269351482 119.59034192 419.930913827 116.677571247 419.930913827 c 0
 103.215865985 419.930913827 94.237188895 427.159714441 94.237188895 436.309115457 c 0
 94.237188895 437.82791347 94.4846044883 439.39963537 95 441 c 0
 99.8310546875 456 131.7578125 488.000976562 182 564 c 0
-25 -1 m 0
 -35 -1 -46 5 -46 18 c 3
 -46 28.1982421875 46 274 146 274 c 3
 165 274 179 257 179 238 c 3
 179 201 152 166 128 166 c 3
 113 166 94.1748046875 165.885742188 85 152 c 0
 17.298828125 49.533203125 0 -1 -25 -1 c 0
EndSplineSet
Validated: 1
LCarets2: 1 57
Ligature2: "'liga' Standard Ligatures in Hebrew lookup 0-1" uni05D6 quotesingle
EndChar

StartChar: uni05DF_quotesingle
Encoding: 280 -1 53
Width: 219
VWidth: 0
Flags: W
LayerCount: 2
Fore
SplineSet
182 564 m 0
 185.449933393 569.218574054 192.571056305 575.059623402 204.720240248 575.059623402 c 0
 211.72303537 575.059623402 220.396340825 573.119007877 231 568 c 0
 244.675385082 561.398089961 249.527611375 552.766911616 249.527611375 545.06526283 c 0
 249.527611375 540.964414406 248.151919851 537.127103965 246 534 c 0
 218.475585938 494.000976562 157.262695312 427.950195312 126 421 c 0
 122.712998801 420.269351482 119.59034192 419.930913827 116.677571247 419.930913827 c 0
 103.215865985 419.930913827 94.237188895 427.159714441 94.237188895 436.309115457 c 0
 94.237188895 437.82791347 94.4846044883 439.39963537 95 441 c 0
 99.8310546875 456 131.7578125 488.000976562 182 564 c 0
-176.974609375 -346.5078125 m 0
 -170.422851562 -271.627929688 126 237 180 237 c 3
 199 237 199 231 199 220 c 3
 199 200.764648438 -11.056640625 -130.145507812 -96.1953125 -352.571289062 c 0
 -102.081614279 -367.949298474 -114.337903958 -371.358324868 -128.55133663 -371.358324868 c 0
 -133.190665064 -371.358324868 -138.038507316 -370.995127537 -142.94140625 -370.56640625 c 0
 -143.9375 -370.478515625 -143.9375 -370.478515625 -144.93359375 -370.391601562 c 0
 -163.680298323 -368.751425714 -177.135783578 -367.574663845 -177.135783578 -350.01377236 c 0
 -177.135783578 -348.911107149 -177.082732575 -347.743844156 -176.974609375 -346.5078125 c 0
EndSplineSet
Validated: 1
LCarets2: 1 60
Ligature2: "'liga' Standard Ligatures in Hebrew lookup 0-1" uni05DF quotesingle
EndChar

StartChar: uni05E4_quotesingle
Encoding: 281 -1 54
Width: 348
VWidth: 0
Flags: W
HStem: -40 46<-132.619 159.473> 208 42.926<123.246 227.684>
VStem: 241.051 76.9593<72.1229 195.325>
LayerCount: 2
Fore
SplineSet
-12 88 m 0
 -12 101 6.20644162711 141.222545695 31 228 c 0
 37 249 56 251 76 251 c 0
 77 251 78 251 79 251 c 0
 99 251 112 251 112 230 c 0
 112 227.667525234 111.871279828 225.226481497 111.621777005 222.691297905 c 1
 134.365208131 238.035669373 165.561883658 250.906580296 196.605287484 250.926018392 c 0
 283.251712123 250.926018392 318.009973576 213.62296058 318.009973576 138.224893687 c 0
 318.009973576 65.2877961938 259.962271143 -40 75 -40 c 0
 -22.3552172555 -40 -214.267038134 -58.6053282262 -280 -94 c 0
 -281.648329508 -94.8875620427 -283.13001648 -95.2839504545 -284.439564221 -95.2839504545 c 0
 -289.150210852 -95.2839504545 -291.633457349 -90.1548721198 -291.633457349 -84.308539575 c 0
 -291.633457349 -60.4049520172 -235.532962076 -28.0813947124 -150 -13 c 0
 -58 3.2216796875 47.078125 3.896484375 76 6 c 0
 191 14.3642578125 237.298627288 76 240.75 131.799804688 c 0
 240.951868661 135.063500843 241.050625955 138.19728543 241.050625955 141.205651977 c 0
 241.050625955 193.687822866 210.994620398 208 174 208 c 0
 146.594368613 208 117.533146382 191.842137472 98.8936514163 177.162682938 c 1
 78.0609689873 126.971222902 36.806762675 72 8 72 c 0
 -12 72 -12 77 -12 88 c 0
250 564 m 0
 253.449933393 569.218574054 260.571056305 575.059623402 272.720240248 575.059623402 c 0
 279.72303537 575.059623402 288.396340825 573.119007877 299 568 c 0
 312.675385082 561.398089961 317.527611375 552.766911616 317.527611375 545.06526283 c 0
 317.527611375 540.964414406 316.151919851 537.127103965 314 534 c 0
 286.475585938 494.000976562 225.262695312 427.950195312 194 421 c 0
 190.712998801 420.269351482 187.59034192 419.930913827 184.677571247 419.930913827 c 0
 171.215865985 419.930913827 162.237188895 427.159714441 162.237188895 436.309115457 c 0
 162.237188895 437.82791347 162.484604488 439.39963537 163 441 c 0
 167.831054688 456 199.7578125 488.000976562 250 564 c 0
EndSplineSet
Validated: 1
LCarets2: 1 162
Ligature2: "'liga' Standard Ligatures in Hebrew lookup 0-1" uni05E4 quotesingle
EndChar

StartChar: uni05E9_quotesingle
Encoding: 282 -1 55
Width: 413
VWidth: 0
Flags: W
HStem: 0 43.0668<-62.5333 -10.3328 71.8717 231.379> 178.252 70.91<147.491 206.712>
VStem: 292 91<101.709 193.901>
LayerCount: 2
Fore
SplineSet
161 44 m 0
 213 48.7998046875 290.913580247 74 292 162 c 0
 292.395031625 193.997561626 327 203 363 203 c 0
 373 203 383 197 383 184 c 0
 383 76 284 0 156 0 c 0
 82.8154686867 0 52.8000936337 22.047077671 41.5196852857 38.6173487656 c 1
 16.5957139656 15.3311905945 -11.0639094195 0.017578125 -38.8017578125 0.017578125 c 0
 -56.1043347298 0.017578125 -63.5527897189 5.75849238685 -63.5527897189 15.8874805579 c 0
 -63.5527897189 25.5044421729 -54.8097941418 36.2529340337 -44.8017578125 38.017578125 c 0
 -38.6941705278 39.7742831491 -32.7684719455 42.6264949237 -27.0342667986 46.4417866945 c 0
 2.24443365364 68.7825670836 28.603183401 129.528153666 47.2060537097 184.647390825 c 1
 42.1230984074 190.022144181 30.6367779676 194.351996626 30.6367779676 219.72558671 c 0
 30.6367779676 222.265481328 30.7518708547 225.016234116 31 228 c 0
 32.92578125 251.15234375 50 284 96 284 c 0
 114.391339108 284 142.929918842 282.308793229 147.401826252 249.378000322 c 1
 149.312759975 249.239294272 151.313831145 249.162304946 153.407659647 249.162304946 c 0
 169.250029077 249.162304946 190.402542601 253.569766937 218 269 c 0
 233.965793862 277.926832153 245.790778906 281.676821242 253.836355882 281.676821242 c 0
 262.886803016 281.676821242 267.154810822 276.931608506 267.154810822 269.472221057 c 0
 267.154810822 242.928814722 213.112714778 182.018158569 128.207167659 178.252353122 c 1
 116.389642488 142.020367672 94.7003440678 100.766467963 67.6961764325 67.0789719614 c 1
 80.4769205692 56.8230504743 100.550514257 43.066753659 141.625222802 43.066753659 c 0
 147.621672963 43.066753659 154.06571462 43.359938164 161 44 c 0
226 564 m 0
 229.449933393 569.218574054 236.571056305 575.059623402 248.720240248 575.059623402 c 0
 255.72303537 575.059623402 264.396340825 573.119007877 275 568 c 0
 288.675385082 561.398089961 293.527611375 552.766911616 293.527611375 545.06526283 c 0
 293.527611375 540.964414406 292.151919851 537.127103965 290 534 c 0
 262.475585938 494.000976562 201.262695312 427.950195312 170 421 c 0
 166.712998801 420.269351482 163.59034192 419.930913827 160.677571247 419.930913827 c 0
 147.215865985 419.930913827 138.237188895 427.159714441 138.237188895 436.309115457 c 0
 138.237188895 437.82791347 138.484604488 439.39963537 139 441 c 0
 143.831054688 456 175.7578125 488.000976562 226 564 c 0
EndSplineSet
Validated: 1
LCarets2: 1 139
Ligature2: "'liga' Standard Ligatures in Hebrew lookup 0-1" uni05E9 quotesingle
EndChar

StartChar: uni05D2_quotesingle_uni05D5
Encoding: 283 -1 56
Width: 526
VWidth: 0
Flags: W
HStem: -37 47<-50.8017 82.2938 219.969 353.895> -5 53<86.5538 234.418>
VStem: 78 81<242.215 322.231> 405 91<108.027 209.902>
LayerCount: 2
Fore
SplineSet
351 564 m 0x30
 354.449933393 569.218574054 361.571056305 575.059623402 373.720240248 575.059623402 c 0
 380.72303537 575.059623402 389.396340825 573.119007877 400 568 c 0
 413.675385082 561.398089961 418.527611375 552.766911616 418.527611375 545.06526283 c 0
 418.527611375 540.964414406 417.151919851 537.127103965 415 534 c 0
 387.475585938 494.000976562 326.262695312 427.950195312 295 421 c 0
 291.712998801 420.269351482 288.59034192 419.930913827 285.677571247 419.930913827 c 0
 272.215865985 419.930913827 263.237188895 427.159714441 263.237188895 436.309115457 c 0
 263.237188895 437.82791347 263.484604488 439.39963537 264 441 c 0
 268.831054688 456 300.7578125 488.000976562 351 564 c 0x30
151 48 m 3x70
 199 48 258 10 298 10 c 0
 373 10 405 100 405 178 c 0
 405 210 440 219 476 219 c 0
 486 219 496 213 496 200 c 0
 496 92 396 -37 292 -37 c 0xb0
 256 -37 204 -5 168 -5 c 0
 139 -5 83 -34 46 -34 c 0
 -44 -34 -113 13 -113 34 c 0
 -113 40 -111 43 -103 43 c 0
 -68 43 -45 16 5 16 c 3
 66 16 106 48 151 48 c 3x70
159 304 m 3
 159 280 121 200 83 141 c 0
 59 103 36 74 22 74 c 3
 3 74 3 79 3 90 c 3
 3 103 54 214 78 302 c 0
 84 323 103 324 123 324 c 0
 124 324 125 324 126 324 c 3
 127.739130435 324 129.425330813 324.007561437 131.054656037 324.007561437 c 0
 148.162570888 324.007561437 159 323.173913043 159 304 c 3
EndSplineSet
Validated: 1
LCarets2: 2 378 190
Ligature2: "'liga' Standard Ligatures in Hebrew lookup 0-1" uni05D2 quotesingle uni05D5
EndChar

StartChar: uni05D2_uni05D9
Encoding: 284 -1 57
Width: 526
VWidth: 0
Flags: W
HStem: -37 47<-50.8017 82.2938 219.969 353.895> -5 53<86.5538 234.418>
VStem: 405 91<108.027 209.902>
LayerCount: 2
Fore
SplineSet
0 92 m 0x20
 0 105 0 94 24 181 c 0
 30 202 49 204 69 204 c 0
 70 204 71 204 72 204 c 3
 92 204 105 204 105 183 c 3
 105 143 53 76 20 76 c 3
 2 76 0 81 0 92 c 0x20
151 48 m 3x60
 199 48 258 10 298 10 c 0
 373 10 405 100 405 178 c 0
 405 210 440 219 476 219 c 0
 486 219 496 213 496 200 c 0
 496 92 396 -37 292 -37 c 0xa0
 256 -37 204 -5 168 -5 c 0
 139 -5 83 -34 46 -34 c 0
 -44 -34 -113 13 -113 34 c 0
 -113 40 -111 43 -103 43 c 0
 -68 43 -45 16 5 16 c 3
 66 16 106 48 151 48 c 3x60
EndSplineSet
Validated: 1
LCarets2: 1 135
Ligature2: "'liga' Standard Ligatures in Hebrew lookup 0-1" uni05D2 uni05D9
EndChar

StartChar: uni05D2_quotesingle_uni05D9
Encoding: 285 -1 58
Width: 526
VWidth: 0
Flags: W
HStem: -37 47<-50.8017 82.2938 219.969 353.895> -5 53<86.5538 234.418>
VStem: 405 91<108.027 209.902>
LayerCount: 2
Fore
SplineSet
299 564 m 0x20
 302.449933393 569.218574054 309.571056305 575.059623402 321.720240248 575.059623402 c 0
 328.72303537 575.059623402 337.396340825 573.119007877 348 568 c 0
 361.675385082 561.398089961 366.527611375 552.766911616 366.527611375 545.06526283 c 0
 366.527611375 540.964414406 365.151919851 537.127103965 363 534 c 0
 335.475585938 494.000976562 274.262695312 427.950195312 243 421 c 0
 239.712998801 420.269351482 236.59034192 419.930913827 233.677571247 419.930913827 c 0
 220.215865985 419.930913827 211.237188895 427.159714441 211.237188895 436.309115457 c 0
 211.237188895 437.82791347 211.484604488 439.39963537 212 441 c 0
 216.831054688 456 248.7578125 488.000976562 299 564 c 0x20
0 92 m 0
 0 105 0 94 24 181 c 0
 30 202 49 204 69 204 c 0
 70 204 71 204 72 204 c 3
 92 204 105 204 105 183 c 3
 105 143 53 76 20 76 c 3
 2 76 0 81 0 92 c 0
151 48 m 3x60
 199 48 258 10 298 10 c 0
 373 10 405 100 405 178 c 0
 405 210 440 219 476 219 c 0
 486 219 496 213 496 200 c 0
 496 92 396 -37 292 -37 c 0xa0
 256 -37 204 -5 168 -5 c 0
 139 -5 83 -34 46 -34 c 0
 -44 -34 -113 13 -113 34 c 0
 -113 40 -111 43 -103 43 c 0
 -68 43 -45 16 5 16 c 3
 66 16 106 48 151 48 c 3x60
EndSplineSet
Validated: 1
LCarets2: 2 362 136
Ligature2: "'liga' Standard Ligatures in Hebrew lookup 0-1" uni05D2 quotesingle uni05D9
EndChar

StartChar: uni05E8_uni05D1_quotesingle
Encoding: 286 -1 59
Width: 502
VWidth: 0
Flags: W
HStem: 0 45.6164<-30.4932 117.609> 208 42.9258<45.4217 154.595> 277.276 41.8704<235.816 373.033> 568 36.0856<264.434 381.941>
VStem: 128 64.8907<358.721 493.799> 166.3 77.2539<94.5073 196.542> 423 87<288.282 530.964>
LayerCount: 2
Fore
SplineSet
88 584 m 0xf2
 91.4499333936 589.218574054 98.5710563049 595.059623402 110.720240248 595.059623402 c 0
 117.72303537 595.059623402 126.396340825 593.119007877 137 588 c 0
 150.675385082 581.398089961 155.527611375 572.766911616 155.527611375 565.06526283 c 0
 155.527611375 560.964414406 154.151919851 557.127103965 152 554 c 0
 124.475585938 514.000976562 63.2626953125 447.950195312 32 441 c 0
 28.7129988007 440.269351482 25.5903419201 439.930913827 22.6775712466 439.930913827 c 0
 9.21586598456 439.930913827 0.237188894965 447.159714441 0.237188894965 456.309115457 c 0
 0.237188894965 457.82791347 0.48460448829 459.39963537 1 461 c 0
 5.8310546875 476 37.7578125 508.000976562 88 584 c 0xf2
59 0 m 0
 -29.0457757445 0 -69.9510006507 46.5801163005 -69.9510006507 67.9538667077 c 0
 -69.9510006507 74.317700016 -66.3247743085 78.4470024495 -59.2369002173 78.4470024495 c 0
 -56.8739633474 78.4470024495 -54.1262973016 77.9880698148 -51 77 c 0
 -37.8808980807 72.853609738 -1.93076700612 45.6163570187 49.4446146915 45.6163570187 c 0
 52.8942772834 45.6163570187 56.4134863859 45.7391592946 60 46 c 0
 115 50 161.672851562 93 166 147 c 0
 166.202148438 149.522460938 166.299804688 151.952148438 166.299804688 154.290039062 c 0
 166.299804688 192.068359375 138 208 106 208 c 3
 71 208 56 193.782226562 40 185 c 0
 33.4838799109 181.423395711 27.9273297388 180.00094554 23.3532272621 180.00094554 c 0
 15.993887592 180.00094554 11.1777177021 183.683108272 9 188 c 0
 8.38366721561 189.22172828 8.08597959738 190.567162155 8.08597959738 192.013903477 c 0
 8.08597959738 211.88117395 64.2237819984 250.852959178 122.2265625 250.92578125 c 0
 122.450826946 250.925922038 l 0
 178.91839539 250.925922038 243.553703282 224.154179266 243.553703282 159.363344642 c 0xf6
 243.553703282 159.073071336 243.552405933 158.782034918 243.549804688 158.490234375 c 0
 243.515625 154.669921875 243.362304688 150.83203125 243 147 c 0
 234.017578125 52 149 0 59 0 c 0
342 604 m 0
 344.2110776 604.057181379 346.400344389 604.085584582 348.567799508 604.085584582 c 0
 456.154312538 604.085584582 510 534.104162474 510 440 c 3
 510 202 353 0 254 0 c 3
 246 0 241 4.267578125 241 13 c 3
 241 23 253 28.1953125 257 32 c 0
 283 56.7333984375 423 164.780273438 423 447 c 3
 423 528 385.137695312 568 327 568 c 3
 247.595703125 568 196.34765625 499.985351562 193 423 c 0
 192.926960449 421.320090336 192.890671578 419.654594291 192.890671578 418.003974407 c 0
 192.890671578 359.104200745 239.097543952 319.146344558 310.528647637 319.146344558 c 0
 319.316973396 319.146344558 328.487116376 319.751183509 338 321 c 0
 351.444654362 322.765012066 362.099822136 323.53187691 370.369188799 323.53187691 c 0
 387.813601601 323.53187691 394.640998959 320.119263906 394.640998959 315.465213055 c 0
 394.640998959 310.510579596 386.903225806 304.148973034 376 299 c 0
 344.369014509 284.062181326 312.328008155 277.275929775 282.252911253 277.275929775 c 0
 197.279846718 277.275929775 128 331.448375839 128 409 c 0xfa
 128 521.751953125 226 601 342 604 c 0
EndSplineSet
Validated: 1
LCarets2: 2 274 32
Ligature2: "'liga' Standard Ligatures in Hebrew lookup 0-1" uni05E8 uni05D1 quotesingle
EndChar

StartChar: uni05E8_uni05D9
Encoding: 287 -1 60
Width: 407
VWidth: 0
Flags: W
HStem: 0 41<95.4376 185.828> 277.276 41.8704<140.816 278.033> 568 36.0856<169.434 286.941>
VStem: -27 110.047<25.5 104.041> 8 81<102.303 155.837> 33 64.8907<358.721 493.799> 328 87<287.625 530.969>
LayerCount: 2
Fore
SplineSet
328 447 m 0xf2
 328 528.024414062 290.137695312 568 232 568 c 0
 152.595703125 568 101.34765625 499.985351562 98 423 c 0
 97.9269604494 421.320090336 97.8906715776 419.654594291 97.8906715776 418.003974407 c 0
 97.8906715776 359.104200745 144.097543952 319.146344558 215.528647637 319.146344558 c 0
 224.316973396 319.146344558 233.487116376 319.751183509 243 321 c 0
 256.444654362 322.765012066 267.099822136 323.53187691 275.369188799 323.53187691 c 0
 292.813601601 323.53187691 299.640998959 320.119263906 299.640998959 315.465213055 c 0
 299.640998959 310.510579596 291.903225806 304.148973034 281 299 c 0
 249.369014509 284.062181326 217.328008155 277.275929775 187.252911253 277.275929775 c 0
 102.279846718 277.275929775 33 331.448375839 33 409 c 0xe6
 33 521.751953125 131 601 247 604 c 0
 249.2110776 604.057181379 251.400344389 604.085584582 253.567799508 604.085584582 c 0
 361.154312538 604.085584582 415 534.104162474 415 440 c 0
 415 201.97265625 268 0 127 0 c 0
 85.0948690149 0 59.5803699109 23.5521229844 44.5944565468 50.3725124202 c 1
 26.763594852 30.036460529 7.13122537799 15 -7 15 c 0
 -27 15 -27 20 -27 31 c 0xf2
 -27 44 -16.7939453125 48.22265625 8 135 c 0
 14 156 33 158 53 158 c 0
 54 158 55 158 56 158 c 0
 76 158 89 158 89 137 c 0xea
 89 130.173056908 87.1648433906 122.122676076 83.9568912954 113.465339932 c 0
 83.3446859986 109.763010371 83.0466999675 105.958421762 83.0466994222 102.123536253 c 0
 83.0466994222 72.4676823882 100.866872629 41 129 41 c 0
 231 41 328 233.540039062 328 447 c 0xf2
EndSplineSet
Validated: 1
LCarets2: 1 108
Ligature2: "'liga' Standard Ligatures in Hebrew lookup 0-1" uni05E8 uni05D9
EndChar

StartChar: uni05D3_quotesingle_uni05D9
Encoding: 288 -1 61
Width: 352
VWidth: 0
Flags: W
HStem: 0 40.9946<102.701 186.963>
VStem: 15 81<105.586 150.837> 243.754 80.2522<104.42 235.314>
LayerCount: 2
Fore
SplineSet
-20 26 m 0
 -20 39 -9.7939453125 43.22265625 15 130 c 0
 21 151 40 153 60 153 c 0
 61 153 62 153 63 153 c 0
 83 153 96 153 96 132 c 0
 96 125.540122706 94.3568806728 117.984832527 91.4623620455 109.856422839 c 0
 91.3005642543 108.377235685 91.2832028075 106.931072485 91.2226932853 105.519670573 c 0
 91.1792023276 104.505231548 91.1575071537 103.480674727 91.1575071537 102.448026616 c 0
 91.1575071537 74.6524330115 106.875979419 40.9945799379 136.350871396 40.9945799379 c 0
 136.566511544 40.9945799379 136.782888002 40.9963814667 137 41 c 0
 197 42 237 113.20703125 243 168 c 0
 243.508022879 172.861826433 243.754153819 177.485271244 243.754153819 181.88377216 c 0
 243.754153819 256.194288293 173.50236421 266.300315371 109 277 c 0
 3.98904362001 294.419601479 -28.7441777737 328.347930448 -28.7441777737 345.554716539 c 0
 -28.7441777737 352.00508611 -24.1441714941 356.10557385 -17.0274058768 356.10557385 c 0
 -16.3723826166 356.10557385 -15.6960392285 356.070837543 -15 356 c 0
 3 354.16796875 59 319.133789062 131 314 c 0
 198.807617188 309.165039062 323.062493771 282.0006976 324 177 c 0
 324.004242498 176.524840276 324.006362287 176.049527918 324.006362287 175.574079118 c 0
 324.006362287 89.9972073678 255.331461319 -1.36210487334e-14 135 0 c 0
 94.3024477861 0 69.0644819304 22.2142795859 53.9163719011 48.0624930717 c 1
 35.486383284 26.3765302649 14.7474848862 10 0 10 c 1
 -20 10 -20 15 -20 26 c 0
325 564 m 0
 328.449933393 569.218574054 335.571056305 575.059623402 347.720240248 575.059623402 c 0
 354.72303537 575.059623402 363.396340825 573.119007877 374 568 c 0
 387.675385082 561.398089961 392.527611375 552.766911616 392.527611375 545.06526283 c 0
 392.527611375 540.964414406 391.151919851 537.127103965 389 534 c 0
 361.475585938 494.000976562 300.262695312 427.950195312 269 421 c 0
 265.712998801 420.269351482 262.59034192 419.930913827 259.677571247 419.930913827 c 0
 246.215865985 419.930913827 237.237188895 427.159714441 237.237188895 436.309115457 c 0
 237.237188895 437.82791347 237.484604488 439.39963537 238 441 c 0
 242.831054688 456 274.7578125 488.000976562 325 564 c 0
EndSplineSet
Validated: 1
LCarets2: 2 181 109
Ligature2: "'liga' Standard Ligatures in Hebrew lookup 0-1" uni05D3 quotesingle uni05D9
EndChar

StartChar: u05D3_quotesingle_u05D9_u05D9
Encoding: 289 -1 62
Width: 430
VWidth: 0
Flags: W
HStem: 0 38<225.568 279.968> 68 128<24.6002 59.6443 159.6 194.644>
VStem: 319.722 80.2778<88.8403 237.784>
LayerCount: 2
Fore
SplineSet
325 564 m 0
 328.449933393 569.218574054 335.571056305 575.059623402 347.720240248 575.059623402 c 0
 354.72303537 575.059623402 363.396340825 573.119007877 374 568 c 0
 387.675385082 561.398089961 392.527611375 552.766911616 392.527611375 545.06526283 c 0
 392.527611375 540.964414406 391.151919851 537.127103965 389 534 c 0
 361.475585938 494.000976562 300.262695312 427.950195312 269 421 c 0
 265.712998801 420.269351482 262.59034192 419.930913827 259.677571247 419.930913827 c 0
 246.215865985 419.930913827 237.237188895 427.159714441 237.237188895 436.309115457 c 0
 237.237188895 437.82791347 237.484604488 439.39963537 238 441 c 0
 242.831054688 456 274.7578125 488.000976562 325 564 c 0
0 84 m 0
 0 97 0 86 24 173 c 0
 30 194 49 196 69 196 c 0
 70 196 71 196 72 196 c 3
 92 196 105 196 105 175 c 3
 105 135 53 68 20 68 c 3
 0 68 0 73 0 84 c 0
135 84 m 0
 135 97 135 86 159 173 c 0
 165 194 184 196 204 196 c 0
 205 196 206 196 207 196 c 3
 227 196 240 196 240 175 c 3
 240 135 188 68 155 68 c 3
 135 68 135 73 135 84 c 0
182 318 m 0
 269 308.23046875 400 288.017578125 400 177 c 3
 400 103.97265625 347 0 250 0 c 3
 231.86022786 0 225.248948202 7.50721030367 225.248948202 15.870029471 c 0
 225.248948202 25.4870363464 233.991937956 36.2355306062 244 38 c 0
 296 47.1689453125 312.208007812 103 319 168 c 0
 319.486625964 172.657055952 319.722225232 177.101085007 319.722225232 181.343033081 c 0
 319.722225232 266.365829848 225.073664357 270.205547815 160 281 c 0
 46.4400694643 299.837736577 5.63032126764 342.691531023 5.63032126764 360.308741564 c 0
 5.63032126764 365.156281216 8.72013547991 368.093092205 14.2343475174 368.093092205 c 0
 14.7978197736 368.093092205 15.3866072691 368.062426416 16 368 c 0
 34 366.16796875 110.267578125 326.0546875 182 318 c 0
EndSplineSet
Validated: 1
Ligature2: "'liga' Standard Ligatures in Hebrew lookup 0-1" uni05D3 quotesingle uni05D9 uni05D9
LCarets2: 3 269 241 106
EndChar

StartChar: uni05D3.alt_quotesingle
Encoding: 290 -1 63
Width: 299
VWidth: 0
Flags: W
HStem: 0 38<97.5685 149.845> 207.925 74.4195<-48.4069 68.7849> 226.359 46.4113<39.1092 205.709>
VStem: 189.967 80.666<83.7941 218.623>
LayerCount: 2
Fore
SplineSet
186 564 m 0x90
 189.449933393 569.218574054 196.571056305 575.059623402 208.720240248 575.059623402 c 0
 215.72303537 575.059623402 224.396340825 573.119007877 235 568 c 0
 248.675385082 561.398089961 253.527611375 552.766911616 253.527611375 545.06526283 c 0
 253.527611375 540.964414406 252.151919851 537.127103965 250 534 c 0
 222.475585938 494.000976562 161.262695312 427.950195312 130 421 c 0
 126.712998801 420.269351482 123.59034192 419.930913827 120.677571247 419.930913827 c 0
 107.215865985 419.930913827 98.237188895 427.159714441 98.237188895 436.309115457 c 0
 98.237188895 437.82791347 98.4846044883 439.39963537 99 441 c 0
 103.831054688 456 135.7578125 488.000976562 186 564 c 0x90
75 261 m 0
 100.887695155 261.364625904 142.8648601 272.770314709 181.31033765 272.770314709 c 0
 228.64874969 272.770314709 270.632659464 255.477791418 270.632659464 178.988426577 c 0
 270.632659464 173.621843668 270.425989931 167.963859038 270 162 c 0
 264 78 210.801757812 0 122 0 c 3
 103.86022786 0 97.2489482024 7.50721030367 97.2489482024 15.870029471 c 0
 97.2489482024 25.4870363464 105.991937956 36.2355306062 116 38 c 0
 156 45.052734375 182.208007813 87.9999999998 189 153 c 0
 189.651908472 159.238825004 189.966635457 164.983404418 189.966635457 170.267973696 c 0
 189.966635457 214.233491805 168.182557605 226.359043518 137.54478051 226.359043518 c 0xb0
 105.164473825 226.359043518 62.8947162909 212.814981947 26 209 c 0
 18.919365982 208.267849338 12.3963693111 207.925216892 6.39982281498 207.925216892 c 0
 -37.0980515227 207.925216892 -52.8952138744 225.953822768 -52.8952138744 244.115629553 c 0
 -52.8952138744 259.871521201 -41.0061694353 275.727660698 -25 280 c 0
 -18.8287309328 281.647180859 -13.9035361693 282.344741692 -9.74017620062 282.344741692 c 0xd0
 13.3035923535 282.344741692 13.0084874573 260.974906505 71.4831470764 260.974906505 c 0
 72.6325176387 260.974906505 73.8045940991 260.983162813 75 261 c 0
EndSplineSet
Validated: 1
LCarets2: 1 73
Ligature2: "'liga' Standard Ligatures in Hebrew lookup 0-1" uni05D3.alt quotesingle
EndChar

StartChar: uniFB4F
Encoding: 291 64335 64
Width: 317
VWidth: 0
Flags: W
HStem: -0.267578 61.0254<157.762 217.007> 594.449 34.1689<226.822 265.811>
VStem: 173.524 48.8652<430.582 592.224> 220.443 51.04<61.3643 256.72> 268.848 62.2969<461.72 593.406>
LayerCount: 2
Fore
SplineSet
201.698242188 258.423828125 m 1xd0
 107.124023438 130.788085938 -9.560546875 18.5498046875 -39.2333984375 7.748046875 c 0
 -41.66796875 6.8623046875 -44.2294921875 6.3134765625 -46.6064453125 6.3134765625 c 0
 -51.9111328125 6.3134765625 -56.296875 9.0439453125 -56.296875 16.8505859375 c 0
 -56.296875 23.0458984375 -32.783203125 47.1279296875 12 105 c 0
 63.4443359375 171.48046875 133.336914062 262.2890625 187.225585938 349.119140625 c 1
 179.520507812 401.073242188 173.524414062 452.436523438 173.524414062 496.107421875 c 0
 173.524414062 574.397460938 185.216796875 624.404296875 251.76171875 628.404296875 c 0
 254.095703125 628.544921875 256.422851562 628.618164062 258.737304688 628.618164062 c 0
 296.724609375 628.618164062 331.14453125 608.697265625 331.14453125 535.33203125 c 0xe8
 331.14453125 475.409179688 295.48828125 398.6328125 246.092773438 322.282226562 c 1
 247.368164062 313.549804688 248.671875 304.779296875 250 296 c 0
 256.837890625 250.788085938 271.483398438 180.077148438 271.483398438 119.08203125 c 0
 271.483398438 56.173828125 255.904296875 3.6005859375 200.111328125 -0.001953125 c 0
 197.399414062 -0.1767578125 194.65625 -0.267578125 191.891601562 -0.267578125 c 0
 163.087890625 -0.267578125 131.999023438 9.587890625 109.879882812 36.55078125 c 0
 105.532226562 41.849609375 103.3515625 47.0556640625 103.3515625 52.2216796875 c 0
 103.3515625 59.2685546875 107.411132812 66.2412109375 115.568359375 73.2744140625 c 0
 125.196289062 81.576171875 135.284179688 86.533203125 144.565429688 86.533203125 c 0
 150.966796875 86.533203125 156.984375 84.1748046875 162.203125 78.9287109375 c 0
 173.888671875 67.1826171875 186.267578125 60.7578125 196.575195312 60.7578125 c 0
 209.061523438 60.7578125 218.5078125 70.1845703125 220 91 c 0
 220.30078125 95.1943359375 220.443359375 99.7041015625 220.443359375 104.50390625 c 0
 220.443359375 142.174804688 211.662109375 197.676757812 201.698242188 258.423828125 c 1xd0
231.953125 428.388671875 m 1
 254.4453125 473.650390625 268.703125 514.969726562 268.844726562 547.512695312 c 0
 268.846679688 547.84765625 268.84765625 548.180664062 268.84765625 548.51171875 c 0
 268.84765625 581.602539062 261.546875 594.44921875 249.21484375 594.44921875 c 0
 247.868164062 594.44921875 246.462890625 594.296875 245 594 c 0
 226.908203125 590.333984375 222.389648438 576.422851562 222.389648438 548.713867188 c 0
 222.389648438 547.323242188 222.401367188 545.897460938 222.422851562 544.436523438 c 0
 222.841796875 516.134765625 226.436523438 475.267578125 231.953125 428.388671875 c 1
EndSplineSet
Validated: 1
LCarets2: 1 0
Ligature2: "aleflamedlig-1" uni05D0 uni05DC
Ligature2: "aleflamedlig-1" uni05D0.alt uni05DC
EndChar

StartChar: uniFB1E
Encoding: 292 64286 65
Width: 292
VWidth: 0
Flags: W
HStem: 419.931 155.129
VStem: 116.237 155.29
LayerCount: 2
Fore
SplineSet
204 564 m 0
 207.449933393 569.218574054 214.571056305 575.059623402 226.720240248 575.059623402 c 0
 233.72303537 575.059623402 242.396340825 573.119007877 253 568 c 0
 266.675385082 561.398089961 271.527611375 552.766911616 271.527611375 545.06526283 c 0
 271.527611375 540.964414406 270.151919851 537.127103965 268 534 c 0
 240.475585938 494.000976562 179.262695312 427.950195312 148 421 c 0
 144.712998801 420.269351482 141.59034192 419.930913827 138.677571247 419.930913827 c 0
 125.215865985 419.930913827 116.237188895 427.159714441 116.237188895 436.309115457 c 0
 116.237188895 437.82791347 116.484604488 439.39963537 117 441 c 0
 121.831054688 456 153.7578125 488.000976562 204 564 c 0
EndSplineSet
Validated: 1
EndChar

StartChar: comma
Encoding: 44 44 66
Width: 200
VWidth: 0
Flags: W
HStem: -81.183 167.473
VStem: -9.97958 120.722
LayerCount: 2
Fore
SplineSet
39.6845703125 65.3017578125 m 0
 41.7535234315 73.9399889473 50.3492071632 86.2904615438 75.4511313034 86.2904615438 c 0
 78.2164321277 86.2904615438 81.1820504591 86.1405778743 84.361328125 85.8193359375 c 0
 103.914095754 83.8433592519 110.742826225 73.6201746819 110.742826225 64.1192036203 c 0
 110.742826225 62.3696432767 110.511267136 60.6445728588 110.084960938 59 c 0
 97.9013671875 11.9990234375 53 -57.7763671875 26 -75 c 0
 19.2978289659 -79.2752864657 12.7086107394 -81.1829647328 7.03762925996 -81.1829647328 c 0
 -2.63761000097 -81.1829647328 -9.64007895294 -75.630163838 -9.970703125 -66.80859375 c 0
 -9.97663389852 -66.6505214805 -9.97958035927 -66.49123831 -9.97958035927 -66.3306948589 c 0
 -9.97958035927 -50.497990269 18.6770873595 -22.4080562175 39.6845703125 65.3017578125 c 0
EndSplineSet
Validated: 1
EndChar

StartChar: period
Encoding: 46 46 67
Width: 180
VWidth: 0
Flags: W
HStem: 0 87<11.4702 72.1639>
VStem: 0 92<20.2145 80.6308>
LayerCount: 2
Fore
SplineSet
0 16 m 0
 0 29 6.09486607143 40 11 64 c 0
 15.3734111702 85.3983694661 36 87 56 87 c 0
 57 87 58 87 59 87 c 3
 79 87 92 87 92 66 c 3
 92 26 53 0 20 0 c 3
 2 0 0 5 0 16 c 0
EndSplineSet
Validated: 1
EndChar

StartChar: one
Encoding: 49 49 68
Width: 285
VWidth: 0
Flags: W
VStem: 9.116 276.792
LayerCount: 2
Fore
SplineSet
240.259765625 501.274414062 m 0
 250.450195312 517.84375 254.922851562 525.287109375 263.6953125 528.64453125 c 0
 265.174804688 529.2109375 266.7421875 529.552734375 268.330078125 529.692382812 c 0
 268.881557939 529.740590244 269.435739455 529.76427693 269.989933271 529.76427693 c 0
 277.631147508 529.76427693 285.274699926 525.261237916 285.87109375 518.44140625 c 0
 285.895813052 518.158823727 285.908420396 517.872290244 285.908420396 517.58194734 c 0
 285.908420396 516.277917514 285.654102914 514.897043402 285.100585938 513.452148438 c 0
 261.2109375 451.1328125 171.063476562 232.013671875 101.49609375 7.525390625 c 0
 96.5927734375 -8.2998046875 84.744140625 -12.775390625 70.5791015625 -14.0146484375 c 0
 66.0703125 -14.4091796875 61.3251953125 -14.4755859375 56.4970703125 -14.4755859375 c 0
 55.9970703125 -14.4750976562 55.7470703125 -14.4748535156 55.4970703125 -14.4748535156 c 0
 55.2470703125 -14.4748535156 54.9970703125 -14.4750976562 54.4970703125 -14.4755859375 c 0
 36.453125 -14.4755859375 21.7978515625 -14.41015625 20.4521484375 0.9658203125 c 0
 20.3854139536 1.73035564198 20.3513401447 2.53268697279 20.3513401447 3.37469848335 c 0
 20.3513401447 4.36860816017 20.3988166194 5.41780590469 20.49609375 6.525390625 c 0
 24.115234375 47.7451171875 86.9287109375 224.325195312 147.23828125 344.490234375 c 1
 99.4267578125 303.678710938 53.2421875 272.865234375 33.5712890625 267.594726562 c 0
 31.3955078125 267.010742188 29.3662109375 266.650390625 27.4814453125 266.485351562 c 0
 26.6673044376 266.414140896 25.8804156761 266.379581464 25.1207424856 266.379581464 c 0
 15.0978490992 266.379581464 9.81246497001 272.395462355 9.1806640625 279.623046875 c 0
 9.13754943899 280.115188046 9.11600313067 280.612950179 9.11600313067 281.114811658 c 0
 9.11600313067 284.011788416 9.83395473221 287.045360797 11.265625 289.922851562 c 0
 19.875 307.244140625 133.057617188 346.47265625 240.259765625 501.274414062 c 0
EndSplineSet
Validated: 1
EndChar

StartChar: seven
Encoding: 55 55 69
Width: 285
VWidth: 0
Flags: W
HStem: 159.741 41.4828<201.789 213.483 214.172 246.385> 181.629 73.269<70.8915 109.125> 408.811 42.3679<150.539 251.666> 485 20G<77 95.6929>
LayerCount: 2
Fore
SplineSet
123 493 m 0x70
 151.230106699 462.472489058 197.040880622 451.17846068 235.82882412 451.17846068 c 0
 262.610231806 451.17846068 286.043639296 456.562672876 298.030505495 464.717729163 c 0
 304.061227742 470.586778374 309.11094147 474.444376575 313 476 c 0
 314.890247698 476.756099079 317.169364271 477.121225134 319.576308629 477.121225134 c 0
 328.158154283 477.121225134 338.365004402 472.47957799 338.365004402 464.367814104 c 0
 338.365004402 462.718685617 337.943142679 460.92613292 337 459 c 0
 287.056602626 357.003108143 242.736268881 276.69817506 201.788675386 201.224103842 c 1
 225.121542052 194.588133224 241.302142589 193.987096244 246.643554688 188.228515625 c 0
 249.309671528 185.354326288 250.589650266 182.005587325 250.589650266 178.571421134 c 0
 250.589650266 169.739915801 242.12459866 160.343443358 227 157 c 0
 223.386529438 156.201244702 218.973275768 155.820527319 213.936334938 155.820527319 c 0
 204.29782776 155.820527319 192.375549048 157.214610085 179.403393615 159.741272661 c 1xb0
 132.282176214 71.7658621938 89.3100953486 -13.8059282103 46.74609375 -125.004882812 c 0
 40.8597919716 -140.382892224 28.6035022921 -143.791918618 14.3900696198 -143.791918618 c 0
 9.75074118611 -143.791918618 4.90289893394 -143.428721287 0 -143 c 0
 -0.99609375 -142.912109375 -0.99609375 -142.912109375 -1.9921875 -142.825195312 c 0
 -19.3494322603 -141.306585279 -35.1130288617 -139.646094493 -35.1130288617 -125.880564081 c 0
 -35.1130288617 -123.845080809 -34.7683580655 -121.544921032 -34.033203125 -118.94140625 c 0
 -14.7441624209 -50.6302247064 44.4250351893 68.0725405479 109.132464295 181.62928509 c 1
 92.7015485547 188.828393624 78.021115038 197.12910167 67.630859375 205.993164062 c 0
 63.6427264304 209.395096288 60.7338365521 214.488517179 60.7338365521 220.545840314 c 0
 60.7338365521 227.112364955 64.1523473237 234.811662008 73.3203125 242.716796875 c 0
 83.2296333341 251.260996761 93.346888981 254.898306375 101.378820674 254.898306375 c 0
 106.372569998 254.898306375 110.560222898 253.492279138 113.390625 250.985351562 c 0
 121.863077749 243.480340255 130.121676168 237.049800749 138.109335885 231.520440664 c 1
 178.748365637 300.177554901 219.562674004 363.705033925 252.38545023 408.895548796 c 1
 249.953750959 408.839076305 247.459744716 408.810583648 244.912888294 408.810583648 c 0
 198.093028519 408.810583648 133.412498188 418.439651578 109.623046875 440.883789062 c 1
 91.986328125 408.298828125 60.5546875 377 38 377 c 0
 20 377 18 382 18 393 c 0
 18 408 34.724609375 452 42 482 c 0
 47.1474609375 503.224609375 67 505 87 505 c 0
 104.385742188 505 119.256835938 497.046875 123 493 c 0x70
EndSplineSet
Validated: 1
EndChar

StartChar: four
Encoding: 52 52 70
Width: 342
VWidth: 0
Flags: W
HStem: 0.226209 76.1153<252.757 300.623> 26.098 43.902<32 149.715>
VStem: 231 81<166.626 250.231>
LayerCount: 2
Fore
SplineSet
301 69 m 0x60
 309.978805577 63.8158224101 313.040887484 57.283487883 313.040887484 50.565667391 c 0
 313.040887484 43.05844725 309.216883675 35.3195876368 305.552734375 28.9716796875 c 0
 296.74853049 13.7189508112 287.817091689 0.226208850006 271.202628696 0.226208850006 c 0xa0
 268.949350448 0.226208850006 266.554756884 0.474383401724 264 1 c 0
 250.0869112 3.86248388357 235.402424826 6.45861542498 220.332525718 8.79917410662 c 1
 180.232235215 -71.714851401 137.308639714 -143 115 -143 c 0
 96 -143 96 -137 96 -126 c 0
 96 -119.477322001 122.289667385 -56.8149504828 152.349160818 17.5249680892 c 1
 96.1112299466 23.4164561524 42.33899363 26.0980235216 9.95139130066 26.0980235216 c 0
 6.36320677105 26.0980235216 3.03750075862 26.0651095223 0 26 c 0
 -1.01461290326 25.9782515408 -2.01420778608 25.9675005134 -2.99891501268 25.9675005134 c 0
 -42.5032185462 25.9675005134 -58.0467448982 43.2706250471 -58.0467448982 61.9672196606 c 0
 -58.0467448982 74.4983554106 -51.0643340378 87.6554611238 -39.6337890625 96.6484375 c 0
 106 211.22575883 297.000077154 485.764413342 316 492 c 0
 319.560952402 493.16866934 322.590227381 493.732947497 325.116619462 493.732947497 c 0
 331.999542686 493.732947497 335.149867949 489.544649373 335.149867949 481.979204552 c 0
 335.149867949 422.137478689 138.046211768 151.00075755 32 70 c 1
 76.0157389413 70.5395165552 128.369123094 73.4974917449 175.440760987 75.2614707681 c 1
 198.061243984 132.612475714 219.634583289 190.220859984 231 230 c 0
 237 251 256 252 276 252 c 0
 277 252 277 252 278 252 c 0
 298 252 312 252 312 231 c 0
 312 217.980465848 286.123257336 150.48817751 252.430462662 76.3414921786 c 1
 275.654047434 75.6719204891 293.103995715 73.5589904034 301 69 c 0x60
EndSplineSet
Validated: 1
EndChar

StartChar: two
Encoding: 50 50 71
Width: 412
VWidth: 0
Flags: W
HStem: -3.37497 50.6346<198.825 352.952> 0.600043 117.453<25.3455 113.326> 268.315 46.1495<139.768 213.963> 432.45 60.7352<185.603 286.52>
VStem: 76.4708 62.0568<315.657 389.896> 293.896 86.1044<311.579 425.344>
LayerCount: 2
Fore
SplineSet
252 492 m 0x7c
 259.192147439 492.799127077 266.098966757 493.185238768 272.715903467 493.185238768 c 0
 342.460825526 493.185238768 380 450.288509816 380 396 c 0
 380 276 227.877929688 145 171 85 c 1
 215.866235859 55.5046042039 253.311490016 47.2596276379 283.407481673 47.2596276379 c 0
 321.567004936 47.2596276379 347.91156632 60.5145744875 362.587356034 60.5145744875 c 0
 364.198871956 60.5145744875 365.669688758 60.3547496646 367 60 c 0
 373.285681027 58.3238183928 375.864558334 54.0363074711 375.864558334 48.8750004075 c 0
 375.864558334 41.7194868084 370.907855206 32.8845028218 364 27 c 0
 337.471891253 4.40185251114 310.859514591 -3.37496974996 284.091489314 -3.37496974996 c 0xbc
 232.154093428 -3.37496974996 179.630730842 25.9022509734 126 33 c 1
 100.106427197 9.39115420897 82.3328194242 0.600043276724 64.2866489345 0.600043276724 c 0
 58.636985662 0.600043276724 52.960608233 1.46166923874 47 3 c 0
 21.9671747542 9.46054288616 12.461164071 35.8247196122 12.461164071 58.0961909315 c 0
 12.461164071 63.4050083487 13.0012912843 68.481280102 14 73 c 0
 19.99566615 100.129524604 43.6464501542 118.053327236 77.6203435889 118.053327236 c 0
 88.7287057957 118.053327236 100.940689001 116.13713279 114 112 c 1
 159.599609375 153 276.488416692 263.467798282 293 374 c 0
 293.605325212 378.052181258 293.895600172 381.880235682 293.895600172 385.488284519 c 0
 293.895600172 417.781019796 270.6428447 432.449995409 241.900322623 432.449995409 c 0
 238.983883861 432.449995409 236.010924098 432.298968003 233 432 c 0
 202 428.921872559 172.53515289 415.905273438 146.45703125 369.224609375 c 0
 140.869403109 359.222577949 138.527650704 350.319513395 138.527650704 342.748462551 c 0
 138.527650704 324.909012555 151.52909413 314.464922058 165.704191923 314.464922058 c 0
 171.546093462 314.464922058 177.587335966 316.238813198 183 320 c 0
 194.892257666 328.264054678 204.912413137 331.582141829 212.678744426 331.582141829 c 0
 224.528458768 331.582141829 231.131258796 323.85761784 231.131258796 314.190840222 c 0
 231.131258796 306.099205814 226.504922559 296.646706574 216.45703125 289.224609375 c 0
 198.560714 276.005098729 172.267476033 268.315425802 147.286697044 268.315425802 c 0
 110.45198926 268.315425802 76.4708495801 285.034428641 76.4708495801 325.396710343 c 0
 76.4708495801 330.251705146 76.9625086563 335.448784787 78 341 c 0
 92.3908730604 418 172 483.111115742 252 492 c 0x7c
EndSplineSet
Validated: 1
EndChar

StartChar: exclam
Encoding: 33 33 72
Width: 157
VWidth: 0
Flags: W
HStem: 0 87<-18.5298 42.1639>
VStem: -30 92<20.2145 80.6308>
LayerCount: 2
Fore
SplineSet
-30 16 m 0
 -30 29 -23.9052734375 40 -19 64 c 0
 -14.626953125 85.3984375 6 87 26 87 c 0
 27 87 28 87 29 87 c 3
 49 87 62 87 62 66 c 3
 62 26 23 0 -10 0 c 3
 -28 0 -30 5 -30 16 c 0
227.33984375 588.40234375 m 0
 224.354373662 513.070184754 113.162200345 160.998298579 59.2050925819 160.998298579 c 0
 59.136636147 160.998298579 59.0682718404 160.998865291 59 161 c 0
 43.9239345654 161.250721013 41.191937027 165.984287737 41.191937027 173.475443961 c 0
 41.191937027 175.35048273 41.3630973507 177.398285166 41.5546875 179.591796875 c 0
 43.23046875 198.75390625 102.817133399 360.32126262 151.3203125 587.837890625 c 0
 155.874023438 609.198242188 172.3359375 609.489257812 192.3359375 609.490234375 c 0
 193.3359375 609.489257812 193.3359375 609.489257812 194.3359375 609.489257812 c 0
 213.763289026 609.489257812 227.375402502 609.392512236 227.375402502 590.151157166 c 0
 227.375402502 589.584958411 227.363615806 589.002182386 227.33984375 588.40234375 c 0
EndSplineSet
Validated: 1
EndChar

StartChar: question
Encoding: 63 63 73
Width: 202
VWidth: 0
Flags: W
HStem: 0 87<-0.529785 60.1639> 550.361 49.154<58.3995 161.627>
VStem: -12 92<20.2145 80.6308> 177.348 85.7085<411.21 533.912>
LayerCount: 2
Fore
SplineSet
-12 16 m 0
 -12 29 -5.9052734375 40 -1 64 c 0
 3.373046875 85.3984375 24 87 44 87 c 0
 45 87 46 87 47 87 c 3
 67 87 80 87 80 66 c 3
 80 26 41 0 8 0 c 3
 -10 0 -12 5 -12 16 c 0
34 216 m 0
 59.134765625 302 162.705441887 377.000091536 176 466 c 0
 176.91635474 472.134501594 177.347998664 477.891116406 177.347998664 483.283527433 c 0
 177.347998664 531.202766346 143.26172867 550.361381545 112.328737285 550.361381545 c 0
 109.859415852 550.361381545 107.410188759 550.239292829 105 550 c 0
 78 547.319335938 49.2158203125 530.6796875 31 492 c 0
 21.4451513424 471.711191868 9.05273753963 463.263132285 -1.39316640509 463.263132285 c 0
 -13.1529392809 463.263132285 -22.4457503853 473.970008465 -22.4457503853 490.543121052 c 0
 -22.4457503853 492.607512787 -22.3015643596 494.762924268 -22 497 c 0
 -15.259765625 547 37.9999788135 592.777626349 121 599 c 0
 125.615183936 599.34599267 130.16163497 599.515345768 134.632426369 599.515345768 c 0
 209.434336218 599.515345768 263.056497718 552.107556186 263.056497718 491.419295995 c 0
 263.056497718 490.2841029 263.037735922 489.144263116 263 488 c 0
 258.844726562 362 135.374360698 321.999857338 77 184 c 0
 72.4105444915 173.150301642 60.0726823084 165.314131718 49.1529622136 165.314131718 c 0
 38.8048985679 165.314131718 29.7303817437 172.351317471 29.7303817437 190.529881576 c 0
 29.7303817437 197.369745866 31.0150746556 205.786911744 34 216 c 0
EndSplineSet
Validated: 1
EndChar

StartChar: zero
Encoding: 48 48 74
Width: 408
VWidth: 0
Flags: W
HStem: 0.0570791 45.7224<90.2199 188.758> 451.705 37.7172<159.747 248.848>
VStem: -11.2302 75.9206<76.0057 303.247> 278.858 80.809<189.34 408.593>
LayerCount: 2
Fore
SplineSet
211.388671875 489.064453125 m 0
 213.26953125 488.948242188 215.1328125 488.810546875 216.9765625 488.649414062 c 0
 321.189329715 479.531882143 359.666579784 398.290023712 359.666579784 304.470992996 c 0
 359.666579784 293.812772778 359.169997158 282.992233132 358.216796875 272.096679688 c 0
 347.010776383 144.017405922 268.14366879 0.0570791050135 146.638555951 0.0570791050135 c 0
 135.361205649 0.0570791050135 123.716554512 1.29721094941 111.724609375 3.9052734375 c 0
 14.4749063222 25.0515828127 -11.2302259195 97.9441843145 -11.2302259195 181.345150876 c 0
 -11.2302259195 195.735265183 -10.4649709434 210.43821891 -9.169921875 225.2421875 c 0
 2.07540231447 353.765192119 71.1357475657 489.42247525 199.839548961 489.42247525 c 0
 203.637308936 489.42247525 207.487000915 489.304357438 211.388671875 489.064453125 c 0
128.517578125 46.4404296875 m 0
 131.796420401 45.9964158479 135.028750116 45.7795001011 138.213831661 45.7795001011 c 0
 217.095339537 45.7795001011 266.997120723 178.8250573 276.745117188 290.244140625 c 0
 278.090548166 305.622831028 278.857624738 320.41279155 278.857624738 334.376119241 c 0
 278.857624738 395.452987662 264.181399073 440.714159932 219.03515625 450.25 c 0
 214.389284541 451.231306236 209.823145281 451.705262412 205.3403983 451.705262412 c 0
 128.738611182 451.705262412 76.4877334813 313.307988066 66.849609375 203.142578125 c 0
 65.5173330568 187.914425928 64.6903798814 172.955555904 64.6903798814 158.68263031 c 0
 64.6903798814 100.180469099 78.5834662682 53.2024007938 128.517578125 46.4404296875 c 0
EndSplineSet
Validated: 1
EndChar

StartChar: five
Encoding: 53 53 75
Width: 405
VWidth: 0
Flags: W
HStem: -6.83327 38.6769<69.253 173.043> 277.576 42.9258<150.96 228.868> 436.368 36.3169<221.276 390.273> 445.274 46.7265<205.202 304.869 307.34 323.282 325.567 403.459>
VStem: 256.388 76.9315<113.472 251.337>
LayerCount: 2
Fore
SplineSet
52 79 m 0xd8
 66.3557518778 64.5700314872 65.1218169086 31.8436449907 98.4272506502 31.8436449907 c 0
 99.7429254495 31.8436449907 101.112499325 31.8947148874 102.5390625 32 c 0
 123.943359375 33.580078125 135 34.26171875 159 44.1953125 c 0
 221.393554688 70.01953125 251.915039062 130.295898438 256.0625 184.375976562 c 0
 256.281681911 187.233833948 256.38826852 190.030544163 256.38826852 192.765464995 c 0
 256.38826852 247.582228631 213.568934405 277.576171875 176.3125 277.576171875 c 0
 149.069335938 277.576171875 120.190429688 261.609375 101.5390625 247 c 0
 98.5025094024 244.621467355 93.9340197843 241.989535623 89.9670199765 241.989535623 c 0
 89.82354708 241.989535623 89.6808044965 241.991918496 89.5390625 242 c 0
 73.5231943042 242.913154178 70.4645819571 247.995561117 70.4645819571 256.485786703 c 0
 70.4645819571 257.293252343 70.4922471739 258.131541778 70.5390625 259 c 0
 71.2388277693 271.981152821 121.5390625 382 145.5390625 470 c 0
 151.5390625 491 170.5390625 492 190.5390625 492 c 0
 191.5390625 492 191.5390625 492 192.5390625 492 c 0xd8
 253.793851269 492 288.125282842 472.685417663 325.009508062 472.685417663 c 0
 336.898975526 472.685417663 349.053695306 474.692331819 362.4609375 480 c 0
 373.467740345 484.357353659 382.26111433 486.170087095 388.949875714 486.170087095 c 0
 400.055482215 486.170087095 405.359254398 481.172882833 405.359254398 474.528388173 c 0
 405.359254398 464.086930747 392.261911677 449.577589908 368 444 c 0
 343.241971369 438.308613006 323.37765721 436.368494499 306.549201966 436.368494499 c 0xe8
 270.495647206 436.368494499 248.376524209 445.273535775 221.922467548 445.273535775 c 0
 219.508047133 445.273535775 217.057517035 445.199357425 214.556987795 445.037460442 c 1
 193.769119834 400.169702493 161.61515191 330.170171628 150.241377755 311.015975248 c 1
 165.549255943 316.781693063 182.108770037 320.481325011 198.5390625 320.501953125 c 0
 198.800160048 320.50211586 l 0
 285.784396756 320.50211586 333.319810459 266.27886734 333.319810459 190.21304272 c 0
 333.319810459 189.668534413 333.317374628 189.122906839 333.3125 188.576171875 c 0
 332.750976562 125.624023438 298.461914062 44.62109375 191 8.7578125 c 0
 168.36328125 1.203125 142.067382812 -3.8515625 112 -6 c 0
 104.217858189 -6.55604821861 96.8589453594 -6.83327327602 89.8940375207 -6.83327327602 c 0
 43.1597863798 -6.83327327602 14.1650424294 5.64838562386 -5.9189453125 30.12890625 c 0
 -11.0603663607 36.3958222241 -14.1154802879 45.3213258623 -14.1154802879 54.2032455693 c 0
 -14.1154802879 63.0773537937 -11.0657378289 71.9079547157 -4 78 c 0
 4.2595428298 85.1212528936 15.2705355297 88.5819599666 25.7834262899 88.5819599666 c 0
 35.9786798271 88.5819599666 45.7054760866 85.3272177437 52 79 c 0xd8
EndSplineSet
Validated: 1
EndChar

StartChar: uni05D1_quoteright
Encoding: 293 -1 76
Width: 274
VWidth: 0
Flags: W
HStem: 0 45.6164<-30.4932 117.609> 208 42.9258<45.4217 154.596>
VStem: 166.3 77.2539<94.5072 196.542>
LayerCount: 2
Fore
SplineSet
59 0 m 0
 -29.0457757445 0 -69.9510006507 46.5801163005 -69.9510006507 67.9538667077 c 0
 -69.9510006507 74.317700016 -66.3247743085 78.4470024495 -59.2369002173 78.4470024495 c 0
 -56.8739633474 78.4470024495 -54.1262973016 77.9880698148 -51 77 c 0
 -37.8808720993 72.8536847189 -1.93075262039 45.616357917 49.4446393642 45.616357917 c 0
 52.8942939714 45.616357917 56.413494838 45.7391599093 60 46 c 0
 115 50 161.672473868 93 166 147 c 0
 166.202148438 149.522460938 166.299804688 151.952148438 166.299804688 154.290039062 c 0
 166.299804688 192.068359375 138 208 106 208 c 3
 71 208 56 193.782226562 40 185 c 0
 33.4838935855 181.423379823 27.9273484021 180.000925028 23.3532465374 180.000925028 c 0
 15.9939008806 180.000925028 11.1777184928 183.683106705 9 188 c 0
 8.3836876563 189.221716504 8.08600972551 190.567132153 8.08600972551 192.013850274 c 0
 8.08600972551 211.881109299 64.223721128 250.852535604 122.2265625 250.92578125 c 0
 122.452091347 250.925923634 l 0
 178.919399901 250.925923634 243.553702044 224.153661419 243.553702044 159.363207318 c 0
 243.553702044 159.072979539 243.552405106 158.781988894 243.549804688 158.490234375 c 0
 243.515755461 154.670073613 243.362304688 150.83203125 243 147 c 0
 234.018054595 51.9995855277 149 0 59 0 c 0
176 564 m 0
 179.449933393 569.218574054 186.571056305 575.059623402 198.720240248 575.059623402 c 0
 205.72303537 575.059623402 214.396340825 573.119007877 225 568 c 0
 238.675385082 561.398089961 243.527611375 552.766911616 243.527611375 545.06526283 c 0
 243.527611375 540.964414406 242.151919851 537.127103965 240 534 c 0
 212.475585938 494.000976562 151.262695312 427.950195312 120 421 c 0
 116.712998801 420.269351482 113.59034192 419.930913827 110.677571247 419.930913827 c 0
 97.2158659846 419.930913827 88.237188895 427.159714441 88.237188895 436.309115457 c 0
 88.237188895 437.82791347 88.4846044883 439.39963537 89 441 c 0
 93.8310546875 456 125.7578125 488.000976562 176 564 c 0
EndSplineSet
Validated: 1
Ligature2: "'liga' Standard Ligatures in Hebrew lookup 0-1" uni05D1 quoteright
LCarets2: 1 60
EndChar

StartChar: uni05E1_quoteright
Encoding: 294 -1 77
Width: 534
VWidth: 0
Flags: W
HStem: -17.2323 49.6409<20.5876 145.538> 0 41<287.732 377.334> 206.544 44.4557<309.482 418.526>
VStem: -56.8054 55.8229<54.8122 197.201> 426.3 77.25<90.9233 197.051>
LayerCount: 2
Fore
SplineSet
109 37 m 0xb8
 195.99220501 59.5047845697 224.142578125 184 237 229 c 0
 243 250 262 251 282 251 c 0
 283 251 283 251 284 251 c 0
 304 251 318 251 318 230 c 0
 318 229.721679688 317.995117188 229.436523438 317.984375 229.142578125 c 1
 340.620117188 242.1484375 366.255859375 251 394 251 c 1
 474.576171875 251 503.549804688 206.034179688 503.549804688 158.490234375 c 0
 503.549804688 154.669921875 503.362304688 150.83203125 503 147 c 0
 494.013671875 52 398 0 319 0 c 0x78
 274.739257812 0 250.763671875 26.2744140625 236.166015625 54.9228515625 c 1
 191.107607593 4.82275351381 135.36226803 -17.2323164715 84.6323867487 -17.2323164715 c 0
 8.22457065693 -17.2323164715 -56.8054399776 32.8006579068 -56.8054399776 112.400011215 c 0
 -56.8054399776 151.38943467 -41.2031490148 197.472555977 -3.693359375 248.244140625 c 0
 14.0713626202 272.289647598 33.002660089 284.031099807 44.7415509318 284.031099807 c 0
 51.8323076381 284.031099807 56.2988139403 279.747066339 56.2988139403 271.302992714 c 0
 56.2988139403 262.587910135 51.5410056182 249.44147286 40 232 c 0
 11.9958610913 189.678521206 -0.982562650808 148.77038367 -0.982562650808 115.125160358 c 0
 -0.982562650808 66.0366040687 26.6445588948 32.4085858236 75.540367508 32.4085858236 c 0
 85.7802481816 32.4085858236 96.9529259991 33.8834356474 109 37 c 0xb8
280 122 m 0
 277.783203125 114.965820312 276.549804688 107.455078125 276.549804688 99.8798828125 c 0
 276.549804688 70.6455078125 293.203125 41 321 41 c 0
 379 41 421.999023438 97 426 147 c 0
 426.202148438 149.522460938 426.299804688 151.952148438 426.299804688 154.290039062 c 0
 426.299804688 192.068359375 400.790039062 204.490234375 378.7734375 206.07421875 c 0
 374.390654938 206.389464833 370.235200458 206.544336292 366.291586916 206.544336292 c 0
 307.687023842 206.544336292 295.865028938 172.342804782 280 122 c 0
153 564 m 0
 156.449933393 569.218574054 163.571056305 575.059623402 175.720240248 575.059623402 c 0
 182.72303537 575.059623402 191.396340825 573.119007877 202 568 c 0
 215.675385082 561.398089961 220.527611375 552.766911616 220.527611375 545.06526283 c 0
 220.527611375 540.964414406 219.151919851 537.127103965 217 534 c 0
 189.475585938 494.000976562 128.262695312 427.950195312 97 421 c 0
 93.7129988007 420.269351482 90.5903419201 419.930913827 87.6775712466 419.930913827 c 0
 74.2158659846 419.930913827 65.237188895 427.159714441 65.237188895 436.309115457 c 0
 65.237188895 437.82791347 65.4846044883 439.39963537 66 441 c 0
 70.8310546875 456 102.7578125 488.000976562 153 564 c 0
EndSplineSet
Validated: 1
Ligature2: "'liga' Standard Ligatures in Hebrew lookup 0-1" uni05E1 quoteright
LCarets2: 1 175
EndChar

StartChar: uni05D2_quoteright
Encoding: 295 -1 78
Width: 526
VWidth: 0
Flags: W
HStem: -37 47<-50.8017 82.2938 219.969 353.895> -5 53<86.5538 234.418>
VStem: 405 91<108.027 209.902>
LayerCount: 2
Fore
SplineSet
299 564 m 0x20
 302.449933393 569.218574054 309.571056305 575.059623402 321.720240248 575.059623402 c 0
 328.72303537 575.059623402 337.396340825 573.119007877 348 568 c 0
 361.675385082 561.398089961 366.527611375 552.766911616 366.527611375 545.06526283 c 0
 366.527611375 540.964414406 365.151919851 537.127103965 363 534 c 0
 335.475585938 494.000976562 274.262695312 427.950195312 243 421 c 0
 239.712998801 420.269351482 236.59034192 419.930913827 233.677571247 419.930913827 c 0
 220.215865985 419.930913827 211.237188895 427.159714441 211.237188895 436.309115457 c 0
 211.237188895 437.82791347 211.484604488 439.39963537 212 441 c 0
 216.831054688 456 248.7578125 488.000976562 299 564 c 0x20
151 48 m 3x60
 199 48 258 10 298 10 c 0
 373 10 405 100 405 178 c 0
 405 210 440 219 476 219 c 0
 486 219 496 213 496 200 c 0
 496 92 396 -37 292 -37 c 0xa0
 256 -37 204 -5 168 -5 c 0
 139 -5 83 -34 46 -34 c 0
 -44 -34 -113 13 -113 34 c 0
 -113 40 -111 43 -103 43 c 0
 -68 43 -45 16 5 16 c 3
 66 16 106 48 151 48 c 3x60
EndSplineSet
Validated: 1
Ligature2: "'liga' Standard Ligatures in Hebrew lookup 0-1" uni05D2 quoteright
Substitution2: "altgimelrafe-1" uni05D2.alt_quoteright
LCarets2: 1 322
EndChar

StartChar: uni05D3_quoteright
Encoding: 296 -1 79
Width: 204
VWidth: 0
Flags: W
HStem: 0 38<0.568471 54.9682>
VStem: 94.7542 80.2458<88.8402 236.852>
LayerCount: 2
Fore
SplineSet
176 564 m 0
 179.449933393 569.218574054 186.571056305 575.059623402 198.720240248 575.059623402 c 0
 205.72303537 575.059623402 214.396340825 573.119007877 225 568 c 0
 238.675385082 561.398089961 243.527611375 552.766911616 243.527611375 545.06526283 c 0
 243.527611375 540.964414406 242.151919851 537.127103965 240 534 c 0
 212.475585938 494.000976562 151.262695312 427.950195312 120 421 c 0
 116.712998801 420.269351482 113.59034192 419.930913827 110.677571247 419.930913827 c 0
 97.2158659846 419.930913827 88.237188895 427.159714441 88.237188895 436.309115457 c 0
 88.237188895 437.82791347 88.4846044883 439.39963537 89 441 c 0
 93.8310546875 456 125.7578125 488.000976562 176 564 c 0
-18 314 m 0
 49.8076171875 309.165039062 175 282.004882812 175 177 c 3
 175 103.97265625 122 0 25 0 c 3
 6.86023564441 0 0.248963260772 7.50715063509 0.248963260772 15.8699332975 c 0
 0.248963260772 25.4869059087 8.99195742289 36.2353983522 19 38 c 0
 71 47.1685546875 87.2080078125 103 94 168 c 0
 94.5080228792 172.861826433 94.754153819 177.485271244 94.754153819 181.88377216 c 0
 94.754153819 256.194288293 24.5023642097 266.300315371 -40 277 c 0
 -145.010958513 294.419601833 -177.744168764 328.348033412 -177.744168764 345.554806109 c 0
 -177.744168764 352.005132022 -173.144219157 356.105587953 -166.027530737 356.105587953 c 0
 -165.372468573 356.105587953 -164.69608346 356.070847036 -164 356 c 0
 -146 354.16796875 -89.9999924838 319.133894474 -18 314 c 0
EndSplineSet
Validated: 1
Ligature2: "'liga' Standard Ligatures in Hebrew lookup 0-1" uni05D3 quoteright
Substitution2: "altdaletrafe-1" uni05D3.alt_quoteright
LCarets2: 1 50
EndChar

StartChar: uni05D4_quoteright
Encoding: 297 -1 80
Width: 180
VWidth: 0
Flags: W
VStem: -45.4259 74.7399<-22.1785 52.8339> 62.8204 86.9611<133.722 251.258>
LayerCount: 2
Fore
SplineSet
112 564 m 0
 115.449933393 569.218574054 122.571056305 575.059623402 134.720240248 575.059623402 c 0
 141.72303537 575.059623402 150.396340825 573.119007877 161 568 c 0
 174.675385082 561.398089961 179.527611375 552.766911616 179.527611375 545.06526283 c 0
 179.527611375 540.964414406 178.151919851 537.127103965 176 534 c 0
 148.475585938 494.000976562 87.2626953125 427.950195312 56 421 c 0
 52.7129988007 420.269351482 49.5903419201 419.930913827 46.6775712466 419.930913827 c 0
 33.2158659846 419.930913827 24.237188895 427.159714441 24.237188895 436.309115457 c 0
 24.237188895 437.82791347 24.4846044883 439.39963537 25 441 c 0
 29.8310546875 456 61.7578125 488.000976562 112 564 c 0
63 216 m 0
 62.8795548961 217.376696014 62.8204236337 218.71246058 62.8204236337 220.008514003 c 0
 62.8204236337 248.723088764 91.8456839131 257.944991982 126.16015625 260.9453125 c 0
 126.887642647 261.008925662 127.623232565 261.041129865 128.362304007 261.041129865 c 0
 137.743787704 261.041129865 147.686241262 255.852140641 148.736328125 243.84765625 c 0
 149.44499867 235.747383027 149.781545676 228.030200293 149.781545676 220.670539485 c 0
 149.781545676 81.4286480398 29.3140279589 70.1622789104 29.3140279589 13.713386567 c 0
 29.3140279589 6.90161144527 31.0682304234 -0.568094503624 35 -9 c 0
 36.7465738526 -12.7455936739 37.8865334162 -17.05120263 37.8865334162 -21.2375057796 c 0
 37.8865334162 -28.1928835373 34.7397305145 -34.8189234218 26 -38 c 0
 19.499851174 -40.3658629918 11.2647617636 -42.0920704319 2.83764457433 -42.0920704319 c 0
 -10.7748862589 -42.0920704319 -24.8884701821 -37.5879222456 -33 -24 c 0
 -41.7361531458 -9.36574822062 -45.4259210367 2.86019211402 -45.4259210367 13.576898454 c 0
 -45.4259210367 71.8721259811 63.7539029955 85.5092864357 63.7539029955 199.202903463 c 0
 63.7539029955 204.57358055 63.5102743753 210.167527978 63 216 c 0
EndSplineSet
Validated: 1
Ligature2: "'liga' Standard Ligatures in Hebrew lookup 0-1" uni05D4 quoteright
LCarets2: 1 25
EndChar

StartChar: uni05D6_quoteright
Encoding: 298 -1 81
Width: 180
VWidth: 0
Flags: W
HStem: -1 21G<-30 -12.5> 166 108<95.573 161.577>
VStem: -46 295.528
LayerCount: 2
Fore
SplineSet
182 564 m 0
 185.449933393 569.218574054 192.571056305 575.059623402 204.720240248 575.059623402 c 0
 211.72303537 575.059623402 220.396340825 573.119007877 231 568 c 0
 244.675385082 561.398089961 249.527611375 552.766911616 249.527611375 545.06526283 c 0
 249.527611375 540.964414406 248.151919851 537.127103965 246 534 c 0
 218.475585938 494.000976562 157.262695312 427.950195312 126 421 c 0
 122.712998801 420.269351482 119.59034192 419.930913827 116.677571247 419.930913827 c 0
 103.215865985 419.930913827 94.237188895 427.159714441 94.237188895 436.309115457 c 0
 94.237188895 437.82791347 94.4846044883 439.39963537 95 441 c 0
 99.8310546875 456 131.7578125 488.000976562 182 564 c 0
-25 -1 m 0
 -35 -1 -46 5 -46 18 c 3
 -46 28.1982421875 46 274 146 274 c 3
 165 274 179 257 179 238 c 3
 179 201 152 166 128 166 c 3
 113 166 94.1748046875 165.885742188 85 152 c 0
 17.298828125 49.533203125 0 -1 -25 -1 c 0
EndSplineSet
Validated: 1
Ligature2: "'liga' Standard Ligatures in Hebrew lookup 0-1" uni05D6 quoteright
LCarets2: 1 45
EndChar

StartChar: uni05DF_quoteright
Encoding: 299 -1 82
Width: 219
VWidth: 0
Flags: W
LayerCount: 2
Fore
SplineSet
182 564 m 0
 185.449933393 569.218574054 192.571056305 575.059623402 204.720240248 575.059623402 c 0
 211.72303537 575.059623402 220.396340825 573.119007877 231 568 c 0
 244.675385082 561.398089961 249.527611375 552.766911616 249.527611375 545.06526283 c 0
 249.527611375 540.964414406 248.151919851 537.127103965 246 534 c 0
 218.475585938 494.000976562 157.262695312 427.950195312 126 421 c 0
 122.712998801 420.269351482 119.59034192 419.930913827 116.677571247 419.930913827 c 0
 103.215865985 419.930913827 94.237188895 427.159714441 94.237188895 436.309115457 c 0
 94.237188895 437.82791347 94.4846044883 439.39963537 95 441 c 0
 99.8310546875 456 131.7578125 488.000976562 182 564 c 0
-176.974609375 -346.5078125 m 0
 -170.422851562 -271.627929688 126 237 180 237 c 3
 199 237 199 231 199 220 c 3
 199 200.764648438 -11.056640625 -130.145507812 -96.1953125 -352.571289062 c 0
 -102.081614279 -367.949298474 -114.337903958 -371.358324868 -128.55133663 -371.358324868 c 0
 -133.190665064 -371.358324868 -138.038507316 -370.995127537 -142.94140625 -370.56640625 c 0
 -143.9375 -370.478515625 -143.9375 -370.478515625 -144.93359375 -370.391601562 c 0
 -163.680298323 -368.751425714 -177.135783578 -367.574663845 -177.135783578 -350.01377236 c 0
 -177.135783578 -348.911107149 -177.082732575 -347.743844156 -176.974609375 -346.5078125 c 0
EndSplineSet
Validated: 1
Ligature2: "'liga' Standard Ligatures in Hebrew lookup 0-1" uni05DF quoteright
LCarets2: 1 52
EndChar

StartChar: uni05E4_quoteright
Encoding: 300 -1 83
Width: 348
VWidth: 0
Flags: W
HStem: -40 46<-132.619 159.473> 208 42.926<123.246 227.684>
VStem: 241.051 76.9593<72.1229 195.325>
LayerCount: 2
Fore
SplineSet
-12 88 m 0
 -12 101 6.20644162711 141.222545695 31 228 c 0
 37 249 56 251 76 251 c 0
 77 251 78 251 79 251 c 0
 99 251 112 251 112 230 c 0
 112 227.667525234 111.871279828 225.226481497 111.621777005 222.691297905 c 1
 134.365208131 238.035669373 165.561883658 250.906580296 196.605287484 250.926018392 c 0
 283.251712123 250.926018392 318.009973576 213.62296058 318.009973576 138.224893687 c 0
 318.009973576 65.2877961938 259.962271143 -40 75 -40 c 0
 -22.3552172555 -40 -214.267038134 -58.6053282262 -280 -94 c 0
 -281.648329508 -94.8875620427 -283.13001648 -95.2839504545 -284.439564221 -95.2839504545 c 0
 -289.150210852 -95.2839504545 -291.633457349 -90.1548721198 -291.633457349 -84.308539575 c 0
 -291.633457349 -60.4049520172 -235.532962076 -28.0813947124 -150 -13 c 0
 -58 3.2216796875 47.078125 3.896484375 76 6 c 0
 191 14.3642578125 237.298627288 76 240.75 131.799804688 c 0
 240.951868661 135.063500843 241.050625955 138.19728543 241.050625955 141.205651977 c 0
 241.050625955 193.687822866 210.994620398 208 174 208 c 0
 146.594368613 208 117.533146382 191.842137472 98.8936514163 177.162682938 c 1
 78.0609689873 126.971222902 36.806762675 72 8 72 c 0
 -12 72 -12 77 -12 88 c 0
250 564 m 0
 253.449933393 569.218574054 260.571056305 575.059623402 272.720240248 575.059623402 c 0
 279.72303537 575.059623402 288.396340825 573.119007877 299 568 c 0
 312.675385082 561.398089961 317.527611375 552.766911616 317.527611375 545.06526283 c 0
 317.527611375 540.964414406 316.151919851 537.127103965 314 534 c 0
 286.475585938 494.000976562 225.262695312 427.950195312 194 421 c 0
 190.712998801 420.269351482 187.59034192 419.930913827 184.677571247 419.930913827 c 0
 171.215865985 419.930913827 162.237188895 427.159714441 162.237188895 436.309115457 c 0
 162.237188895 437.82791347 162.484604488 439.39963537 163 441 c 0
 167.831054688 456 199.7578125 488.000976562 250 564 c 0
EndSplineSet
Validated: 1
Ligature2: "'liga' Standard Ligatures in Hebrew lookup 0-1" uni05E4 quoteright
LCarets2: 1 113
EndChar

StartChar: uni05E9_quoteright
Encoding: 301 -1 84
Width: 413
VWidth: 0
Flags: W
HStem: 0 43.0668<-62.5333 -10.3328 71.8717 231.379> 178.252 70.91<147.491 206.712>
VStem: 292 91<101.709 193.901>
LayerCount: 2
Fore
SplineSet
161 44 m 0
 213 48.7998046875 290.913580247 74 292 162 c 0
 292.395031625 193.997561626 327 203 363 203 c 0
 373 203 383 197 383 184 c 0
 383 76 284 0 156 0 c 0
 82.8154686867 0 52.8000936337 22.047077671 41.5196852857 38.6173487656 c 1
 16.5957139656 15.3311905945 -11.0639094195 0.017578125 -38.8017578125 0.017578125 c 0
 -56.1043347298 0.017578125 -63.5527897189 5.75849238685 -63.5527897189 15.8874805579 c 0
 -63.5527897189 25.5044421729 -54.8097941418 36.2529340337 -44.8017578125 38.017578125 c 0
 -38.6941705278 39.7742831491 -32.7684719455 42.6264949237 -27.0342667986 46.4417866945 c 0
 2.24443365364 68.7825670836 28.603183401 129.528153666 47.2060537097 184.647390825 c 1
 42.1230984074 190.022144181 30.6367779676 194.351996626 30.6367779676 219.72558671 c 0
 30.6367779676 222.265481328 30.7518708547 225.016234116 31 228 c 0
 32.92578125 251.15234375 50 284 96 284 c 0
 114.391339108 284 142.929918842 282.308793229 147.401826252 249.378000322 c 1
 149.312759975 249.239294272 151.313831145 249.162304946 153.407659647 249.162304946 c 0
 169.250029077 249.162304946 190.402542601 253.569766937 218 269 c 0
 233.965793862 277.926832153 245.790778906 281.676821242 253.836355882 281.676821242 c 0
 262.886803016 281.676821242 267.154810822 276.931608506 267.154810822 269.472221057 c 0
 267.154810822 242.928814722 213.112714778 182.018158569 128.207167659 178.252353122 c 1
 116.389642488 142.020367672 94.7003440678 100.766467963 67.6961764325 67.0789719614 c 1
 80.4769205692 56.8230504743 100.550514257 43.066753659 141.625222802 43.066753659 c 0
 147.621672963 43.066753659 154.06571462 43.359938164 161 44 c 0
226 564 m 0
 229.449933393 569.218574054 236.571056305 575.059623402 248.720240248 575.059623402 c 0
 255.72303537 575.059623402 264.396340825 573.119007877 275 568 c 0
 288.675385082 561.398089961 293.527611375 552.766911616 293.527611375 545.06526283 c 0
 293.527611375 540.964414406 292.151919851 537.127103965 290 534 c 0
 262.475585938 494.000976562 201.262695312 427.950195312 170 421 c 0
 166.712998801 420.269351482 163.59034192 419.930913827 160.677571247 419.930913827 c 0
 147.215865985 419.930913827 138.237188895 427.159714441 138.237188895 436.309115457 c 0
 138.237188895 437.82791347 138.484604488 439.39963537 139 441 c 0
 143.831054688 456 175.7578125 488.000976562 226 564 c 0
EndSplineSet
Validated: 1
Ligature2: "'liga' Standard Ligatures in Hebrew lookup 0-1" uni05E9 quoteright
LCarets2: 1 139
EndChar

StartChar: uni05D2_quoteright_uni05D5
Encoding: 302 -1 85
Width: 526
VWidth: 0
Flags: W
HStem: -37 47<-50.8017 82.2938 219.969 353.895> -5 53<86.5538 234.418>
VStem: 78 81<242.215 322.231> 405 91<108.027 209.902>
LayerCount: 2
Fore
SplineSet
351 564 m 0x30
 354.449933393 569.218574054 361.571056305 575.059623402 373.720240248 575.059623402 c 0
 380.72303537 575.059623402 389.396340825 573.119007877 400 568 c 0
 413.675385082 561.398089961 418.527611375 552.766911616 418.527611375 545.06526283 c 0
 418.527611375 540.964414406 417.151919851 537.127103965 415 534 c 0
 387.475585938 494.000976562 326.262695312 427.950195312 295 421 c 0
 291.712998801 420.269351482 288.59034192 419.930913827 285.677571247 419.930913827 c 0
 272.215865985 419.930913827 263.237188895 427.159714441 263.237188895 436.309115457 c 0
 263.237188895 437.82791347 263.484604488 439.39963537 264 441 c 0
 268.831054688 456 300.7578125 488.000976562 351 564 c 0x30
151 48 m 3x70
 199 48 258 10 298 10 c 0
 373 10 405 100 405 178 c 0
 405 210 440 219 476 219 c 0
 486 219 496 213 496 200 c 0
 496 92 396 -37 292 -37 c 0xb0
 256 -37 204 -5 168 -5 c 0
 139 -5 83 -34 46 -34 c 0
 -44 -34 -113 13 -113 34 c 0
 -113 40 -111 43 -103 43 c 0
 -68 43 -45 16 5 16 c 3
 66 16 106 48 151 48 c 3x70
159 304 m 3
 159 280 121 200 83 141 c 0
 59 103 36 74 22 74 c 3
 3 74 3 79 3 90 c 3
 3 103 54 214 78 302 c 0
 84 323 103 324 123 324 c 0
 124 324 125 324 126 324 c 3
 127.739130435 324 129.425330813 324.007561437 131.054656037 324.007561437 c 0
 148.162570888 324.007561437 159 323.173913043 159 304 c 3
EndSplineSet
Validated: 1
Ligature2: "'liga' Standard Ligatures in Hebrew lookup 0-1" uni05D2 quoteright uni05D5
LCarets2: 2 374 170
EndChar

StartChar: uni05D2_quoteright_uni05D9
Encoding: 303 -1 86
Width: 526
VWidth: 0
Flags: W
HStem: -37 47<-50.8017 82.2938 219.969 353.895> -5 53<86.5538 234.418>
VStem: 405 91<108.027 209.902>
LayerCount: 2
Fore
SplineSet
299 564 m 0x20
 302.449933393 569.218574054 309.571056305 575.059623402 321.720240248 575.059623402 c 0
 328.72303537 575.059623402 337.396340825 573.119007877 348 568 c 0
 361.675385082 561.398089961 366.527611375 552.766911616 366.527611375 545.06526283 c 0
 366.527611375 540.964414406 365.151919851 537.127103965 363 534 c 0
 335.475585938 494.000976562 274.262695312 427.950195312 243 421 c 0
 239.712998801 420.269351482 236.59034192 419.930913827 233.677571247 419.930913827 c 0
 220.215865985 419.930913827 211.237188895 427.159714441 211.237188895 436.309115457 c 0
 211.237188895 437.82791347 211.484604488 439.39963537 212 441 c 0
 216.831054688 456 248.7578125 488.000976562 299 564 c 0x20
0 92 m 0
 0 105 0 94 24 181 c 0
 30 202 49 204 69 204 c 0
 70 204 71 204 72 204 c 3
 92 204 105 204 105 183 c 3
 105 143 53 76 20 76 c 3
 2 76 0 81 0 92 c 0
151 48 m 3x60
 199 48 258 10 298 10 c 0
 373 10 405 100 405 178 c 0
 405 210 440 219 476 219 c 0
 486 219 496 213 496 200 c 0
 496 92 396 -37 292 -37 c 0xa0
 256 -37 204 -5 168 -5 c 0
 139 -5 83 -34 46 -34 c 0
 -44 -34 -113 13 -113 34 c 0
 -113 40 -111 43 -103 43 c 0
 -68 43 -45 16 5 16 c 3
 66 16 106 48 151 48 c 3x60
EndSplineSet
Validated: 1
Ligature2: "'liga' Standard Ligatures in Hebrew lookup 0-1" uni05D2 quoteright uni05D9
LCarets2: 2 362 120
EndChar

StartChar: uni05E8_uni05D1_quoteright
Encoding: 304 -1 87
Width: 502
VWidth: 0
Flags: W
HStem: 0 45.6164<-30.4932 117.609> 208 42.9258<45.4217 154.595> 277.276 41.8704<235.816 373.033> 568 36.0856<264.434 381.941>
VStem: 128 64.8907<358.721 493.799> 166.3 77.2539<94.5073 196.542> 423 87<288.282 530.964>
LayerCount: 2
Fore
SplineSet
88 584 m 0xf2
 91.4499333936 589.218574054 98.5710563049 595.059623402 110.720240248 595.059623402 c 0
 117.72303537 595.059623402 126.396340825 593.119007877 137 588 c 0
 150.675385082 581.398089961 155.527611375 572.766911616 155.527611375 565.06526283 c 0
 155.527611375 560.964414406 154.151919851 557.127103965 152 554 c 0
 124.475585938 514.000976562 63.2626953125 447.950195312 32 441 c 0
 28.7129988007 440.269351482 25.5903419201 439.930913827 22.6775712466 439.930913827 c 0
 9.21586598456 439.930913827 0.237188894965 447.159714441 0.237188894965 456.309115457 c 0
 0.237188894965 457.82791347 0.48460448829 459.39963537 1 461 c 0
 5.8310546875 476 37.7578125 508.000976562 88 584 c 0xf2
59 0 m 0
 -29.0457757445 0 -69.9510006507 46.5801163005 -69.9510006507 67.9538667077 c 0
 -69.9510006507 74.317700016 -66.3247743085 78.4470024495 -59.2369002173 78.4470024495 c 0
 -56.8739633474 78.4470024495 -54.1262973016 77.9880698148 -51 77 c 0
 -37.8808980807 72.853609738 -1.93076700612 45.6163570187 49.4446146915 45.6163570187 c 0
 52.8942772834 45.6163570187 56.4134863859 45.7391592946 60 46 c 0
 115 50 161.672851562 93 166 147 c 0
 166.202148438 149.522460938 166.299804688 151.952148438 166.299804688 154.290039062 c 0
 166.299804688 192.068359375 138 208 106 208 c 3
 71 208 56 193.782226562 40 185 c 0
 33.4838799109 181.423395711 27.9273297388 180.00094554 23.3532272621 180.00094554 c 0
 15.993887592 180.00094554 11.1777177021 183.683108272 9 188 c 0
 8.38366721561 189.22172828 8.08597959738 190.567162155 8.08597959738 192.013903477 c 0
 8.08597959738 211.88117395 64.2237819984 250.852959178 122.2265625 250.92578125 c 0
 122.450826946 250.925922038 l 0
 178.91839539 250.925922038 243.553703282 224.154179266 243.553703282 159.363344642 c 0xf6
 243.553703282 159.073071336 243.552405933 158.782034918 243.549804688 158.490234375 c 0
 243.515625 154.669921875 243.362304688 150.83203125 243 147 c 0
 234.017578125 52 149 0 59 0 c 0
342 604 m 0
 344.2110776 604.057181379 346.400344389 604.085584582 348.567799508 604.085584582 c 0
 456.154312538 604.085584582 510 534.104162474 510 440 c 3
 510 202 353 0 254 0 c 3
 246 0 241 4.267578125 241 13 c 3
 241 23 253 28.1953125 257 32 c 0
 283 56.7333984375 423 164.780273438 423 447 c 3
 423 528 385.137695312 568 327 568 c 3
 247.595703125 568 196.34765625 499.985351562 193 423 c 0
 192.926960449 421.320090336 192.890671578 419.654594291 192.890671578 418.003974407 c 0
 192.890671578 359.104200745 239.097543952 319.146344558 310.528647637 319.146344558 c 0
 319.316973396 319.146344558 328.487116376 319.751183509 338 321 c 0
 351.444654362 322.765012066 362.099822136 323.53187691 370.369188799 323.53187691 c 0
 387.813601601 323.53187691 394.640998959 320.119263906 394.640998959 315.465213055 c 0
 394.640998959 310.510579596 386.903225806 304.148973034 376 299 c 0
 344.369014509 284.062181326 312.328008155 277.275929775 282.252911253 277.275929775 c 0
 197.279846718 277.275929775 128 331.448375839 128 409 c 0xfa
 128 521.751953125 226 601 342 604 c 0
EndSplineSet
Validated: 1
Ligature2: "'liga' Standard Ligatures in Hebrew lookup 0-1" uni05E8 uni05D1 quoteright
LCarets2: 2 253 39
EndChar

StartChar: uni05D3_quoteright_uni05D9
Encoding: 305 -1 88
Width: 352
VWidth: 0
Flags: W
HStem: 0 40.9946<102.701 186.963>
VStem: 15 81<105.586 150.837> 243.754 80.2522<104.42 235.314>
LayerCount: 2
Fore
SplineSet
-20 26 m 0
 -20 39 -9.7939453125 43.22265625 15 130 c 0
 21 151 40 153 60 153 c 0
 61 153 62 153 63 153 c 0
 83 153 96 153 96 132 c 0
 96 125.540122706 94.3568806728 117.984832527 91.4623620455 109.856422839 c 0
 91.3005642543 108.377235685 91.2832028075 106.931072485 91.2226932853 105.519670573 c 0
 91.1792023276 104.505231548 91.1575071537 103.480674727 91.1575071537 102.448026616 c 0
 91.1575071537 74.6524330115 106.875979419 40.9945799379 136.350871396 40.9945799379 c 0
 136.566511544 40.9945799379 136.782888002 40.9963814667 137 41 c 0
 197 42 237 113.20703125 243 168 c 0
 243.508022879 172.861826433 243.754153819 177.485271244 243.754153819 181.88377216 c 0
 243.754153819 256.194288293 173.50236421 266.300315371 109 277 c 0
 3.98904362001 294.419601479 -28.7441777737 328.347930448 -28.7441777737 345.554716539 c 0
 -28.7441777737 352.00508611 -24.1441714941 356.10557385 -17.0274058768 356.10557385 c 0
 -16.3723826166 356.10557385 -15.6960392285 356.070837543 -15 356 c 0
 3 354.16796875 59 319.133789062 131 314 c 0
 198.807617188 309.165039062 323.062493771 282.0006976 324 177 c 0
 324.004242498 176.524840276 324.006362287 176.049527918 324.006362287 175.574079118 c 0
 324.006362287 89.9972073678 255.331461319 -1.36210487334e-14 135 0 c 0
 94.3024477861 0 69.0644819304 22.2142795859 53.9163719011 48.0624930717 c 1
 35.486383284 26.3765302649 14.7474848862 10 0 10 c 1
 -20 10 -20 15 -20 26 c 0
325 564 m 0
 328.449933393 569.218574054 335.571056305 575.059623402 347.720240248 575.059623402 c 0
 354.72303537 575.059623402 363.396340825 573.119007877 374 568 c 0
 387.675385082 561.398089961 392.527611375 552.766911616 392.527611375 545.06526283 c 0
 392.527611375 540.964414406 391.151919851 537.127103965 389 534 c 0
 361.475585938 494.000976562 300.262695312 427.950195312 269 421 c 0
 265.712998801 420.269351482 262.59034192 419.930913827 259.677571247 419.930913827 c 0
 246.215865985 419.930913827 237.237188895 427.159714441 237.237188895 436.309115457 c 0
 237.237188895 437.82791347 237.484604488 439.39963537 238 441 c 0
 242.831054688 456 274.7578125 488.000976562 325 564 c 0
EndSplineSet
Validated: 1
Ligature2: "'liga' Standard Ligatures in Hebrew lookup 0-1" uni05D3 quoteright uni05D9
LCarets2: 2 172 106
EndChar

StartChar: u05D3_quoteright_u05D9_u05D9
Encoding: 306 -1 89
Width: 430
VWidth: 0
Flags: W
HStem: 0 38<225.568 279.968> 68 128<24.6002 59.6443 159.6 194.644>
VStem: 319.722 80.2778<88.8403 237.784>
LayerCount: 2
Fore
SplineSet
325 564 m 0
 328.449933393 569.218574054 335.571056305 575.059623402 347.720240248 575.059623402 c 0
 354.72303537 575.059623402 363.396340825 573.119007877 374 568 c 0
 387.675385082 561.398089961 392.527611375 552.766911616 392.527611375 545.06526283 c 0
 392.527611375 540.964414406 391.151919851 537.127103965 389 534 c 0
 361.475585938 494.000976562 300.262695312 427.950195312 269 421 c 0
 265.712998801 420.269351482 262.59034192 419.930913827 259.677571247 419.930913827 c 0
 246.215865985 419.930913827 237.237188895 427.159714441 237.237188895 436.309115457 c 0
 237.237188895 437.82791347 237.484604488 439.39963537 238 441 c 0
 242.831054688 456 274.7578125 488.000976562 325 564 c 0
0 84 m 0
 0 97 0 86 24 173 c 0
 30 194 49 196 69 196 c 0
 70 196 71 196 72 196 c 3
 92 196 105 196 105 175 c 3
 105 135 53 68 20 68 c 3
 0 68 0 73 0 84 c 0
135 84 m 0
 135 97 135 86 159 173 c 0
 165 194 184 196 204 196 c 0
 205 196 206 196 207 196 c 3
 227 196 240 196 240 175 c 3
 240 135 188 68 155 68 c 3
 135 68 135 73 135 84 c 0
182 318 m 0
 269 308.23046875 400 288.017578125 400 177 c 3
 400 103.97265625 347 0 250 0 c 3
 231.86022786 0 225.248948202 7.50721030367 225.248948202 15.870029471 c 0
 225.248948202 25.4870363464 233.991937956 36.2355306062 244 38 c 0
 296 47.1689453125 312.208007812 103 319 168 c 0
 319.486625964 172.657055952 319.722225232 177.101085007 319.722225232 181.343033081 c 0
 319.722225232 266.365829848 225.073664357 270.205547815 160 281 c 0
 46.4400694643 299.837736577 5.63032126764 342.691531023 5.63032126764 360.308741564 c 0
 5.63032126764 365.156281216 8.72013547991 368.093092205 14.2343475174 368.093092205 c 0
 14.7978197736 368.093092205 15.3866072691 368.062426416 16 368 c 0
 34 366.16796875 110.267578125 326.0546875 182 318 c 0
EndSplineSet
Validated: 1
Ligature2: "'liga' Standard Ligatures in Hebrew lookup 0-1" uni05D3 quoteright uni05D9 uni05D9
LCarets2: 3 274 241 106
EndChar

StartChar: uni05D3.alt_quoteright
Encoding: 307 -1 90
Width: 299
VWidth: 0
Flags: W
HStem: 0 38<97.5685 149.845> 207.925 74.4195<-48.4069 68.7849> 226.359 46.4113<39.1092 205.709>
VStem: 189.967 80.666<83.7941 218.623>
LayerCount: 2
Fore
SplineSet
186 564 m 0x90
 189.449933393 569.218574054 196.571056305 575.059623402 208.720240248 575.059623402 c 0
 215.72303537 575.059623402 224.396340825 573.119007877 235 568 c 0
 248.675385082 561.398089961 253.527611375 552.766911616 253.527611375 545.06526283 c 0
 253.527611375 540.964414406 252.151919851 537.127103965 250 534 c 0
 222.475585938 494.000976562 161.262695312 427.950195312 130 421 c 0
 126.712998801 420.269351482 123.59034192 419.930913827 120.677571247 419.930913827 c 0
 107.215865985 419.930913827 98.237188895 427.159714441 98.237188895 436.309115457 c 0
 98.237188895 437.82791347 98.4846044883 439.39963537 99 441 c 0
 103.831054688 456 135.7578125 488.000976562 186 564 c 0x90
75 261 m 0
 100.887695155 261.364625904 142.8648601 272.770314709 181.31033765 272.770314709 c 0
 228.64874969 272.770314709 270.632659464 255.477791418 270.632659464 178.988426577 c 0
 270.632659464 173.621843668 270.425989931 167.963859038 270 162 c 0
 264 78 210.801757812 0 122 0 c 3
 103.86022786 0 97.2489482024 7.50721030367 97.2489482024 15.870029471 c 0
 97.2489482024 25.4870363464 105.991937956 36.2355306062 116 38 c 0
 156 45.052734375 182.208007813 87.9999999998 189 153 c 0
 189.651908472 159.238825004 189.966635457 164.983404418 189.966635457 170.267973696 c 0
 189.966635457 214.233491805 168.182557605 226.359043518 137.54478051 226.359043518 c 0xb0
 105.164473825 226.359043518 62.8947162909 212.814981947 26 209 c 0
 18.919365982 208.267849338 12.3963693111 207.925216892 6.39982281498 207.925216892 c 0
 -37.0980515227 207.925216892 -52.8952138744 225.953822768 -52.8952138744 244.115629553 c 0
 -52.8952138744 259.871521201 -41.0061694353 275.727660698 -25 280 c 0
 -18.8287309328 281.647180859 -13.9035361693 282.344741692 -9.74017620062 282.344741692 c 0xd0
 13.3035923535 282.344741692 13.0084874573 260.974906505 71.4831470764 260.974906505 c 0
 72.6325176387 260.974906505 73.8045940991 260.983162813 75 261 c 0
EndSplineSet
Validated: 1
Ligature2: "'liga' Standard Ligatures in Hebrew lookup 0-1" uni05D3.alt quoteright
LCarets2: 1 73
EndChar

StartChar: six
Encoding: 54 54 91
Width: 385
VWidth: 0
Flags: W
HStem: -1.68031 38.9102<118.84 224.033> 280.019 42.4252<163.327 265.22>
VStem: 0.157558 73.1158<87.6923 306.214> 281.522 62.8881<100.926 266.042>
LayerCount: 2
Fore
SplineSet
127.618164062 3.580078125 m 0
 32.0010490544 26.5684212366 0.15755759598 108.717334167 0.15755759598 189.137599287 c 0
 0.15755759598 198.426342623 0.582376274914 207.692024358 1.3828125 216.840820312 c 0
 2.2734375 227.028320312 3.630859375 237.071289062 5.3857421875 246.83984375 c 0
 45.4140786084 469.642195647 204.913295095 576.795823966 305.446352864 576.795823966 c 0
 309.377963014 576.795823966 313.219389901 576.631942442 316.959960938 576.3046875 c 0
 320.37890625 576.004882812 323.713867188 575.569335938 326.95703125 574.998046875 c 0
 333.762114045 573.797524122 337.809249872 569.850048977 337.809249872 563.254789814 c 0
 337.809249872 562.763017991 337.786748379 562.256524869 337.741210938 561.735351562 c 0
 337.689453125 561.154296875 337.610351562 560.5546875 337.501953125 559.9375 c 0
 335.765625 550.08984375 323.32131554 546.591572768 318.4453125 544.004882812 c 0
 260 513 89.7802734375 475.627929688 73.7333984375 189.310546875 c 0
 73.4276152545 183.854976202 73.2733518178 178.471994728 73.2733518178 173.174736466 c 0
 73.2733518178 107.367511678 97.0805266331 54.7897827372 149.955078125 40.6220703125 c 0
 155.827148438 39.048828125 161.508789062 38.0458984375 167 37.5654296875 c 0
 169.574618573 37.3401602811 172.107171971 37.2299253751 174.597485165 37.2299253751 c 0
 231.537636041 37.2299253751 266.394927983 94.8598994188 277.077148438 152.748046875 c 0
 278.612304688 161.072265625 279.858398438 169.844726562 280.635742188 178.731445312 c 0
 281.203309501 185.218895294 281.521557989 191.767208235 281.521557989 198.246120759 c 0
 281.521557989 238.53175706 269.217097627 276.134160874 228.037109375 279.737304688 c 0
 225.906387331 279.923719858 223.698330834 280.019094282 221.410645293 280.019094282 c 0
 210.347745386 280.019094282 197.422686271 277.788722613 182.375976562 272.837890625 c 0
 175.266774894 270.498286171 169.183330818 269.479227903 164.051236897 269.479227903 c 0
 162.973204775 269.479227903 161.937149963 269.524192761 160.942382812 269.611328125 c 0
 147.455382771 270.791429256 141.564907082 279.718950993 141.564907082 289.415680397 c 0
 141.564907082 290.126442605 141.596555242 290.841337587 141.659179688 291.557617188 c 0
 142.555664062 301.796875 149.78125 312.317382812 161.376953125 315.09375 c 0
 182.425049984 320.132740601 201.360794442 322.444252634 218.331152594 322.444252634 c 0
 223.540974363 322.444252634 228.565565997 322.226401475 233.409179688 321.802734375 c 0
 313.910802016 314.759387813 344.409643808 250.852665207 344.409643808 185.298568045 c 0
 344.409643808 178.957893445 344.124309103 172.601806682 343.571289062 166.280273438 c 0
 343.41796875 164.52734375 343.244140625 162.776367188 343.049804688 161.030273438 c 0
 333.108269158 71.604578776 263.07571265 -1.68030962881 170.944567152 -1.68030962881 c 0
 165.859612918 -1.68030962881 160.707341537 -1.45706779255 155.494140625 -1.0009765625 c 0
 146.376953125 -0.203125 137.07421875 1.306640625 127.618164062 3.580078125 c 0
EndSplineSet
Validated: 1
EndChar

StartChar: three
Encoding: 51 51 92
Width: 405
VWidth: 0
Flags: W
HStem: -6.83327 38.6769<68.4188 173.189> 456.658 37.2678<165.2 232.374>
VStem: 245.3 77.254<338.775 447.696> 256.444 76.8763<109.182 245.685>
LayerCount: 2
Fore
SplineSet
178 265 m 0xd0
 176.5751458 264.771945769 175.505187378 264.844080196 174.744230056 265.171885318 c 0
 166.656779429 263.66936397 158.394630483 262.296731322 150 261 c 0
 147.339004133 260.588951747 144.89928636 260.398976677 142.675096485 260.398976677 c 0
 130.276610776 260.398976677 124.575383614 266.302213223 124.575383614 272.721966467 c 0
 124.575383614 278.999844672 130.02740369 285.771662046 140 288 c 0
 193.818068278 300.025438552 240.672851562 338 245 392 c 0
 245.202148438 394.522460938 245.299804688 396.952148438 245.299804688 399.290039062 c 0
 245.299804688 433.726861129 224.277611993 456.658156882 196.321088629 456.658156882 c 0
 193.608391343 456.658156882 190.830404925 456.44225077 188 456 c 0
 154 450.6875 170 409 116 400 c 0
 113.493089168 399.582158688 111.087950192 399.380053711 108.793119202 399.380053711 c 0
 94.7349742832 399.380053711 84.8164598137 406.964635308 81 419 c 0
 80.2313397614 421.424166097 79.8407304383 424.046594143 79.8407304383 426.80933626 c 0
 79.8407304383 453.748429176 116.950950998 493.872243975 202.468678217 493.925933254 c 0
 258.925282354 493.925933254 322.553763544 469.133032443 322.553763544 404.376684733 c 0xe0
 322.553763544 400.188256776 322.391280528 396.138265908 322 392 c 0
 317.622580828 345.703485858 297.786821104 316.682040652 268.304700796 297.503170336 c 1
 311.392255898 277.702558418 333.320291646 236.595538971 333.320291646 183.319794678 c 0
 333.320291646 118.886951971 298.986162035 44.7960511073 191 8.7578125 c 0
 168.36328125 1.203125 142.067382812 -3.8515625 112 -6 c 0
 104.217858189 -6.55604821861 96.8589453594 -6.83327327602 89.8940375207 -6.83327327602 c 0
 43.1597863798 -6.83327327602 14.1650424294 5.64838562386 -5.9189453125 30.12890625 c 0
 -11.0603663607 36.3958222241 -14.1154802879 45.3213258623 -14.1154802879 54.2032455693 c 0
 -14.1154802879 63.0773537937 -11.0657378289 71.9079547157 -4 78 c 0
 4.2595428298 85.1212528936 15.2705355297 88.5819599666 25.7834262899 88.5819599666 c 0
 35.9786798271 88.5819599666 45.7054760866 85.3272177437 52 79 c 0
 66.3557518778 64.5700314872 65.1218169086 31.8436449907 98.4272506502 31.8436449907 c 0
 99.7429254495 31.8436449907 101.112499325 31.8947148874 102.5390625 32 c 0
 123.943359375 33.580078125 135 34.26171875 159 44.1953125 c 0
 221.393554688 70.01953125 251.915039062 123.295898438 256.0625 177.375976562 c 0
 256.319254904 180.723886404 256.443963085 183.979868653 256.443963085 187.143391876 c 0
 256.443963085 238.836487125 223.14597722 265.842354032 188.568018056 265.842354032 c 0
 185.047349307 265.842354032 181.51341112 265.562385165 178 265 c 0xd0
EndSplineSet
Validated: 1
EndChar

StartChar: nine
Encoding: 57 57 93
Width: 340
VWidth: 0
Flags: W
HStem: -23.2183 39.103<27.3787 110.459> 189.548 42.4523<106.222 212.574> 447.366 44.6345<146.839 256.723>
VStem: 17.3504 66.6393<251.878 381.067> 271.699 90.4137<365.306 479.591>
LayerCount: 2
Fore
SplineSet
73.083984375 17.7802734375 m 0
 155 38.5405080046 214.393178391 155 234.502929688 217.918945312 c 1
 211.278978945 201.050727738 179.350252546 189.54765834 139.819934625 189.54765834 c 0
 135.339071381 189.54765834 130.760536763 189.695459045 126.0859375 190 c 0
 55.9763976483 194.568094223 17.3503585364 249.565943451 17.3503585364 310.42045358 c 0
 17.3503585364 329.495787923 21.1455959789 349.146573936 28.9560546875 368 c 0
 52.0546875 423.756835938 117.786132812 492 204 492 c 0
 231.744140625 492 265.26953125 483.1484375 280.396484375 470.142578125 c 1
 281.915039062 489.806640625 324 492 327 492 c 0
 328 492 328 492 329 492 c 0
 350.987975298 492 362.112727564 491.284806128 362.112727564 474.128753184 c 0
 362.112727564 470.998382731 361.742347959 467.320641986 361 463 c 0
 326.629741805 262.956908655 271 26.1649372508 95 -18 c 0
 80.6292280145 -21.6061604715 66.7413144221 -23.2182509769 53.5733252871 -23.2182509769 c 0
 9.93049540743 -23.2182509769 -25.8042041958 -5.50997394202 -45 16 c 0
 -50.985031313 22.7065657969 -58.7012021995 35.7100550641 -58.7012021995 48.9775061486 c 0
 -58.7012021995 55.4928343378 -56.8404032996 62.0718184344 -52 68 c 0
 -44.4225642632 77.2803041542 -32.6276020507 81.3793302549 -21.1051726635 81.3793302549 c 0
 -11.9682188362 81.3793302549 -3.00263452417 78.8018494863 3.552734375 74.1865234375 c 0
 19.1125372902 63.2316001048 21.6056735029 15.8847315244 59.1119471604 15.8847315244 c 0
 63.308504804 15.8847315244 67.9434009085 16.4774791333 73.083984375 17.7802734375 c 0
266.522460938 338 m 0
 269.82553992 350.595465299 271.69906858 363.554556102 271.69906858 375.950177106 c 0
 271.69906858 414.36347866 253.706754089 447.365533479 204.509113444 447.365533479 c 0
 201.860244816 447.365533479 199.120915266 447.269864031 196.2890625 447.07421875 c 0
 158 444.428710938 117.543945312 406.055664062 96.9560546875 366 c 0
 88.1060629342 348.781484742 83.9897026428 330.410002333 83.9897026428 312.965326176 c 0
 83.9897026428 269.621917311 109.401400687 232 150.756835938 232 c 0
 204 232 248.95214602 271 266.522460938 338 c 0
EndSplineSet
Validated: 1
EndChar

StartChar: colon
Encoding: 58 58 94
Width: 200
VWidth: 0
Flags: W
HStem: 0 87<11.4702 72.1639> 164 87<40.4702 101.164>
VStem: 0 92<20.2145 80.6308> 29 92<184.214 244.631>
LayerCount: 2
Fore
SplineSet
29 180 m 0xd0
 29 193 35.0947265625 204 40 228 c 0
 44.373046875 249.3984375 65 251 85 251 c 0
 86 251 87 251 88 251 c 3
 108 251 121 251 121 230 c 3
 121 190 82 164 49 164 c 3
 31 164 29 169 29 180 c 0xd0
0 16 m 0xe0
 0 29 6.09486607143 40 11 64 c 0
 15.3734111702 85.3983694661 36 87 56 87 c 0
 57 87 58 87 59 87 c 3
 79 87 92 87 92 66 c 3
 92 26 53 0 20 0 c 3
 2 0 0 5 0 16 c 0xe0
EndSplineSet
Validated: 1
EndChar

StartChar: semicolon
Encoding: 59 59 95
Width: 200
VWidth: 0
Flags: W
HStem: 164 87<40.4702 101.164>
VStem: 29 92<184.214 244.631>
LayerCount: 2
Fore
SplineSet
14 64 m 0
 16.068953119 72.6382311348 24.6646368507 84.9887037313 49.7665609909 84.9887037313 c 0
 52.5318618152 84.9887037313 55.4974801466 84.8388200618 58.6767578125 84.517578125 c 0
 78.2296055512 82.5415933436 85.0582069795 72.3181797276 85.0582069795 62.8172574783 c 0
 85.0582069795 61.0677522174 84.8266644668 59.3427450135 84.400390625 57.6982421875 c 0
 72.216796875 10.697265625 27.3154296875 -59.078125 0.3154296875 -76.3017578125 c 0
 -6.38674134657 -80.5770442782 -12.9759595731 -82.4847225453 -18.6469410525 -82.4847225453 c 0
 -28.3221803135 -82.4847225453 -35.3246492654 -76.9319216505 -35.6552734375 -68.1103515625 c 0
 -35.6612042519 -67.952278204 -35.664150733 -67.7929939701 -35.664150733 -67.6324494786 c 0
 -35.664150733 -51.7997524805 -7.00768395728 -23.71022249 14 64 c 0
29 180 m 0
 29 193 35.0947265625 204 40 228 c 0
 44.373046875 249.3984375 65 251 85 251 c 0
 86 251 87 251 88 251 c 3
 108 251 121 251 121 230 c 3
 121 190 82 164 49 164 c 3
 31 164 29 169 29 180 c 0
EndSplineSet
Validated: 1
EndChar

StartChar: eight
Encoding: 56 56 96
Width: 342
VWidth: 0
Flags: W
HStem: -10.3308 48.3195<69.5453 159.435> 467.823 33.3259<143.165 227.305>
VStem: -2.05798 52.1755<57.6583 179.372> 64.7255 60.4293<334.683 454.398> 191.165 72.958<70.5679 204.784>
LayerCount: 2
Fore
SplineSet
138.062050505 244.447423301 m 1
 97.6396512322 211.383366123 65.1240430459 180.677643862 55 146 c 0
 51.6240566145 134.436461413 50.1175556802 123.623540833 50.1175556802 113.650703762 c 0
 50.1175556802 66.3843065447 83.9580702547 37.9886963017 112.999022744 37.9886963017 c 0
 113.333337529 37.9886963017 113.667016263 37.9924593575 114 38 c 0
 162.406541152 39.0966261664 191.165327997 93.9290342561 191.165327997 142.238775416 c 0
 191.165327997 184.463676249 165.967397126 214.025746268 138.062050505 244.447423301 c 1
102.777282184 284.651905916 m 1
 81.4727634419 311.95626378 64.7255030773 343.547147011 64.7255030773 386.636121416 c 0
 64.7255030773 389.8318591 64.8176230299 393.090843166 65.0068359375 396.416015625 c 0
 68.276770498 453.880891998 118.014662124 499.608870108 172.565429688 501.087890625 c 0
 174.067917292 501.128627174 175.558102873 501.148741197 177.035753486 501.148741197 c 0
 234.99365474 501.148741197 273.667206916 470.204435424 279 439 c 0
 279.368932631 436.841218609 279.633669651 434.761457197 279.801428376 432.768421556 c 1
 283.98245323 437.759522583 288.054665672 442.878858756 292.002929688 448.137695312 c 0
 303.921561087 464.012554446 312.921956952 469.891642659 319.188533476 469.891642659 c 0
 326.672229813 469.891642659 330.257032125 461.507057196 330.257032125 451.749287558 c 0
 330.257032125 445.04309232 328.563800097 437.688292439 325.279296875 431.9609375 c 0
 290.309811489 370.982871329 237.937912593 324.863780559 188.349658249 284.781786082 c 1
 225.054216333 245.264204637 264.123328213 204.57708936 264.123328213 144.158369539 c 0
 264.123328213 141.346215417 264.038689561 138.491315085 263.865234375 135.591796875 c 0
 259.190878546 57.4541513745 189.333651517 -10.3307893298 108.565173847 -10.3307893298 c 0
 106.626956607 -10.3307893298 104.682455954 -10.2917543166 102.732421875 -10.212890625 c 0
 57.4330245376 -8.38122235082 -2.05798385543 29.4830916562 -2.05798385543 112.17524319 c 0
 -2.05798385543 122.81676742 -1.07277019869 134.200672707 1.0546875 146.345703125 c 0
 11.2010824519 204.268488334 52.0841097853 245.178922959 102.777282184 284.651905916 c 1
258.756372771 409.542149024 m 1
 254.972869932 412.804646025 251.007588474 418.114474923 247.15234375 425.783203125 c 0
 238.674741942 442.64638855 218.232000083 467.822888443 185.451845115 467.822888443 c 0
 180.66027702 467.822888443 175.605101626 467.284954836 170.28515625 466.104492188 c 0
 139.041583355 459.171738524 125.154832654 433.175212901 125.154832654 400.703083465 c 0
 125.154832654 398.842066616 125.200444716 396.959780167 125.291015625 395.05859375 c 0
 126.581656809 367.966566875 138.500539655 345.008542562 154.859718142 323.412352585 c 1
 190.113937101 349.238574288 226.596382567 376.571442904 258.756372771 409.542149024 c 1
EndSplineSet
Validated: 1
EndChar

StartChar: hyphen
Encoding: 45 45 97
Width: 285
VWidth: 0
Flags: W
HStem: 178.098 50.3668<28.6396 227.083>
VStem: 12.4307 256.006<192.054 227.179>
LayerCount: 2
Fore
SplineSet
229.540039062 250.799804688 m 0
 230.997816206 251.316872942 232.597173042 251.578021611 234.295297378 251.578021611 c 0
 243.42457084 251.578021611 255.408459184 244.030206076 263.594726562 228.122070312 c 0
 267.02056829 221.464551401 268.436748436 215.70401151 268.436748436 210.837166166 c 0
 268.436748436 200.5765472 262.14211375 194.288219972 255.114257812 191.94140625 c 0
 230.016850836 183.559106477 173.47328975 178.098347915 122.498115868 178.098347915 c 0
 79.9319248733 178.098347915 41.248503059 181.906068943 28 191 c 0
 17.8060907544 197.997437869 12.4307442769 206.717841778 12.4307442769 214.150537777 c 0
 12.4307442769 219.649949757 15.3734459278 224.444413654 21.484375 227.314453125 c 0
 25.9617100149 229.417205743 32.6463913077 230.060271185 41.3558792486 230.060271185 c 0
 55.0728071508 230.060271185 73.8121434635 228.465186889 96.8607891217 228.465186889 c 0
 131.942154656 228.465186889 177.006721493 232.160453657 229.540039062 250.799804688 c 0
EndSplineSet
Validated: 1
EndChar

StartChar: parenright
Encoding: 41 41 98
Width: 231
VWidth: 0
Flags: W
HStem: 637 39.9841<-6.40235 31.5157>
VStem: 178 81<214.89 484.901>
LayerCount: 2
Fore
SplineSet
31.53515625 676.97265625 m 0
 221.954101562 673.466796875 259 448.005859375 259 355 c 3
 259 117 90 -39 -9 -39 c 3
 -17 -39 -22 -34.732421875 -22 -26 c 3
 -22 -16 -10 -10.8046875 -6 -7 c 0
 20 17.7333984375 178 82.7802734375 178 365 c 3
 178 451.005859375 127.581054688 627.413085938 18 637 c 0
 0.837489668984 638.501473444 -6.76693328243 645.932609662 -6.76693328243 653.988866296 c 0
 -6.76693328243 664.911880787 7.2123433411 676.984059559 30.3014722579 676.984059559 c 0
 30.7098592681 676.984059559 31.121096247 676.980282842 31.53515625 676.97265625 c 0
EndSplineSet
Validated: 1
EndChar

StartChar: parenleft
Encoding: 40 40 99
Width: 231
VWidth: 0
Flags: W
HStem: -87.0114 39.9841<205.019 242.938>
VStem: -22.4648 81<105.072 375.083>
LayerCount: 2
Fore
SplineSet
205 -87 m 0
 14.5810546875 -83.494140625 -22.46484375 141.966796875 -22.46484375 234.97265625 c 3
 -22.46484375 472.97265625 146.53515625 628.97265625 245.53515625 628.97265625 c 3
 253.53515625 628.97265625 258.53515625 624.705078125 258.53515625 615.97265625 c 3
 258.53515625 605.97265625 246.53515625 600.77734375 242.53515625 596.97265625 c 0
 216.53515625 572.239257812 58.53515625 507.192382812 58.53515625 224.97265625 c 3
 58.53515625 138.966796875 108.954101562 -37.4404296875 218.53515625 -47.02734375 c 0
 235.697666581 -48.5288171935 243.302089532 -55.9599534112 243.302089532 -64.0162100459 c 0
 243.302089532 -74.939224537 229.322812909 -87.011403309 206.233683991 -87.011403309 c 0
 205.825296981 -87.011403309 205.414060003 -87.0076265924 205 -87 c 0
EndSplineSet
Validated: 1
EndChar

StartChar: uni00AD
Encoding: 173 173 100
Width: 285
VWidth: 0
Flags: W
HStem: 178.098 50.3668<28.6396 227.083>
VStem: 12.4307 256.006<192.054 227.179>
LayerCount: 2
Fore
SplineSet
229.540039062 250.799804688 m 0
 230.997816206 251.316872942 232.597173042 251.578021611 234.295297378 251.578021611 c 0
 243.42457084 251.578021611 255.408459184 244.030206076 263.594726562 228.122070312 c 0
 267.02056829 221.464551401 268.436748436 215.70401151 268.436748436 210.837166166 c 0
 268.436748436 200.5765472 262.14211375 194.288219972 255.114257812 191.94140625 c 0
 230.016850836 183.559106477 173.47328975 178.098347915 122.498115868 178.098347915 c 0
 79.9319248733 178.098347915 41.248503059 181.906068943 28 191 c 0
 17.8060907544 197.997437869 12.4307442769 206.717841778 12.4307442769 214.150537777 c 0
 12.4307442769 219.649949757 15.3734459278 224.444413654 21.484375 227.314453125 c 0
 25.9617100149 229.417205743 32.6463913077 230.060271185 41.3558792486 230.060271185 c 0
 55.0728071508 230.060271185 73.8121434635 228.465186889 96.8607891217 228.465186889 c 0
 131.942154656 228.465186889 177.006721493 232.160453657 229.540039062 250.799804688 c 0
EndSplineSet
Validated: 1
EndChar

StartChar: uni05BE
Encoding: 308 1470 101
Width: 285
VWidth: 0
Flags: W
HStem: 178.098 50.3668<28.6396 227.083>
VStem: 12.4307 256.006<192.054 227.179>
LayerCount: 2
Fore
SplineSet
229.540039062 250.799804688 m 4
 230.997816206 251.316872942 232.597173042 251.578021611 234.295297378 251.578021611 c 4
 243.42457084 251.578021611 255.408459184 244.030206076 263.594726562 228.122070312 c 4
 267.02056829 221.464551401 268.436748436 215.70401151 268.436748436 210.837166166 c 4
 268.436748436 200.5765472 262.14211375 194.288219972 255.114257812 191.94140625 c 4
 230.016850836 183.559106477 173.47328975 178.098347915 122.498115868 178.098347915 c 4
 79.9319248733 178.098347915 41.248503059 181.906068943 28 191 c 4
 17.8060907544 197.997437869 12.4307442769 206.717841778 12.4307442769 214.150537777 c 4
 12.4307442769 219.649949757 15.3734459278 224.444413654 21.484375 227.314453125 c 4
 25.9617100149 229.417205743 32.6463913077 230.060271185 41.3558792486 230.060271185 c 4
 55.0728071508 230.060271185 73.8121434635 228.465186889 96.8607891217 228.465186889 c 4
 131.942154656 228.465186889 177.006721493 232.160453657 229.540039062 250.799804688 c 4
EndSplineSet
Validated: 1
EndChar

StartChar: uni05BF
Encoding: 309 1471 102
Width: 0
VWidth: 0
Flags: W
HStem: 419.931 155.129
VStem: 116.237 155.29
LayerCount: 2
Fore
SplineSet
204 564 m 0
 207.449933393 569.218574054 214.571056305 575.059623402 226.720240248 575.059623402 c 0
 233.72303537 575.059623402 242.396340825 573.119007877 253 568 c 0
 266.675385082 561.398089961 271.527611375 552.766911616 271.527611375 545.06526283 c 0
 271.527611375 540.964414406 270.151919851 537.127103965 268 534 c 0
 240.475585938 494.000976562 179.262695312 427.950195312 148 421 c 0
 144.712998801 420.269351482 141.59034192 419.930913827 138.677571247 419.930913827 c 0
 125.215865985 419.930913827 116.237188895 427.159714441 116.237188895 436.309115457 c 0
 116.237188895 437.82791347 116.484604488 439.39963537 117 441 c 0
 121.831054688 456 153.7578125 488.000976562 204 564 c 0
EndSplineSet
Validated: 1
EndChar

StartChar: slash
Encoding: 47 47 103
Width: 219
VWidth: 0
Flags: W
VStem: -18.1944 80.9405<-83.7419 -4.55901>
LayerCount: 2
Fore
SplineSet
290 627 m 0
 292.481303044 627.923219199 294.92071683 628.348285078 297.203155607 628.348285078 c 0
 304.720565451 628.348285078 310.53515546 623.737292454 310.53515546 617.12656666 c 0
 310.53515546 615.228612526 310.055872226 613.165825003 309 611 c 0
 280.237121392 552.001041489 131.884765625 166.420898438 62.74609375 -67.0048828125 c 0
 58.1569916467 -82.498595877 45.6761491537 -85.8700100707 31.4241383871 -85.8700100707 c 0
 26.4130401111 -85.8700100707 21.1829775011 -85.4532120313 16 -85 c 0
 15.00390625 -84.912109375 15.00390625 -84.912109375 14.0078125 -84.8251953125 c 0
 -4.73867268483 -83.1850386585 -18.1944451813 -82.008251649 -18.1944451813 -64.4479766997 c 0
 -18.1944451813 10.8875882221 250.030893727 612.12777441 290 627 c 0
EndSplineSet
Validated: 1
EndChar

StartChar: quotedbl
Encoding: 34 34 104
Width: 210
VWidth: 0
Flags: W
HStem: 364.69 154.061
VStem: 0 292.29
LayerCount: 2
Fore
SplineSet
224.762695312 507.690429688 m 0
 228.212890625 512.909179688 235.333984375 518.750976562 247.483398438 518.750976562 c 0
 254.486328125 518.750976562 263.159179688 516.809570312 273.762695312 511.690429688 c 0
 287.438476562 505.088867188 292.290039062 496.458007812 292.290039062 488.755859375 c 0
 292.290039062 484.655273438 290.915039062 480.818359375 288.762695312 477.690429688 c 0
 261.23828125 437.69140625 200.025390625 371.640625 168.762695312 364.690429688 c 0
 165.475585938 363.959960938 162.353515625 363.622070312 159.440429688 363.622070312 c 0
 145.978515625 363.622070312 137 370.850585938 137 380 c 0
 137 381.518554688 137.247070312 383.090820312 137.762695312 384.690429688 c 0
 142.59375 399.690429688 174.520507812 431.69140625 224.762695312 507.690429688 c 0
87.7626953125 506.690429688 m 0
 91.212890625 511.909179688 98.333984375 517.750976562 110.483398438 517.750976562 c 0
 117.486328125 517.750976562 126.159179688 515.809570312 136.762695312 510.690429688 c 0
 150.438476562 504.088867188 155.290039062 495.458007812 155.290039062 487.755859375 c 0
 155.290039062 483.655273438 153.915039062 479.818359375 151.762695312 476.690429688 c 0
 124.23828125 436.69140625 63.025390625 370.640625 31.7626953125 363.690429688 c 0
 28.4755859375 362.959960938 25.353515625 362.622070312 22.4404296875 362.622070312 c 0
 8.978515625 362.622070312 0 369.850585938 0 379 c 0
 0 380.518554688 0.2470703125 382.090820312 0.7626953125 383.690429688 c 0
 5.59375 398.690429688 37.5205078125 430.69140625 87.7626953125 506.690429688 c 0
EndSplineSet
Validated: 1
EndChar

StartChar: backslash
Encoding: 92 92 105
Width: 276
VWidth: 0
Flags: W
VStem: 228.221 80.9405<-83.7419 -1.44044>
LayerCount: 2
Fore
SplineSet
309 -60.94140625 m 0
 309.1081232 -62.1774379062 309.161174203 -63.3447008987 309.161174203 -64.4473661099 c 0
 309.161174203 -82.0082575949 295.705688948 -83.1850194639 276.958984375 -84.8251953125 c 0
 275.962890625 -84.912109375 275.962890625 -84.912109375 274.966796875 -85 c 0
 269.783817102 -85.45321223 264.55378366 -85.8700107358 259.542721773 -85.8700107358 c 0
 245.290822946 -85.8700107358 232.810148705 -82.4985967648 228.220703125 -67.0048828125 c 0
 159.08203125 166.420898438 10.7294921875 552.000976562 -18.033203125 611 c 0
 -19.0891788743 613.165887165 -19.5685061027 615.228730937 -19.5685061027 617.126730082 c 0
 -19.5685061027 623.737368445 -13.7538119818 628.348285078 -6.23639460557 628.348285078 c 0
 -3.95393473382 628.348285078 -1.51450616899 627.923219199 0.966796875 627 c 0
 43.966796875 611 302.448242188 13.9384765625 309 -60.94140625 c 0
EndSplineSet
Validated: 1
EndChar

StartChar: numbersign
Encoding: 35 35 106
Width: 446
VWidth: 0
Flags: W
HStem: 195.668 51.1939<9.7293 53.8123 138.986 229.218> 212 59.6369<322.372 380.569> 349.668 51.2021<60.7291 104.761 194.784 280.504> 366 59.6369<377.273 431.569>
VStem: 160.43 76.0551<471.935 582.362> 335.984 76.0551<468.316 579.954>
LayerCount: 2
Fore
SplineSet
19.608083202 31.3189938064 m 0x8c
 19.5550263122 31.3189938064 19.502071412 31.3194331071 19.44921875 31.3203125 c 0
 4.3738415063 31.5710220687 1.64078057997 36.3041680914 1.64078057997 43.7947306113 c 0
 1.64078057997 45.670048309 1.81208562412 47.7181976294 2.00390625 49.912109375 c 0
 2.75765442166 58.5310176643 25.0718668704 116.918840492 53.8123468114 199.264168673 c 1
 30.840857518 201.590610928 14.615856783 205.139999919 9.48046875 210.180664062 c 0
 1.7800063809 217.739078592 -2.07872754385 225.952726847 -2.07872754385 232.786619672 c 0
 -2.07872754385 239.57757189 1.7316662025 245.006053526 9.369140625 247.075195312 c 0
 12.9974054059 248.057856576 20.8677178798 248.392641382 31.9876642089 248.392641382 c 0
 42.2965638159 248.392641382 55.3983523806 248.104911493 70.5023118242 247.778911387 c 1
 81.6876813755 280.807881275 93.353307099 316.39101138 104.761029564 353.269369011 c 1
 81.816694447 355.595899027 65.6120318729 359.143754278 60.48046875 364.180664062 c 0
 52.7800063809 371.739078592 48.9212724561 379.952726847 48.9212724561 386.786619672 c 0
 48.9212724561 393.57757189 52.7316662025 399.006053526 60.369140625 401.075195312 c 0
 63.9974054059 402.057856576 71.8677178798 402.392641382 82.9876642089 402.392641382 c 0
 92.8110533314 402.392641382 105.17045702 402.131375288 119.381697785 401.824690817 c 1
 134.88181811 454.818105225 149.244389237 509.288079291 160.4296875 561.755859375 c 0
 164.983398438 583.116210938 181.4453125 583.407226562 201.4453125 583.408203125 c 0
 202.4453125 583.407226562 202.4453125 583.407226562 203.4453125 583.407226562 c 0
 222.87241528 583.407226562 236.484810206 583.310468349 236.484810206 564.069863701 c 0
 236.484810206 539.690258798 219.535311909 476.048958951 194.784225964 400.869921149 c 1xac
 227.437048496 400.969423089 262.677980453 401.97442273 296.597985131 405.118162407 c 1
 311.461628086 456.310572075 325.199837957 508.759759124 335.984375 559.34765625 c 0
 340.538085938 580.708007812 357 580.999023438 377 581 c 0
 378 580.999023438 378 580.999023438 379 580.999023438 c 0
 398.42710278 580.999023438 412.039497706 580.902265224 412.039497706 561.661660576 c 0
 412.039497706 539.452240531 397.973259839 484.659889093 376.756761712 418.244394031 c 1
 384.315912251 420.225727133 391.562080379 422.423088127 398.42578125 424.858398438 c 0
 399.883749216 425.375687555 401.483333942 425.63694203 403.181706422 425.63694203 c 0
 412.310896603 425.63694203 424.294400694 418.088412488 432.48046875 402.180664062 c 0
 435.906310478 395.523145151 437.322490624 389.76260526 437.322490624 384.895759916 c 0
 437.322490624 374.635140949 431.027855938 368.346813722 424 366 c 0
 413.016615607 362.332428544 388.030694483 358.903845949 356.003756414 356.144351266 c 1
 345.382374468 325.615508912 333.83400019 294.109368856 321.897195348 263.258113994 c 1
 330.855405238 265.489703495 339.401937237 268.011457637 347.42578125 270.858398438 c 0
 348.883749216 271.375687555 350.483333942 271.63694203 352.181706422 271.63694203 c 0
 361.310896603 271.63694203 373.294400694 264.088412488 381.48046875 248.180664062 c 0
 384.906310478 241.523145151 386.322490624 235.76260526 386.322490624 230.895759916 c 0
 386.322490624 220.635140949 380.027855938 214.346813722 373 212 c 0x5c
 361.125039399 208.034713438 332.881962242 204.348790366 297.068932352 201.48580202 c 1
 256.976354454 105.66825319 216.661612877 28.9107906814 195.162770702 28.9107906814 c 0
 195.109713812 28.9107906814 195.056758912 28.9112299821 195.00390625 28.912109375 c 0
 179.928529006 29.1628189437 177.19546808 33.8959649664 177.19546808 41.3865274863 c 0
 177.19546808 43.261845184 177.366773124 45.3099945044 177.55859375 47.50390625 c 0
 178.314220226 56.1442924426 200.737900137 114.801945694 229.58201346 197.472013211 c 1
 202.063228528 196.321644304 173.441979551 195.667810765 146.264271504 195.667810765 c 0
 136.678677838 195.667810765 127.272657353 195.749146158 118.157916384 195.918718423 c 1
 79.1864369903 103.852550102 40.5070228876 31.3189938062 19.608083202 31.3189938064 c 0x8c
177.3845518 349.790402291 m 1
 165.416722534 315.749256525 152.37234687 280.697981115 138.985624005 246.861664142 c 1
 173.757620379 246.876066952 211.734201989 247.864217006 248.078385755 251.352109777 c 1
 258.70510005 282.863655602 269.72141607 316.590457968 280.503599648 351.468736744 c 1
 253.008861734 350.32040289 224.416166557 349.667810765 197.264271504 349.667810765 c 0
 190.536360002 349.667810765 183.896911972 349.707879172 177.3845518 349.790402291 c 1
EndSplineSet
Validated: 1
EndChar

StartChar: underscore
Encoding: 95 95 107
Width: 446
VWidth: 0
Flags: W
HStem: -78.4074 51.1937<-61.9818 273.916>
LayerCount: 2
Fore
SplineSet
282.056640625 -3.216796875 m 0
 283.514608591 -2.69950775726 285.114193317 -2.43825328236 286.812565797 -2.43825328236 c 0
 295.941755978 -2.43825328236 307.925260069 -9.98678282454 316.111328125 -25.89453125 c 0
 319.537169853 -32.5520501612 320.953349999 -38.3125900525 320.953349999 -43.1794353965 c 0
 320.953349999 -53.4400543632 314.658715313 -59.7283815908 307.630859375 -62.0751953125 c 0
 281.085271897 -70.9392972526 172.746138454 -78.4073845475 80.895130879 -78.4073845475 c 0
 13.3878589563 -78.4073845475 -45.2129644822 -74.3733217739 -55.888671875 -63.89453125 c 0
 -63.5891342441 -56.3361167205 -67.4478681689 -48.1224684659 -67.4478681689 -41.2885756409 c 0
 -67.4478681689 -34.4976234221 -63.6374744225 -29.0691417864 -56 -27 c 0
 -52.3717352191 -26.0173387364 -44.5014227452 -25.6825539307 -33.3814764161 -25.6825539307 c 0
 -9.60065028643 -25.6825539307 29.0423697658 -27.2136915685 72.8410191067 -27.2136915685 c 0
 142.567524374 -27.2136915685 225.360432487 -23.3331834744 282.056640625 -3.216796875 c 0
EndSplineSet
Validated: 1
EndChar

StartChar: plus
Encoding: 43 43 108
Width: 285
VWidth: 0
Flags: W
HStem: 178.579 72.9987<180.649 254.127>
VStem: 124 81<244.508 327.231>
LayerCount: 2
Fore
SplineSet
229.540039062 250.799804688 m 0
 230.997816206 251.316872942 232.597173042 251.578021611 234.295297378 251.578021611 c 0
 243.42457084 251.578021611 255.408459184 244.030206076 263.594726562 228.122070312 c 0
 267.02056829 221.464551401 268.436748436 215.70401151 268.436748436 210.837166166 c 0
 268.436748436 200.5765472 262.14211375 194.288219972 255.114257812 191.94140625 c 0
 234.376278589 185.015114673 192.167772478 180.083567156 149.371365817 178.579323046 c 1
 142.730289936 167.003493463 135.865144968 155.659040871 129 145 c 0
 105 107 81 78 67 78 c 0
 48 78 48 84 48 95 c 0
 48 101.856450409 62.4648960642 135.973666477 79.6576654076 179.599401242 c 1
 55.7042952761 181.461861944 36.5524678007 185.129483746 28 191 c 0
 17.8060907544 197.997437869 12.4307442769 206.717841778 12.4307442769 214.150537777 c 0
 12.4307442769 219.649949757 15.3734459278 224.444413654 21.484375 227.314453125 c 0
 25.9617100149 229.417205743 32.6463913077 230.060271185 41.3558792486 230.060271185 c 0
 55.0728071508 230.060271185 73.8121434635 228.465186889 96.8607891217 228.465186889 c 0
 97.3484738306 228.465186889 97.8380878188 228.465901009 98.3296243314 228.467359469 c 1
 107.931335415 254.633875034 117.117119998 281.762773327 124 307 c 0
 130 328 149 329 169 329 c 0
 170 329 170 329 171 329 c 0
 191 329 205 329 205 308 c 0
 205 295.628740191 194.903078764 268.377806982 179.913887788 236.793467876 c 1
 195.576608196 240.096568963 212.149066698 244.629312253 229.540039062 250.799804688 c 0
EndSplineSet
Validated: 1
EndChar

StartChar: ampersand
Encoding: 38 38 109
Width: 334
VWidth: 0
Flags: W
HStem: -2 43<93.5093 148.5> 521.921 108.079<402.899 474.764>
VStem: 8 81<110.993 155.837>
LayerCount: 2
Fore
SplineSet
445 630 m 0
 475.471522488 630 487.065681184 612.556257899 487.065681184 589.104728667 c 0
 487.065681184 588.080951381 487.043585478 587.045724683 487 586 c 0
 485.751813145 556.034644215 470.954347342 521.920612523 439.143416843 521.920612523 c 0
 435.936381964 521.920612523 432.556426227 522.267339528 429 523 c 0
 425.87270867 523.64420871 422.882547053 524.014157995 420.029468052 524.014157995 c 0
 409.479336975 524.014157995 400.803641396 518.955558355 394 504 c 0
 352.600585938 412.999023438 270 -2 122 -2 c 0
 81.5504560061 -2 60.4638186313 31.6914575173 50.3054029495 57.1419389191 c 1
 31.0730017624 33.4635513867 8.65902196899 15 -7 15 c 0
 -27 15 -27 20 -27 31 c 0
 -27 44 -16.7939453125 48.22265625 8 135 c 0
 14 156 33 158 53 158 c 0
 54 158 55 158 56 158 c 0
 76 158 89 158 89 137 c 0
 89 131.761253361 87.9193741374 125.80208948 85.9670448032 119.401071681 c 0
 85.9042516138 118.161745852 85.7736533199 115.070058979 85.7736532368 110.792984214 c 0
 85.7736532368 89.9592575826 88.8723404255 41 118 41 c 0
 207 41 318.801757812 630 445 630 c 0
EndSplineSet
Validated: 1
EndChar

StartChar: equal
Encoding: 61 61 110
Width: 285
VWidth: 0
Flags: W
HStem: 113.157 50.3668<21.5253 219.969> 208.279 50.3668<27.12 225.563>
VStem: 5.31649 261.601
LayerCount: 2
Fore
SplineSet
222.42578125 185.858398438 m 0
 223.883558394 186.375466691 225.48291523 186.63661536 227.181039566 186.63661536 c 0
 236.310313027 186.63661536 248.294201371 179.088799826 256.48046875 163.180664062 c 0
 259.906310478 156.523145151 261.322490624 150.76260526 261.322490624 145.895759916 c 0
 261.322490624 135.635140949 255.027855938 129.346813722 248 127 c 0
 222.902593024 118.617700227 166.359031937 113.156941665 115.383858055 113.156941665 c 0
 72.8176670603 113.156941665 34.1342452464 116.964662693 20.8857421875 126.05859375 c 0
 10.6918329419 133.056031618 5.3164864644 141.776435527 5.3164864644 149.209131526 c 0
 5.3164864644 154.708543506 8.25918811527 159.503007404 14.3701171875 162.373046875 c 0
 18.8474522024 164.475799493 25.5321334952 165.118864935 34.2416214359 165.118864935 c 0
 47.9585493384 165.118864935 66.6978856513 163.523780639 89.74653131 163.523780639 c 0
 124.827896844 163.523780639 169.892463681 167.219047407 222.42578125 185.858398438 c 0
228.020507812 280.98046875 m 0
 229.478284957 281.497537004 231.077641792 281.758685673 232.775766129 281.758685673 c 0
 241.90503959 281.758685673 253.888927933 274.210870139 262.075195312 258.302734375 c 0
 265.50103704 251.645215464 266.917217186 245.884675573 266.917217186 241.017830229 c 0
 266.917217186 230.757211262 260.6225825 224.468884034 253.594726562 222.122070312 c 0
 228.497319586 213.73977054 171.9537585 208.279011977 120.978584617 208.279011977 c 0
 78.4123936228 208.279011977 39.7289718089 212.086733006 26.48046875 221.180664062 c 0
 16.2865595044 228.178101931 10.9112130269 236.89850584 10.9112130269 244.331201839 c 0
 10.9112130269 249.830613819 13.8539146778 254.625077716 19.96484375 257.495117188 c 0
 24.4421787649 259.597869805 31.1268600577 260.240935247 39.8363479984 260.240935247 c 0
 53.5532759009 260.240935247 72.2926122138 258.645850952 95.3412578725 258.645850952 c 0
 130.422623407 258.645850952 175.487190243 262.34111772 228.020507812 280.98046875 c 0
EndSplineSet
Validated: 1
EndChar

StartChar: grave
Encoding: 96 96 111
Width: 186
VWidth: 0
Flags: W
HStem: 472.94 155.129
VStem: -0.762811 155.29
LayerCount: 2
Fore
SplineSet
87 484 m 0
 36.7578125 559.999023438 4.8310546875 592 0 607 c 0
 -0.51539551171 608.60036463 -0.762811105035 610.17208653 -0.762811105035 611.690884543 c 0
 -0.762811105035 620.840285559 8.21586598456 628.069086173 21.6775712466 628.069086173 c 0
 24.5903419201 628.069086173 27.7129988007 627.730648518 31 627 c 0
 62.2626953125 620.049804688 123.475585938 553.999023438 151 514 c 0
 153.151919851 510.872896035 154.527611375 507.035585594 154.527611375 502.93473717 c 0
 154.527611375 495.233088384 149.675385082 486.601910039 136 480 c 0
 125.396340825 474.880992123 116.72303537 472.940376598 109.720240248 472.940376598 c 0
 97.5710563049 472.940376598 90.4499333936 478.781425946 87 484 c 0
EndSplineSet
Validated: 1
EndChar

StartChar: sterling
Encoding: 163 163 112
Width: 350
VWidth: 0
Flags: W
HStem: -26.3096 76.3594<116.497 327.835> -1 38<-48.4342 -2.08867> -0.873047 44.873<58.1058 210.211> 217.414 80.3643<191.254 295.424> 219.923 48.0471<39.3951 79.3894> 440.943 108.074<225.322 300.543>
LayerCount: 2
Fore
SplineSet
294 -26 m 0x84
 216.584960938 -12.7421875 132.931640625 -0.873046875 0.1259765625 -0.873046875 c 0x24
 -7.7412109375 -0.873046875 -15.779296875 -0.9140625 -24 -1 c 0
 -24.080078125 -1 -24.158203125 -1 -24.2333984375 -1 c 0
 -42.1962890625 -0.935546875 -48.7509765625 6.54296875 -48.7509765625 14.8701171875 c 0
 -48.7509765625 24.4873046875 -40.007858773 35.2356140097 -30 37 c 0
 7.79215325586 43.6627584643 42.9497365886 124.429455085 79.3893962573 219.922793615 c 1
 54.293603738 221.986808447 32.6650118168 225.344290888 25.556640625 230.223632812 c 0
 15.3623046875 237.221679688 9.9873046875 245.94140625 9.9873046875 253.374023438 c 0
 9.9873046875 258.874023438 12.9296875 263.66796875 19.041015625 266.538085938 c 0
 23.5185546875 268.641601562 30.203125 269.284179688 38.912109375 269.284179688 c 0
 48.9657028565 269.284179688 75.1479323485 268.427490168 97.4901207863 267.969915708 c 1x4c
 148.347677685 403.798890669 202.850957487 549.017578125 271.198242188 549.017578125 c 0
 301.694335938 549.017578125 313.061523438 531.529296875 313.061523438 508.9296875 c 0
 313.061523438 477.401367188 297.455078125 440.943359375 265.727539062 440.943359375 c 0
 262.646484375 440.943359375 259.405273438 441.283203125 256 442 c 0
 252.720703125 442.690429688 249.5625 443.076171875 246.547851562 443.076171875 c 0
 235.888671875 443.076171875 227.028320312 438.251953125 221 425 c 0
 206.330797816 392.756046977 191.819698309 335.629239088 171.652925537 272.45778332 c 1
 202.964312211 277.292513606 239.092608756 285.673353613 271 297 c 0
 272.458007812 297.517578125 274.056640625 297.778320312 275.754882812 297.778320312 c 0
 284.884765625 297.778320312 296.868164062 290.23046875 305.0546875 274.322265625 c 0
 308.48046875 267.665039062 309.896484375 261.904296875 309.896484375 257.038085938 c 0
 309.896484375 246.77734375 303.6015625 240.48828125 296.57421875 238.141601562 c 0
 272.735235309 230.180123163 203.471055584 218.559571501 152.899321988 217.4140308 c 1
 129.858593369 154.56841704 100.000313439 91.0923585866 58.0908203125 43.9443359375 c 1
 58.4111328125 43.974609375 58.7138671875 43.9931640625 59 44 c 0x34
 164 46.5 182 49.6630859375 279 50 c 0
 280.569335938 50.005859375 282.905273438 50.0498046875 285.760742188 50.0498046875 c 0
 302.950195312 50.0498046875 338.979492188 48.4384765625 340 27 c 0
 340.012695312 26.7275390625 340.01953125 26.447265625 340.01953125 26.16015625 c 0
 340.01953125 10.4287109375 320.65234375 -26.3095703125 297.637695312 -26.3095703125 c 0
 296.434570312 -26.3095703125 295.220703125 -26.208984375 294 -26 c 0x84
EndSplineSet
Validated: 1
EndChar

StartChar: at
Encoding: 64 64 113
Width: 634
VWidth: 0
Flags: W
HStem: 0 43<388.137 443.5> 12.6738 39.2535<125.86 272.558> 34 46<32.4255 172.164> 523.921 108.079<697.899 769.764>
VStem: -7.24319 69.8854<-44.2857 31.1886> 299.974 80.7998<78.6446 179.989>
LayerCount: 2
Fore
SplineSet
62.9736328125 80 m 0x3c
 110.222755118 80 170.298533893 51.9272840349 220.602559432 51.9272840349 c 0
 233.113192917 51.9272840349 245.019424792 53.6636351596 255.973632812 58 c 0
 274.973632812 65.521484375 299.973632812 100.965820312 299.973632812 159 c 0
 299.973632812 191 333.973632812 200 369.973632812 200 c 0
 379.973632812 200 390.973632812 194 390.973632812 181 c 0
 390.973632812 159.414954675 387.384849807 139.306298082 380.949800733 121.048806279 c 0
 380.883061359 119.632425995 380.773437518 116.709784787 380.7734375 112.79296875 c 0
 380.7734375 91.958984375 383.872070312 43 413 43 c 0
 502 43 613.801757812 632 740 632 c 0
 770.471679688 632 782.065429688 614.555664062 782.065429688 591.103515625 c 0
 782.065429688 590.080078125 782.043945312 589.045898438 782 588 c 0
 780.750976562 558.034179688 765.954101562 523.920898438 734.143554688 523.920898438 c 0
 730.936523438 523.920898438 727.556640625 524.267578125 724 525 c 0
 720.873046875 525.64453125 717.8828125 526.014648438 715.029296875 526.014648438 c 0
 704.479492188 526.014648438 695.803710938 520.955078125 689 506 c 0
 647.600585938 414.999023438 565 0 417 0 c 0x9c
 375.316515538 0 354.195313642 35.7783716668 344.406004928 61.4468934785 c 1
 322.985538934 39.105404285 295.912366334 23.6526018118 266.973632812 17 c 0
 253.558503241 13.916016338 241.088373152 12.6738219014 229.335418775 12.6738219014 c 0x5c
 180.637682179 12.6738219014 144.252524427 34 103.973632812 34 c 0
 70.0113686615 34 62.6421981382 17.0257514909 62.6421981382 -1.88174009607 c 0
 62.6421981382 -16.3774836462 66.9736328125 -32.0095445165 66.9736328125 -42 c 0
 66.9736328125 -53 66.9736328125 -59 47.9736328125 -59 c 0
 13.9736328125 -59 -5.703125 -24 -7.0263671875 7 c 0
 -7.15802400386 10.0840394107 -7.2431858537 13.1913717988 -7.2431858537 16.2939467369 c 0
 -7.2431858537 48.401726912 1.87736539871 80 62.9736328125 80 c 0x3c
EndSplineSet
Validated: 1
EndChar

StartChar: asciitilde
Encoding: 126 126 114
Width: 441
VWidth: 0
Flags: W
HStem: 188.915 51.0849<220.887 381.053> 219 53.066<66.6273 231.511>
LayerCount: 2
Fore
SplineSet
144 219 m 3x40
 76 219 50 189 15 189 c 0
 7.50381128725 189 4.96634954889 191.643130358 4.96634954889 196.903836365 c 0
 4.96634954889 197.257403113 4.9778113869 197.622793577 5 198 c 0
 5.86577629013 212.718196932 62.8244720409 272.065998987 165.076910818 272.065998987 c 0x40
 167.034694851 272.065998987 169.009083178 272.044242596 171 272 c 0
 216 271 256 240 317 240 c 3
 367 240 390 267 425 267 c 0
 433 267 435 264 435 258 c 0
 435 237.491956672 370.117020948 188.915081739 283.286119483 188.915081739 c 0x80
 281.203178626 188.915081739 279.107607905 188.943035151 277 189 c 0
 240 190 173 219 144 219 c 3x40
EndSplineSet
Validated: 1
EndChar

StartChar: dollar
Encoding: 36 36 115
Width: 342
VWidth: 0
Flags: W
HStem: -10.5413 48.8338<98.3286 158.431> 467.05 34.0375<142.663 175.355>
VStem: 64.6395 60.5154<348.354 454.398> 190.853 63.0566<536.802 555.257> 191.165 72.9568<70.7106 198.445>
LayerCount: 2
Fore
SplineSet
114 38 m 0xe8
 162.406541153 39.0966261664 191.165327997 93.9290342577 191.165327997 142.238775418 c 0
 191.165327997 167.61217226 179.226642192 187.395541656 162.630007452 206.709711736 c 1
 141.399386542 144.923020715 118.960397961 85.2353966646 98.2638786376 38.29258351 c 1
 101.837037358 38.0595543828 105.529980889 37.9464437983 109.356483325 37.9464437983 c 0
 110.882781397 37.9464437983 112.430328912 37.9644398805 114 38 c 0xe8
115.224350989 257.277107339 m 1
 88.3391597172 287.937726204 64.6394593869 325.579447081 64.6394593869 383.694497291 c 0
 64.6394593869 387.829723449 64.7594546638 392.068609264 65.0068359375 396.416015625 c 0
 68.276770498 453.880891998 118.014662124 499.608870108 172.565429688 501.087890625 c 0
 174.067917289 501.128627173 175.558102867 501.148741197 177.035753478 501.148741197 c 0
 179.245319145 501.148741197 181.426856724 501.103766394 183.57958736 501.015516976 c 0
 186.152809456 512.047246789 188.583784141 522.905813034 190.852539062 533.549804688 c 0
 195.313356749 554.478126917 204.000742577 555.615406658 224.609373682 555.615406658 c 0
 225.673733729 555.614999344 226.03462447 555.614257812 227.059570312 555.614257812 c 0
 227.897516908 555.614257812 228.711984437 555.615067154 229.503504295 555.615067154 c 0
 246.035702429 555.615067154 252.556929806 555.261990061 253.909179688 539.806640625 c 0xf0
 253.993002405 538.846198646 254.035737888 537.828737647 254.035737888 536.751235841 c 0
 254.035737888 536.184261387 254.023905304 535.600662856 254 535 c 0
 253.601592969 524.946897474 250.385315318 507.036415825 244.981816908 483.543752585 c 1
 264.175783432 471.740869679 276.196171685 455.406389337 279 439 c 0
 279.699022889 434.909720431 280.023988523 431.103118802 280.023988523 427.63260959 c 0
 280.023988523 413.931823531 274.959425237 405.469010767 267.850696962 405.469010767 c 0
 261.80961179 405.469010767 254.292269395 411.580693795 247.15234375 425.783203125 c 0
 244.404018784 431.250021991 240.398194019 437.590544904 235.122185729 443.66373954 c 1
 223.640882972 399.705062459 207.744848268 345.28002773 189.728214224 288.66518497 c 1
 226.021954126 248.22725413 264.12216305 204.021530821 264.12216305 144.144488279 c 0
 264.12216305 141.32866127 264.037903601 138.478176794 263.865234375 135.591796875 c 0
 259.260813457 58.6232000162 198.864647431 -10.5412537502 113.033813677 -10.5412537502 c 0
 109.63917602 -10.5412537502 106.204752732 -10.4330647423 102.732421875 -10.212890625 c 0
 93.2052690342 -9.6087913747 84.5313028437 -8.62185410037 76.5868596614 -7.22071477358 c 1
 60.6531759802 -37.594004821 46.6876054659 -56.3466269971 36.41796875 -57.2451171875 c 0
 36.1584826936 -57.2675727116 35.9018298474 -57.2794036971 35.6468037647 -57.2794036971 c 0
 35.6023792309 -57.2794036971 35.55800406 -57.2790446946 35.513671875 -57.2783203125 c 0
 21.875 -57.05078125 18.337890625 -53.15625 17.7880859375 -46.869140625 c 0
 17.7303451119 -46.208746717 17.705618164 -45.5219121642 17.705618164 -44.8100993659 c 0
 17.705618164 -42.9335722708 17.8774677965 -40.8834490521 18.0693359375 -38.6865234375 c 0
 18.4148931214 -34.7328656747 23.9088945083 -17.7357564558 32.8380613988 8.75246445153 c 1
 16.2511522871 19.4298867127 4.10106227648 34.8526180824 -7.404296875 55.982421875 c 0
 -13.7179759121 67.5777741953 -16.5320746927 79.1178956172 -16.5320746927 88.0520915338 c 0
 -16.5320746927 97.9742492858 -13.0611862962 104.682278003 -7.05837079784 104.682278003 c 0
 -2.41117295901 104.682278003 3.75350681666 100.661896688 11 91 c 0
 23.3901058921 74.4798588106 35.2684960374 62.3874051253 48.1850001065 53.9566230556 c 1
 66.4603776626 107.680838697 90.8875532787 179.768542996 115.224350989 257.277107339 c 1
175.355038108 467.050432904 m 1
 173.692648967 466.799745037 172.002701389 466.485604725 170.28515625 466.104492188 c 0
 139.041583356 459.171738525 125.154832654 433.175212901 125.154832654 400.703083465 c 0
 125.154832654 398.842066617 125.200444716 396.959780167 125.291015625 395.05859375 c 0
 126.09672361 378.145866464 132.613675547 362.272137485 142.422767256 346.715826559 c 1
 154.305884956 387.256252245 165.556565957 427.934363951 175.355038108 467.050432904 c 1
EndSplineSet
Validated: 1
EndChar

StartChar: asterisk
Encoding: 42 42 116
Width: 285
VWidth: 0
Flags: W
HStem: 251 241
VStem: 127 81<434.381 490.231>
LayerCount: 2
Fore
SplineSet
232.540039062 413.799804688 m 0
 233.998046875 414.31640625 235.59765625 414.578125 237.294921875 414.578125 c 0
 246.424804688 414.578125 258.408203125 407.030273438 266.594726562 391.122070312 c 0
 270.020507812 384.46484375 271.436523438 378.704101562 271.436523438 373.836914062 c 0
 271.436523438 363.576171875 265.142578125 357.288085938 258.114257812 354.94140625 c 0
 243.27412329 349.984678327 217.43996507 346.050092066 188.263230635 343.661532937 c 1
 212.947994695 314.673497801 231.960545504 292.950609207 234.373046875 285.884765625 c 0
 234.916992188 284.29296875 235.19140625 282.7265625 235.217773438 281.208007812 c 0
 235.219199689 281.126537552 235.21991126 281.045207237 235.21991126 280.964020672 c 0
 235.21991126 271.928626413 226.406501196 264.673685356 213.06640625 264.440429688 c 0
 212.847062327 264.436603494 212.62648208 264.434678909 212.404685979 264.434678909 c 0
 209.682803955 264.434678909 206.777811745 264.724525194 203.727539062 265.346679688 c 0
 190.827476852 267.979042303 164.839659585 289.006416122 136.792520605 315.638689693 c 1
 135.188947656 313.063713687 133.589245008 310.516304597 132 308 c 0
 108 270 88 251 74 251 c 0
 55 251 55 257 55 268 c 0
 55 274.856445312 65.46484375 298.973632812 82.6572265625 342.599609375 c 1
 58.7041015625 344.461914062 39.552734375 348.129882812 31 354 c 0
 20.8056640625 360.997070312 15.4306640625 369.717773438 15.4306640625 377.150390625 c 0
 15.4306640625 382.650390625 18.373046875 387.444335938 24.484375 390.314453125 c 0
 28.9619140625 392.416992188 35.646484375 393.060546875 44.35546875 393.060546875 c 0
 49.9370562126 393.060546875 56.349986845 392.796366646 63.5462380809 392.482989322 c 1
 51.6460484314 406.2563564 41.9337988683 418.376886043 36 427 c 0
 33.8486328125 430.126953125 32.47265625 433.96484375 32.47265625 438.065429688 c 0
 32.47265625 445.767578125 37.3251953125 454.3984375 51 461 c 0
 61.603515625 466.119140625 70.27734375 468.059570312 77.2802734375 468.059570312 c 0
 89.4287109375 468.059570312 96.5498046875 462.21875 100 457 c 0
 105.098775974 449.287567419 110.494099131 441.531818393 116.078592407 433.805385814 c 1
 120.0913174 446.088254459 123.795270309 458.249172898 127 470 c 0
 133 491 152 492 172 492 c 0
 173 492 173 492 174 492 c 0
 194 492 208 492 208 471 c 0
 208 458.62890625 197.903320312 431.377929688 182.9140625 399.793945312 c 1
 198.576171875 403.096679688 215.149414062 407.62890625 232.540039062 413.799804688 c 0
EndSplineSet
Validated: 1
EndChar

StartChar: greater
Encoding: 62 62 117
Width: 179
VWidth: 0
Flags: W
HStem: 1.42196 284.8<35.1941 37.2329>
VStem: -7.97393 171.21
LayerCount: 2
Fore
SplineSet
57.7158203125 10.5986328125 m 0
 54.1694780963 6.13478022623 47.540640327 1.4219599644 37.2329169441 1.4219599644 c 0
 36.2293934203 1.4219599644 35.1910003829 1.46662940162 34.1171875 1.560546875 c 0
 27.1416015625 2.1708984375 18.6708984375 4.8603515625 8.5537109375 10.884765625 c 0
 -3.60098274116 18.1210018332 -7.97393252899 26.4434962805 -7.97393252899 33.7512510734 c 0
 -7.97393252899 34.2888306668 -7.95026831375 34.8209189971 -7.904296875 35.3466796875 c 0
 -7.546875 39.431640625 -5.8427734375 43.1337890625 -3.42578125 46.0625 c 0
 24.158203125 79.4853515625 78.8388671875 127.89453125 112.665039062 148.022460938 c 1
 74.841796875 179.89453125 21.435546875 232.6953125 18.3740234375 255.861328125 c 0
 18.102613279 257.913717332 17.9737187807 259.891156595 17.9737187807 261.784565136 c 0
 17.9737187807 262.970489987 18.0242849501 264.123449027 18.1220703125 265.241210938 c 0
 19.2431291837 278.059179647 26.5874057474 286.221556968 35.1940600741 286.221556968 c 0
 35.5916857494 286.221556968 35.9920058706 286.204135017 36.39453125 286.168945312 c 0
 37.90625 286.036132812 39.451171875 285.653320312 41 285 c 0
 55.521484375 278.879882812 62.7005961223 253.100471589 151.192382812 186.8125 c 0
 159.962631577 180.242828139 163.235781805 169.236465326 163.235781805 157.840055526 c 0
 163.235781805 145.97725532 159.68924676 133.691830054 155.104492188 125.547851562 c 0
 147.375 111.815429688 114.390625 81.9296875 57.7158203125 10.5986328125 c 0
EndSplineSet
Validated: 1
EndChar

StartChar: less
Encoding: 60 60 118
Width: 201
VWidth: 0
Flags: W
HStem: -1.81738 288.568
VStem: -3.75927 160.049
LayerCount: 2
Fore
SplineSet
88.7626953125 275.690429688 m 0
 92.212890625 280.909179688 99.333984375 286.750976562 111.483398438 286.750976562 c 0
 118.486328125 286.750976562 127.159179688 284.809570312 137.762695312 279.690429688 c 0
 151.438476562 273.088867188 156.290039062 264.458007812 156.290039062 256.755859375 c 0
 156.290039062 252.655273438 154.915094175 248.818321451 152.762695312 245.690429688 c 0
 128.196289063 209.990234375 77.9437162642 157 46 134 c 1
 86.45703125 105.545898438 150.063786764 52.7559283109 155.1328125 29.9453125 c 0
 155.86328125 26.658203125 156.201171875 23.5361328125 156.201171875 20.623046875 c 0
 156.201171875 7.1611328125 148.97265625 -1.8173828125 139.822265625 -1.8173828125 c 0
 138.3046875 -1.8173828125 136.732421875 -1.5703125 135.1328125 -1.0546875 c 0
 120.1328125 3.7763671875 104.93359375 33.6787109375 11 92 c 0
 0.18754314574 98.7133264186 -3.75926726473 112.03518147 -3.75926726473 125.345901315 c 0
 -3.75926726473 135.425210255 -1.49616232117 145.498134257 1.7626953125 152.690429688 c 0
 8.2666015625 167.044921875 38.5205078125 199.69140625 88.7626953125 275.690429688 c 0
EndSplineSet
Validated: 1
EndChar

